<svg width="24" height="24" viewBox="0 0 24 24" fill="none" xmlns="http://www.w3.org/2000/svg">
<g clip-path="url(#clip0_2970_187)">
<path d="M0.217969 12.5297C-0.0726562 12.2391 -0.0726562 11.7609 0.217969 11.4703L6.21797 5.47031C6.50859 5.17969 6.98672 5.17969 7.27734 5.47031C7.56797 5.76094 7.56797 6.23906 7.27734 6.52969L2.55703 11.25H15.7477C16.1602 11.25 16.4977 11.5875 16.4977 12C16.4977 12.4125 16.1602 12.75 15.7477 12.75H2.55703L7.27734 17.4703C7.56797 17.7609 7.56797 18.2391 7.27734 18.5297C6.98672 18.8203 6.50859 18.8203 6.21797 18.5297L0.217969 12.5297ZM15.7477 3C15.3352 3 14.9977 2.6625 14.9977 2.25C14.9977 1.8375 15.3352 1.5 15.7477 1.5H20.2477C22.3195 1.5 23.9977 3.17812 23.9977 5.25V18.75C23.9977 20.8219 22.3195 22.5 20.2477 22.5H15.7477C15.3352 22.5 14.9977 22.1625 14.9977 21.75C14.9977 21.3375 15.3352 21 15.7477 21H20.2477C21.4898 21 22.4977 19.9922 22.4977 18.75V5.25C22.4977 4.00781 21.4898 3 20.2477 3H15.7477Z" fill="#191B1F"/>
</g>
<defs>
<clipPath id="clip0_2970_187">
<rect width="24" height="24" fill="white"/>
</clipPath>
</defs>
</svg>
