<svg width="24" height="24" viewBox="0 0 24 24" fill="none" xmlns="http://www.w3.org/2000/svg">
<path d="M22.7903 12.5071L14.6429 20.7563C14.4808 20.9203 14.2156 21 14.0388 21C13.8431 21 13.6465 20.9356 13.4908 20.8052C13.1581 20.5269 13.1335 20.0525 13.4358 19.7464L20.3446 12.7508H1.81474C1.36435 12.7508 1 12.4154 1 12.043C1 11.6707 1.36445 11.2509 1.81474 11.2509H20.3441L13.4343 4.25315C13.1319 3.94704 13.1566 3.47229 13.4892 3.19435C13.8226 2.91753 14.3373 2.93801 14.6408 3.24562L22.7882 11.4948C23.0702 11.7806 23.0702 12.2211 22.7903 12.5071Z" fill="#191B1F"/>
</svg>
