<svg width="24" height="24" viewBox="0 0 24 24" fill="none" xmlns="http://www.w3.org/2000/svg">
<path d="M14.5001 1.5C14.0876 1.5 13.7501 1.8375 13.7501 2.25C13.7501 2.6625 14.0876 3 14.5001 3H19.4407L1.22041 21.2203C0.929785 21.5109 0.929785 21.9891 1.22041 22.2797C1.51104 22.5703 1.98916 22.5703 2.27979 22.2797L20.5001 4.05937V9C20.5001 9.4125 20.8376 9.75 21.2501 9.75C21.6626 9.75 22.0001 9.4125 22.0001 9V2.25C22.0001 1.8375 21.6626 1.5 21.2501 1.5H14.5001ZM2.27979 1.72031C1.98916 1.42969 1.51104 1.42969 1.22041 1.72031C0.929785 2.01094 0.929785 2.48906 1.22041 2.77969L9.11416 10.6734L10.1735 9.61406L2.27979 1.72031ZM12.8267 14.3859L19.4407 21H14.5001C14.0876 21 13.7501 21.3375 13.7501 21.75C13.7501 22.1625 14.0876 22.5 14.5001 22.5H21.2501C21.6626 22.5 22.0001 22.1625 22.0001 21.75V15C22.0001 14.5875 21.6626 14.25 21.2501 14.25C20.8376 14.25 20.5001 14.5875 20.5001 15V19.9406L13.886 13.3266L12.8267 14.3859Z" fill="#191B1F"/>
</svg>
