<svg width="24" height="24" viewBox="0 0 24 24" fill="none" xmlns="http://www.w3.org/2000/svg">
<path d="M20.506 14.642L12.2561 22.7888C12.1108 22.9312 11.9327 23 11.7498 23C11.567 23 11.388 22.93 11.245 22.7883L2.99512 14.6415C2.68917 14.3375 2.66648 13.8219 2.94477 13.4879C3.22382 13.1522 3.69898 13.1315 4.0046 13.4323L10.9999 20.3433V1.81469C10.9999 1.36433 11.3353 1 11.7077 1C12.08 1 12.4998 1.36437 12.4998 1.81469V20.3428L19.4935 13.4334C19.7989 13.1327 20.2744 13.1533 20.5533 13.4891C20.8341 13.8219 20.8107 14.3375 20.506 14.642Z" fill="#191B1F"/>
</svg>
