<svg width="25" height="24" viewBox="0 0 25 24" fill="none" xmlns="http://www.w3.org/2000/svg">
<path d="M9.9999 13.5H2.4999C2.08553 13.5 1.7499 13.8375 1.7499 14.25C1.7499 14.6625 2.08553 15 2.4999 15H8.19053L1.22021 21.9703C0.927246 22.2633 0.927246 22.7381 1.22021 23.0306C1.51318 23.3231 1.98803 23.3236 2.28053 23.0306L9.2499 16.0594V21.75C9.2499 22.1625 9.5874 22.5 9.9999 22.5C10.4124 22.5 10.7499 22.1625 10.7499 21.75V14.25C10.7499 13.8375 10.4124 13.5 9.9999 13.5ZM23.2796 0.969849C22.9866 0.67688 22.5118 0.67688 22.2193 0.969849L15.2499 7.94063V2.25C15.2499 1.83563 14.9124 1.5 14.4999 1.5C14.0874 1.5 13.7499 1.83563 13.7499 2.25V9.75C13.7499 10.1625 14.0874 10.5 14.4999 10.5H21.9999C22.4124 10.5 22.7499 10.1625 22.7499 9.75C22.7499 9.3375 22.4124 9 21.9999 9H16.3093L23.2796 2.02969C23.5749 1.73719 23.5749 1.26282 23.2796 0.969849Z" fill="#191B1F"/>
</svg>
