<svg width="24" height="24" viewBox="0 0 24 24" fill="none" xmlns="http://www.w3.org/2000/svg">
<path d="M22.75 12.4282C22.75 12.8604 22.3866 13.2139 21.9348 13.2139H3.40693L10.3164 20.5457C10.6188 20.8665 10.5941 21.3639 10.2615 21.6551C10.1047 21.7882 9.90831 21.8569 9.71188 21.8569C9.49065 21.8569 9.26947 21.771 9.10884 21.5991L0.961851 12.9561C0.679383 12.6569 0.679383 12.1994 0.961851 11.9003L9.10884 3.25733C9.41281 2.93509 9.92844 2.91358 10.2604 3.20361C10.593 3.49521 10.6177 3.99228 10.3153 4.31295L3.40693 11.6425H21.9353C22.3866 11.6425 22.75 11.9961 22.75 12.4282Z" fill="#191B1F"/>
</svg>
