<svg width="24" height="24" viewBox="0 0 24 24" fill="none" xmlns="http://www.w3.org/2000/svg">
<g clip-path="url(#clip0_2156_25556)">
<path d="M23.25 0H15.75C15.3375 0 15 0.335438 15 0.75C15 1.16456 15.3375 1.5 15.75 1.5H21.4406L13.7203 9.22031C13.4273 9.51328 13.4273 9.98813 13.7203 10.2806C14.0133 10.5731 14.4881 10.5736 14.7806 10.2806L22.5 2.56078V8.25C22.5 8.6625 22.8375 9 23.25 9C23.6625 9 24 8.6625 24 8.25V0.75C24 0.335438 23.6625 0 23.25 0ZM9.22031 13.7203L1.5 21.4406V15.75C1.5 15.3375 1.16438 15 0.75 15C0.335625 15 0 15.3375 0 15.75V23.25C0 23.6625 0.335438 24 0.75 24H8.25C8.6625 24 9 23.6625 9 23.25C9 22.8375 8.6625 22.5 8.25 22.5H2.56078L10.2811 14.7797C10.5741 14.4867 10.5741 14.0119 10.2811 13.7194C9.98812 13.4269 9.51094 13.425 9.22031 13.7203Z" fill="#191B1F"/>
</g>
<defs>
<clipPath id="clip0_2156_25556">
<rect width="24" height="24" fill="white"/>
</clipPath>
</defs>
</svg>
