<svg width="24" height="24" viewBox="0 0 24 24" fill="none" xmlns="http://www.w3.org/2000/svg">
<path d="M20.5531 10.5126C20.4078 10.6893 20.2015 10.7777 20 10.7777C19.8198 10.7777 19.6389 10.7077 19.4951 10.5661L12.5 3.65874V22.1854C12.5 22.6357 12.1645 23 11.7921 23C11.4198 23 11 22.6361 11 22.1844V3.65874L4.0062 10.5676C3.69917 10.8268 3.22526 10.8465 2.94476 10.5126C2.66646 10.1787 2.68915 9.66308 2.99529 9.35864L11.2453 1.21242C11.531 0.929193 11.9691 0.929193 12.2545 1.21242L20.5045 9.35864C20.8109 9.66308 20.8343 10.1787 20.5531 10.5126Z" fill="#191B1F"/>
</svg>
