<svg width="24" height="24" viewBox="0 0 24 24" fill="none" xmlns="http://www.w3.org/2000/svg">
<path d="M23.7797 11.4703C24.0703 11.7609 24.0703 12.2391 23.7797 12.5297L17.7797 18.5297C17.4891 18.8203 17.0109 18.8203 16.7203 18.5297C16.4297 18.2391 16.4297 17.7609 16.7203 17.4703L21.4406 12.75H8.25C7.8375 12.75 7.5 12.4125 7.5 12C7.5 11.5875 7.8375 11.25 8.25 11.25H21.4406L16.7203 6.52969C16.4297 6.23906 16.4297 5.76094 16.7203 5.47031C17.0109 5.17969 17.4891 5.17969 17.7797 5.47031L23.7797 11.4703ZM8.25 21C8.6625 21 9 21.3375 9 21.75C9 22.1625 8.6625 22.5 8.25 22.5H3.75C1.67812 22.5 0 20.8219 0 18.75V5.25C0 3.17812 1.67812 1.5 3.75 1.5H8.25C8.6625 1.5 9 1.8375 9 2.25C9 2.6625 8.6625 3 8.25 3H3.75C2.50781 3 1.5 4.00781 1.5 5.25V18.75C1.5 19.9922 2.50781 21 3.75 21H8.25Z" fill="#191B1F"/>
</svg>
