<svg width="24" height="24" viewBox="0 0 24 24" fill="none" xmlns="http://www.w3.org/2000/svg">
<g clip-path="url(#clip0_2977_893)">
<path d="M15.75 0C15.3375 0 15 0.3375 15 0.75C15 1.1625 15.3375 1.5 15.75 1.5H21.4406L9.97031 12.9703C9.67969 13.2609 9.67969 13.7391 9.97031 14.0297C10.2609 14.3203 10.7391 14.3203 11.0297 14.0297L22.5 2.55937V8.25C22.5 8.6625 22.8375 9 23.25 9C23.6625 9 24 8.6625 24 8.25V0.75C24 0.3375 23.6625 0 23.25 0H15.75ZM3 1.5C1.34531 1.5 0 2.84531 0 4.5V21C0 22.6547 1.34531 24 3 24H19.5C21.1547 24 22.5 22.6547 22.5 21V14.25C22.5 13.8375 22.1625 13.5 21.75 13.5C21.3375 13.5 21 13.8375 21 14.25V21C21 21.8297 20.3297 22.5 19.5 22.5H3C2.17031 22.5 1.5 21.8297 1.5 21V4.5C1.5 3.67031 2.17031 3 3 3H9.75C10.1625 3 10.5 2.6625 10.5 2.25C10.5 1.8375 10.1625 1.5 9.75 1.5H3Z" fill="#191B1F"/>
</g>
<defs>
<clipPath id="clip0_2977_893">
<rect width="24" height="24" fill="white"/>
</clipPath>
</defs>
</svg>
