<svg width="27" height="24" viewBox="0 0 27 24" fill="none" xmlns="http://www.w3.org/2000/svg">
<path d="M7.77734 22.2797C7.48672 22.5703 7.00859 22.5703 6.71797 22.2797L2.21797 17.7797C1.92734 17.4891 1.92734 17.0109 2.21797 16.7203C2.50859 16.4297 2.98672 16.4297 3.27734 16.7203L6.49766 19.9406V2.25C6.49766 1.8375 6.83516 1.5 7.24766 1.5C7.66016 1.5 7.99766 1.8375 7.99766 2.25V19.9406L11.218 16.7203C11.5086 16.4297 11.9867 16.4297 12.2773 16.7203C12.568 17.0109 12.568 17.4891 12.2773 17.7797L7.77734 22.2797ZM24.2773 6.22031C24.568 6.51094 24.568 6.98906 24.2773 7.27969C23.9867 7.57031 23.5086 7.57031 23.218 7.27969L19.9977 4.05937V21.75C19.9977 22.1625 19.6602 22.5 19.2477 22.5C18.8352 22.5 18.4977 22.1625 18.4977 21.75V4.05937L15.2773 7.27969C14.9867 7.57031 14.5086 7.57031 14.218 7.27969C13.9273 6.98906 13.9273 6.51094 14.218 6.22031L18.718 1.72031C19.0086 1.42969 19.4867 1.42969 19.7773 1.72031L24.2773 6.22031Z" fill="#191B1F"/>
</svg>
