<svg width="24" height="24" viewBox="0 0 24 24" fill="none" xmlns="http://www.w3.org/2000/svg">
<path d="M8.20786 20.5359C5.82661 21.3281 4.35005 21.0094 3.67505 20.3297C3.00005 19.65 2.67661 18.1734 3.4688 15.7969C3.72192 15.0375 4.07348 14.2359 4.52348 13.4109C5.31098 14.5265 6.24379 15.6328 7.30786 16.6969C8.37192 17.7609 9.47817 18.6937 10.5938 19.4812C9.7688 19.9312 8.96723 20.2875 8.20786 20.5359ZM2.61098 2.61092C0.773483 4.44842 1.2938 8.15155 3.60005 12C1.2938 15.8484 0.773483 19.5515 2.61098 21.389C4.44848 23.2265 8.15161 22.7062 12 20.4C15.8485 22.7062 19.5516 23.2265 21.3891 21.389C23.2266 19.5515 22.7063 15.8484 20.4 12C22.7063 8.15155 23.2266 4.44842 21.3891 2.61092C19.5516 0.773422 15.8485 1.29373 12 3.59998C8.15161 1.29373 4.44848 0.773422 2.61098 2.61092ZM8.36723 15.6328C7.18129 14.4469 6.18286 13.214 5.37661 12C6.18286 10.7859 7.18598 9.54842 8.36723 8.36717C9.54848 7.18592 10.786 6.1828 12 5.37655C13.2141 6.1828 14.4516 7.18592 15.6329 8.36717C16.8141 9.54842 17.8172 10.7859 18.6235 12C17.8172 13.214 16.8141 14.4515 15.6329 15.6328C14.4516 16.814 13.2141 17.8172 12 18.6234C10.786 17.8172 9.54848 16.814 8.36723 15.6328ZM7.30317 7.30311C6.23911 8.36717 5.3063 9.47342 4.5188 10.589C4.0688 9.76405 3.71255 8.96248 3.46411 8.20311C2.67192 5.82186 2.99536 4.3453 3.67036 3.6703C4.34536 2.9953 5.82661 2.67186 8.20317 3.46405C8.96254 3.71717 9.76411 4.06873 10.5891 4.51873C9.47348 5.30623 8.36723 6.23905 7.30317 7.30311ZM16.6922 7.30311C15.6282 6.23905 14.5219 5.30623 13.4063 4.51873C14.2313 4.06873 15.0329 3.71248 15.7922 3.46405C18.1735 2.67186 19.65 2.9953 20.325 3.6703C21 4.3453 21.3235 5.82655 20.5313 8.20311C20.2782 8.96248 19.9266 9.76405 19.4766 10.589C18.6891 9.47342 17.7563 8.36717 16.6922 7.30311ZM16.6922 16.6922C17.7563 15.6281 18.6891 14.5219 19.4766 13.4062C19.9266 14.2312 20.2829 15.0328 20.5313 15.7922C21.3235 18.1734 21.0047 19.65 20.325 20.325C19.6454 21 18.1688 21.3234 15.7922 20.5312C15.0329 20.2781 14.2313 19.9265 13.4063 19.4765C14.5219 18.689 15.6282 17.7562 16.6922 16.6922ZM12 13.125C12.2984 13.125 12.5846 13.0065 12.7955 12.7955C13.0065 12.5845 13.125 12.2984 13.125 12C13.125 11.7016 13.0065 11.4155 12.7955 11.2045C12.5846 10.9935 12.2984 10.875 12 10.875C11.7017 10.875 11.4155 10.9935 11.2045 11.2045C10.9936 11.4155 10.875 11.7016 10.875 12C10.875 12.2984 10.9936 12.5845 11.2045 12.7955C11.4155 13.0065 11.7017 13.125 12 13.125Z" fill="#191B1F"/>
</svg>
