<svg width="25" height="24" viewBox="0 0 25 24" fill="none" xmlns="http://www.w3.org/2000/svg">
<path d="M1.25 3.77273C1.25 3.3458 1.6018 3 2.03571 3H22.4643C22.8964 3 23.25 3.3458 23.25 3.77273C23.25 4.19966 22.8964 4.54545 22.4643 4.54545H2.03571C1.6018 4.54545 1.25 4.19966 1.25 3.77273ZM1.25 11.5C1.25 11.075 1.6018 10.7273 2.03571 10.7273H22.4643C22.8964 10.7273 23.25 11.075 23.25 11.5C23.25 11.925 22.8964 12.2727 22.4643 12.2727H2.03571C1.6018 12.2727 1.25 11.925 1.25 11.5ZM22.4643 20H2.03571C1.6018 20 1.25 19.6523 1.25 19.2273C1.25 18.8023 1.6018 18.4545 2.03571 18.4545H22.4643C22.8964 18.4545 23.25 18.8023 23.25 19.2273C23.25 19.6523 22.8964 20 22.4643 20Z" fill="#191B1F"/>
</svg>
