<svg width="24" height="24" viewBox="0 0 24 24" fill="none" xmlns="http://www.w3.org/2000/svg">
<path d="M1 4.75C1 4.3375 1.35357 4 1.78571 4H22.2143C22.6464 4 23 4.3375 23 4.75C23 5.1625 22.6464 5.5 22.2143 5.5H1.78571C1.35357 5.5 1 5.1625 1 4.75ZM1 12.25C1 11.8375 1.35357 11.5 1.78571 11.5H15.9286C16.3607 11.5 16.7143 11.8375 16.7143 12.25C16.7143 12.6625 16.3607 13 15.9286 13H1.78571C1.35357 13 1 12.6625 1 12.25ZM10.4286 19.75C10.4286 20.1625 10.075 20.5 9.64286 20.5H1.78571C1.35357 20.5 1 20.1625 1 19.75C1 19.3375 1.35357 19 1.78571 19H9.64286C10.075 19 10.4286 19.3375 10.4286 19.75Z" fill="#191B1F"/>
</svg>
