<svg width="25" height="24" viewBox="0 0 25 24" fill="none" xmlns="http://www.w3.org/2000/svg">
<path d="M11 0.75C11 0.3375 11.3375 0 11.75 0C12.1625 0 12.5 0.3375 12.5 0.75V1.5375C16.2922 1.9125 19.25 5.10938 19.25 9V10.3641C19.25 12.4125 20.0656 14.3766 21.5141 15.8297L21.6453 15.9609C22.0344 16.35 22.2547 16.8797 22.2547 17.4281C22.2547 18.5766 21.3266 19.5047 20.1781 19.5047H3.32656C2.17812 19.5 1.25 18.5719 1.25 17.4234C1.25 16.875 1.47031 16.3453 1.85938 15.9562L1.99063 15.825C3.43438 14.3766 4.25 12.4125 4.25 10.3641V9C4.25 5.10938 7.20781 1.9125 11 1.5375V0.75ZM11.75 3C8.43594 3 5.75 5.68594 5.75 9V10.3641C5.75 12.8109 4.77969 15.1594 3.04531 16.8891L2.91875 17.0156C2.81094 17.1234 2.75 17.2688 2.75 17.4234C2.75 17.7422 3.00781 18 3.32656 18H20.1734C20.4922 18 20.75 17.7422 20.75 17.4234C20.75 17.2688 20.6891 17.1234 20.5812 17.0156L20.45 16.8844C18.7203 15.1547 17.7453 12.8062 17.7453 10.3594V9C17.7453 5.68594 15.0594 3 11.7453 3H11.75ZM10.3344 21.5016C10.5406 22.0828 11.0984 22.5 11.75 22.5C12.4016 22.5 12.9594 22.0828 13.1656 21.5016C13.3016 21.1125 13.7328 20.9062 14.1219 21.0422C14.5109 21.1781 14.7172 21.6094 14.5812 21.9984C14.1687 23.1656 13.0578 24 11.75 24C10.4422 24 9.33125 23.1656 8.91875 21.9984C8.78281 21.6094 8.98437 21.1781 9.37812 21.0422C9.77187 20.9062 10.1984 21.1078 10.3344 21.5016Z" fill="#191B1F"/>
</svg>
