<svg width="24" height="24" viewBox="0 0 24 24" fill="none" xmlns="http://www.w3.org/2000/svg">
<path d="M3 2.25C3 1.00781 4.00781 0 5.25 0H18.75C19.9922 0 21 1.00781 21 2.25V22.9641C21 23.5359 20.5359 24 19.9641 24C19.7578 24 19.5609 23.9391 19.3875 23.8266L12 18.9L4.6125 23.8266C4.44375 23.9391 4.24219 24 4.03594 24C3.46406 24 3 23.5359 3 22.9641V2.25ZM5.25 1.5C4.8375 1.5 4.5 1.8375 4.5 2.25V22.0969L11.5828 17.3766C11.8359 17.2078 12.1641 17.2078 12.4172 17.3766L19.5 22.0969V2.25C19.5 1.8375 19.1625 1.5 18.75 1.5H5.25Z" fill="black"/>
</svg>
