<svg width="24" height="24" viewBox="0 0 24 24" fill="none" xmlns="http://www.w3.org/2000/svg">
<path d="M8.25 4.875V6.75H15.75V4.875C15.75 4.53125 15.4688 4.25 15.125 4.25H8.875C8.53125 4.25 8.25 4.53125 8.25 4.875ZM7 6.75V4.875C7 3.83984 7.83984 3 8.875 3H15.125C16.1602 3 17 3.83984 17 4.875V6.75H19.5C20.8789 6.75 22 7.87109 22 9.25V19.25C22 20.6289 20.8789 21.75 19.5 21.75H4.5C3.12109 21.75 2 20.6289 2 19.25V9.25C2 7.87109 3.12109 6.75 4.5 6.75H7ZM16.375 8H7.625H4.5C3.80859 8 3.25 8.55859 3.25 9.25V13H8.875H10.125H13.875H15.125H20.75V9.25C20.75 8.55859 20.1914 8 19.5 8H16.375ZM20.75 14.25H15.125V16.125C15.125 16.8164 14.5664 17.375 13.875 17.375H10.125C9.43359 17.375 8.875 16.8164 8.875 16.125V14.25H3.25V19.25C3.25 19.9414 3.80859 20.5 4.5 20.5H19.5C20.1914 20.5 20.75 19.9414 20.75 19.25V14.25ZM10.125 14.25V16.125H13.875V14.25H10.125Z" fill="#191B1F"/>
</svg>
