<svg width="24" height="24" viewBox="0 0 24 24" fill="none" xmlns="http://www.w3.org/2000/svg">
<path d="M6 1.5C5.17031 1.5 4.5 2.17031 4.5 3V21C4.5 21.8297 5.17031 22.5 6 22.5H9V19.5C9 17.8453 10.3453 16.5 12 16.5C13.6547 16.5 15 17.8453 15 19.5V22.5H18C18.8297 22.5 19.5 21.8297 19.5 21V3C19.5 2.17031 18.8297 1.5 18 1.5H6ZM13.5 19.5C13.5 18.6703 12.8297 18 12 18C11.1703 18 10.5 18.6703 10.5 19.5V22.5H13.5V19.5ZM9 24H6C4.34531 24 3 22.6547 3 21V3C3 1.34531 4.34531 0 6 0H18C19.6547 0 21 1.34531 21 3V21C21 22.6547 19.6547 24 18 24H15H13.5H10.5H9ZM6 5.625C6 5.00156 6.50156 4.5 7.125 4.5H9.375C9.99844 4.5 10.5 5.00156 10.5 5.625V7.875C10.5 8.49844 9.99844 9 9.375 9H7.125C6.50156 9 6 8.49844 6 7.875V5.625ZM7.5 6V7.5H9V6H7.5ZM14.625 4.5H16.875C17.4984 4.5 18 5.00156 18 5.625V7.875C18 8.49844 17.4984 9 16.875 9H14.625C14.0016 9 13.5 8.49844 13.5 7.875V5.625C13.5 5.00156 14.0016 4.5 14.625 4.5ZM15 7.5H16.5V6H15V7.5ZM6 11.625C6 11.0016 6.50156 10.5 7.125 10.5H9.375C9.99844 10.5 10.5 11.0016 10.5 11.625V13.875C10.5 14.4984 9.99844 15 9.375 15H7.125C6.50156 15 6 14.4984 6 13.875V11.625ZM7.5 12V13.5H9V12H7.5ZM14.625 10.5H16.875C17.4984 10.5 18 11.0016 18 11.625V13.875C18 14.4984 17.4984 15 16.875 15H14.625C14.0016 15 13.5 14.4984 13.5 13.875V11.625C13.5 11.0016 14.0016 10.5 14.625 10.5ZM15 13.5H16.5V12H15V13.5Z" fill="#191B1F"/>
</svg>
