<svg width="24" height="24" viewBox="0 0 24 24" fill="none" xmlns="http://www.w3.org/2000/svg">
<path d="M8.95781 1.5C7.9875 1.5 7.12969 2.11875 6.825 3.0375L6.33281 4.5H3C1.34531 4.5 0 5.84531 0 7.5V19.5C0 21.1547 1.34531 22.5 3 22.5H21C22.6547 22.5 24 21.1547 24 19.5V7.5C24 5.84531 22.6547 4.5 21 4.5H17.6672L17.1797 3.0375C16.8703 2.11875 16.0125 1.5 15.0422 1.5H8.95781ZM8.24531 3.51094C8.34844 3.20625 8.63438 3 8.95781 3H15.0422C15.3656 3 15.6516 3.20625 15.7547 3.51094L16.4109 5.48438C16.5141 5.78906 16.8 5.99531 17.1234 5.99531H21C21.8297 5.99531 22.5 6.66562 22.5 7.49531V19.5C22.5 20.3297 21.8297 21 21 21H3C2.17031 21 1.5 20.3297 1.5 19.5V7.5C1.5 6.67031 2.17031 6 3 6H6.87656C7.2 6 7.48594 5.79375 7.58906 5.48906L8.24531 3.51562V3.51094ZM12 18.75C12.6894 18.75 13.3721 18.6142 14.0091 18.3504C14.646 18.0865 15.2248 17.6998 15.7123 17.2123C16.1998 16.7248 16.5865 16.146 16.8504 15.5091C17.1142 14.8721 17.25 14.1894 17.25 13.5C17.25 12.8106 17.1142 12.1279 16.8504 11.4909C16.5865 10.854 16.1998 10.2752 15.7123 9.78769C15.2248 9.30018 14.646 8.91347 14.0091 8.64963C13.3721 8.3858 12.6894 8.25 12 8.25C11.3106 8.25 10.6279 8.3858 9.99091 8.64963C9.35395 8.91347 8.7752 9.30018 8.28769 9.78769C7.80018 10.2752 7.41347 10.854 7.14963 11.4909C6.8858 12.1279 6.75 12.8106 6.75 13.5C6.75 14.1894 6.8858 14.8721 7.14963 15.5091C7.41347 16.146 7.80018 16.7248 8.28769 17.2123C8.7752 17.6998 9.35395 18.0865 9.99091 18.3504C10.6279 18.6142 11.3106 18.75 12 18.75ZM8.25 13.5C8.25 12.5054 8.64509 11.5516 9.34835 10.8483C10.0516 10.1451 11.0054 9.75 12 9.75C12.9946 9.75 13.9484 10.1451 14.6517 10.8483C15.3549 11.5516 15.75 12.5054 15.75 13.5C15.75 14.4946 15.3549 15.4484 14.6517 16.1517C13.9484 16.8549 12.9946 17.25 12 17.25C11.0054 17.25 10.0516 16.8549 9.34835 16.1517C8.64509 15.4484 8.25 14.4946 8.25 13.5Z" fill="#191B1F"/>
</svg>
