<svg width="24" height="24" viewBox="0 0 24 24" fill="none" xmlns="http://www.w3.org/2000/svg">
<path d="M0.666667 1C0.3 1 0 1.3 0 1.66667C0 2.03333 0.3 2.33333 0.666667 2.33333H2.24583C2.5625 2.33333 2.8375 2.55417 2.9 2.86667L5.35417 14.8667C5.60833 16.1083 6.7 17 7.96667 17H20.6667C21.0333 17 21.3333 16.7 21.3333 16.3333C21.3333 15.9667 21.0333 15.6667 20.6667 15.6667H7.96667C7.33333 15.6667 6.7875 15.2208 6.65833 14.6L6.33333 13H19.4375C20.6625 13 21.7292 12.1667 22.025 10.9792L23.775 3.99167C23.9833 3.15 23.35 2.33333 22.4833 2.33333H4.12917C3.85417 1.54167 3.1 1 2.24583 1H0.666667ZM4.42083 3.66667H22.4792L20.7333 10.6583C20.5833 11.25 20.05 11.6667 19.4375 11.6667H6.05833L4.42083 3.66667ZM7 20C7 19.7348 7.10536 19.4804 7.29289 19.2929C7.48043 19.1054 7.73478 19 8 19C8.26522 19 8.51957 19.1054 8.70711 19.2929C8.89464 19.4804 9 19.7348 9 20C9 20.2652 8.89464 20.5196 8.70711 20.7071C8.51957 20.8946 8.26522 21 8 21C7.73478 21 7.48043 20.8946 7.29289 20.7071C7.10536 20.5196 7 20.2652 7 20ZM10.3333 20C10.3333 19.6936 10.273 19.3902 10.1557 19.1071C10.0385 18.824 9.86658 18.5668 9.64991 18.3501C9.43324 18.1334 9.17602 17.9615 8.89293 17.8443C8.60983 17.727 8.30642 17.6667 8 17.6667C7.69358 17.6667 7.39016 17.727 7.10707 17.8443C6.82398 17.9615 6.56675 18.1334 6.35008 18.3501C6.13341 18.5668 5.96154 18.824 5.84428 19.1071C5.72702 19.3902 5.66667 19.6936 5.66667 20C5.66667 20.3064 5.72702 20.6098 5.84428 20.8929C5.96154 21.176 6.13341 21.4332 6.35008 21.6499C6.56675 21.8666 6.82398 22.0385 7.10707 22.1557C7.39016 22.273 7.69358 22.3333 8 22.3333C8.30642 22.3333 8.60983 22.273 8.89293 22.1557C9.17602 22.0385 9.43324 21.8666 9.64991 21.6499C9.86658 21.4332 10.0385 21.176 10.1557 20.8929C10.273 20.6098 10.3333 20.3064 10.3333 20ZM18.6667 19C18.9319 19 19.1862 19.1054 19.3738 19.2929C19.5613 19.4804 19.6667 19.7348 19.6667 20C19.6667 20.2652 19.5613 20.5196 19.3738 20.7071C19.1862 20.8946 18.9319 21 18.6667 21C18.4014 21 18.1471 20.8946 17.9596 20.7071C17.772 20.5196 17.6667 20.2652 17.6667 20C17.6667 19.7348 17.772 19.4804 17.9596 19.2929C18.1471 19.1054 18.4014 19 18.6667 19ZM18.6667 22.3333C19.2855 22.3333 19.879 22.0875 20.3166 21.6499C20.7542 21.2123 21 20.6188 21 20C21 19.3812 20.7542 18.7877 20.3166 18.3501C19.879 17.9125 19.2855 17.6667 18.6667 17.6667C18.0478 17.6667 17.4543 17.9125 17.0167 18.3501C16.5792 18.7877 16.3333 19.3812 16.3333 20C16.3333 20.6188 16.5792 21.2123 17.0167 21.6499C17.4543 22.0875 18.0478 22.3333 18.6667 22.3333Z" fill="#191B1F"/>
</svg>
