<svg width="24" height="24" viewBox="0 0 24 24" fill="none" xmlns="http://www.w3.org/2000/svg">
<path d="M2.12899 12.6256L12.248 3.04743L22.367 12.6256C22.5282 12.7737 22.7284 12.8477 22.9286 12.8477C23.15 12.8477 23.3706 12.7568 23.5319 12.575C23.8399 12.2313 23.819 11.6976 23.4861 11.3803L12.8075 1.22562C12.4915 0.924792 12.0087 0.924792 11.6925 1.22562L1.01386 11.3803C0.680979 11.6976 0.660084 12.2313 0.96814 12.575C1.2747 12.9218 1.79528 12.9429 2.12899 12.6256ZM12.8096 11.3774C12.4936 11.0766 12.0108 11.0766 11.6945 11.3774L1.01595 21.5321C0.683063 21.8494 0.662168 22.3831 0.970225 22.7269C1.27667 23.0723 1.7973 23.0921 2.13101 22.7748L12.25 13.1966L22.369 22.7748C22.527 22.9252 22.7268 22.9996 22.9265 22.9996C23.1479 22.9996 23.3685 22.9086 23.5298 22.7269C23.8378 22.3831 23.817 21.8494 23.484 21.5321L12.8096 11.3774Z" fill="#191B1F"/>
</svg>
