<svg width="24" height="24" viewBox="0 0 24 24" fill="none" xmlns="http://www.w3.org/2000/svg">
<path d="M11.5983 2.38104L21.6122 12.5L11.5983 22.6211C11.441 22.7791 11.3633 22.9789 11.3633 23.1786C11.3633 23.4 11.4583 23.6206 11.6484 23.7819C12.0078 24.0899 12.5657 24.069 12.8975 23.7361L23.5141 13.0575C23.8286 12.7415 23.8286 12.2587 23.5141 11.9425L12.8975 1.26386C12.5657 0.930979 12.0078 0.910084 11.6484 1.21814C11.2886 1.52675 11.2665 2.04733 11.5983 2.38104ZM12.9033 13.0617C13.2178 12.7456 13.2178 12.2628 12.9033 11.9466L2.28664 1.268C1.95487 0.935117 1.39695 0.914221 1.03753 1.22228C0.676403 1.52872 0.655667 2.04936 0.987425 2.38306L11.0013 12.5021L0.985003 22.6211C0.827745 22.7791 0.75 22.9789 0.75 23.1786C0.75 23.4 0.845052 23.6206 1.0351 23.7819C1.39452 24.0899 1.95244 24.069 2.28421 23.7361L12.9033 13.0617Z" fill="#191B1F"/>
</svg>
