<svg width="24" height="24" viewBox="0 0 24 24" fill="none" xmlns="http://www.w3.org/2000/svg">
<path d="M12.8674 22.6169L3.69786 12.4979L12.822 2.37893C12.9653 2.2209 13.0361 2.02114 13.0361 1.82138C13.0361 1.60001 12.9495 1.3794 12.7764 1.21814C12.4489 0.910107 11.9405 0.930951 11.6383 1.26387L1.96493 11.9425C1.67836 12.2585 1.67836 12.7413 1.96493 13.0575L11.6383 23.7361C11.9405 24.069 12.4489 24.0899 12.7764 23.7819C13.1495 23.4743 13.1697 22.9506 12.8674 22.6169ZM11.6784 11.9383C11.3918 12.2544 11.3918 12.7372 11.6784 13.0534L21.3517 23.732C21.654 24.0649 22.1623 24.0858 22.4898 23.7777C22.8189 23.4713 22.8377 22.9506 22.5355 22.6169L13.4113 12.4979L22.5355 2.37896C22.6787 2.22093 22.7496 2.02117 22.7496 1.82141C22.7496 1.60004 22.663 1.37943 22.4898 1.21817C22.1623 0.910138 21.654 0.930981 21.3517 1.2639L11.6784 11.9383Z" fill="#191B1F"/>
</svg>
