<svg width="24" height="24" viewBox="0 0 24 24" fill="none" xmlns="http://www.w3.org/2000/svg">
<path d="M22.369 11.3979L12.25 21.0437L2.13098 11.4456C1.9708 11.2495 1.77109 11.1276 1.57138 11.1276C1.35001 11.1276 1.1294 11.2187 0.968143 11.4008C0.660107 11.7453 0.680951 12.2801 1.01387 12.5981L11.6925 22.7739C12.0085 23.0754 12.4913 23.0754 12.8075 22.7739L23.4861 12.5981C23.819 12.2801 23.8399 11.7453 23.5319 11.4008C23.2263 11.1011 22.7027 11.0799 22.369 11.3979ZM11.6904 12.6487C12.0064 12.9501 12.4892 12.9501 12.8055 12.6487L23.4841 2.47284C23.8169 2.15485 23.8378 1.62009 23.5298 1.27559C23.2233 0.929458 22.7027 0.909584 22.369 1.22757L17.3095 6.04773L12.25 10.8679L2.12893 1.22525C1.9708 1.0742 1.77109 1 1.57138 1C1.35001 1 1.1294 1.09111 0.968143 1.27326C0.660107 1.61776 0.680951 2.15252 1.01387 2.47051L11.6904 12.6487Z" fill="#191B1F"/>
</svg>
