<svg width="24" height="24" viewBox="0 0 24 24" fill="none" xmlns="http://www.w3.org/2000/svg">
<g clip-path="url(#clip0_2156_25521)">
<path d="M12 0C5.37188 0 0 5.37188 0 12C0 18.6281 5.37188 24 12 24C18.6281 24 24 18.6281 24 12C24 5.37188 18.6281 0 12 0ZM12 22.5C6.21094 22.5 1.5 17.7891 1.5 12C1.5 6.21094 6.21094 1.5 12 1.5C17.7891 1.5 22.5 6.21094 22.5 12C22.5 17.7891 17.7891 22.5 12 22.5ZM11.25 16.125C10.6289 16.125 10.125 16.6289 10.125 17.25C10.125 17.8711 10.6289 18.375 11.25 18.375C11.8711 18.375 12.375 17.8711 12.375 17.25C12.375 16.6289 11.8734 16.125 11.25 16.125ZM13.3875 6H10.6125C8.89687 6 7.5 7.39687 7.5 9.1125V9.5625C7.5 9.97706 7.83544 10.3125 8.25 10.3125C8.66456 10.3125 9 9.975 9 9.5625V9.1125C9 8.22187 9.72187 7.5 10.6125 7.5H13.3898C14.2781 7.5 15 8.22187 15 9.1125C15 9.6975 14.6821 10.2375 14.2003 10.5056L11.3672 11.9203C10.8328 12.2203 10.5 12.7828 10.5 13.3969V14.25C10.5 14.6625 10.8375 15 11.25 15C11.6625 15 12 14.6625 12 14.25V13.3969C12 13.3288 12.0366 13.2658 12.0674 13.2482L14.8991 11.8316C15.8859 11.2828 16.5 10.2422 16.5 9.1125C16.5 7.39687 15.1031 6 13.3875 6Z" fill="#191B1F"/>
</g>
<defs>
<clipPath id="clip0_2156_25521">
<rect width="24" height="24" fill="white"/>
</clipPath>
</defs>
</svg>
