<svg width="25" height="24" viewBox="0 0 25 24" fill="none" xmlns="http://www.w3.org/2000/svg">
<g clip-path="url(#clip0_2156_25513)">
<path d="M11.2797 15.5297C10.9891 15.825 10.5109 15.825 10.2203 15.5297L7.22031 12.5297C6.925 12.2391 6.925 11.7609 7.22031 11.4703C7.51094 11.175 7.98906 11.175 8.27969 11.4703L10.75 13.9406L16.2203 8.47031C16.5109 8.175 16.9891 8.175 17.2797 8.47031C17.575 8.76094 17.575 9.23906 17.2797 9.52969L11.2797 15.5297ZM24.25 12C24.25 18.6281 18.8781 24 12.25 24C5.62188 24 0.25 18.6281 0.25 12C0.25 5.37188 5.62188 0 12.25 0C18.8781 0 24.25 5.37188 24.25 12ZM12.25 1.5C6.45156 1.5 1.75 6.20156 1.75 12C1.75 17.7984 6.45156 22.5 12.25 22.5C18.0484 22.5 22.75 17.7984 22.75 12C22.75 6.20156 18.0484 1.5 12.25 1.5Z" fill="#191B1F"/>
</g>
<defs>
<clipPath id="clip0_2156_25513">
<rect width="24" height="24" fill="white" transform="translate(0.25)"/>
</clipPath>
</defs>
</svg>
