<svg width="24" height="24" viewBox="0 0 24 24" fill="none" xmlns="http://www.w3.org/2000/svg">
<g clip-path="url(#clip0_2982_102)">
<path d="M12 1.5C14.7848 1.5 17.4555 2.60625 19.4246 4.57538C21.3938 6.54451 22.5 9.21523 22.5 12C22.5 14.7848 21.3938 17.4555 19.4246 19.4246C17.4555 21.3938 14.7848 22.5 12 22.5C9.21523 22.5 6.54451 21.3938 4.57538 19.4246C2.60625 17.4555 1.5 14.7848 1.5 12C1.5 9.21523 2.60625 6.54451 4.57538 4.57538C6.54451 2.60625 9.21523 1.5 12 1.5ZM12 24C15.1826 24 18.2348 22.7357 20.4853 20.4853C22.7357 18.2348 24 15.1826 24 12C24 8.8174 22.7357 5.76516 20.4853 3.51472C18.2348 1.26428 15.1826 0 12 0C8.8174 0 5.76516 1.26428 3.51472 3.51472C1.26428 5.76516 0 8.8174 0 12C0 15.1826 1.26428 18.2348 3.51472 20.4853C5.76516 22.7357 8.8174 24 12 24ZM6.34899 6.34899C6.05837 6.63962 6.05837 7.11774 6.34899 7.40837L10.9406 12L6.34899 16.5916C6.05837 16.8823 6.05837 17.3604 6.34899 17.651C6.63962 17.9416 7.11774 17.9416 7.40837 17.651L12 13.0594L16.5916 17.651C16.8823 17.9416 17.3604 17.9416 17.651 17.651C17.9416 17.3604 17.9416 16.8823 17.651 16.5916L13.0594 12L17.651 7.40837C17.9416 7.11774 17.9416 6.63962 17.651 6.34899C17.3604 6.05837 16.8823 6.05837 16.5916 6.34899L12 10.9406L7.40837 6.34899C7.11774 6.05837 6.63962 6.05837 6.34899 6.34899Z" fill="#191B1F"/>
</g>
<defs>
<clipPath id="clip0_2982_102">
<rect width="24" height="24" fill="white"/>
</clipPath>
</defs>
</svg>
