<svg width="24" height="24" viewBox="0 0 24 24" fill="none" xmlns="http://www.w3.org/2000/svg">
<g clip-path="url(#clip0_3449_15531)">
<path d="M12 1.5C14.7848 1.5 17.4555 2.60625 19.4246 4.57538C21.3938 6.54451 22.5 9.21523 22.5 12C22.5 14.7848 21.3938 17.4555 19.4246 19.4246C17.4555 21.3938 14.7848 22.5 12 22.5C9.21523 22.5 6.54451 21.3938 4.57538 19.4246C2.60625 17.4555 1.5 14.7848 1.5 12C1.5 9.21523 2.60625 6.54451 4.57538 4.57538C6.54451 2.60625 9.21523 1.5 12 1.5ZM12 24C15.1826 24 18.2348 22.7357 20.4853 20.4853C22.7357 18.2348 24 15.1826 24 12C24 8.8174 22.7357 5.76516 20.4853 3.51472C18.2348 1.26428 15.1826 0 12 0C8.8174 0 5.76516 1.26428 3.51472 3.51472C1.26428 5.76516 0 8.8174 0 12C0 15.1826 1.26428 18.2348 3.51472 20.4853C5.76516 22.7357 8.8174 24 12 24ZM11.25 16.5C11.25 16.9125 11.5875 17.25 12 17.25C12.4125 17.25 12.75 16.9125 12.75 16.5V12.75H16.5C16.9125 12.75 17.25 12.4125 17.25 12C17.25 11.5875 16.9125 11.25 16.5 11.25H12.75V7.5C12.75 7.0875 12.4125 6.75 12 6.75C11.5875 6.75 11.25 7.0875 11.25 7.5V11.25H7.5C7.0875 11.25 6.75 11.5875 6.75 12C6.75 12.4125 7.0875 12.75 7.5 12.75H11.25V16.5Z" fill="black"/>
</g>
<defs>
<clipPath id="clip0_3449_15531">
<rect width="24" height="24" fill="white"/>
</clipPath>
</defs>
</svg>
