<svg width="24" height="24" viewBox="0 0 24 24" fill="none" xmlns="http://www.w3.org/2000/svg">
<g clip-path="url(#clip0_2982_103)">
<path d="M12 24C15.1826 24 18.2348 22.7357 20.4853 20.4853C22.7357 18.2348 24 15.1826 24 12C24 8.8174 22.7357 5.76516 20.4853 3.51472C18.2348 1.26428 15.1826 0 12 0C8.8174 0 5.76516 1.26428 3.51472 3.51472C1.26428 5.76516 0 8.8174 0 12C0 15.1826 1.26428 18.2348 3.51472 20.4853C5.76516 22.7357 8.8174 24 12 24ZM6.08181 6.08181C6.52243 5.64118 7.23493 5.64118 7.67087 6.08181L11.9953 10.4062L16.3198 6.08181C16.7604 5.64118 17.4729 5.64118 17.9088 6.08181C18.3448 6.52243 18.3494 7.23493 17.9088 7.67087L13.5844 11.9953L17.9088 16.3198C18.3494 16.7604 18.3494 17.4729 17.9088 17.9088C17.4682 18.3448 16.7557 18.3494 16.3198 17.9088L11.9953 13.5844L7.67087 17.9088C7.23024 18.3494 6.51774 18.3494 6.08181 17.9088C5.64587 17.4682 5.64118 16.7557 6.08181 16.3198L10.4062 11.9953L6.08181 7.67087C5.64118 7.23024 5.64118 6.51774 6.08181 6.08181Z" fill="#191B1F"/>
</g>
<defs>
<clipPath id="clip0_2982_103">
<rect width="24" height="24" fill="white"/>
</clipPath>
</defs>
</svg>
