<svg width="24" height="24" viewBox="0 0 24 24" fill="none" xmlns="http://www.w3.org/2000/svg">
<g clip-path="url(#clip0_2156_25517)">
<path d="M12 0C5.37188 0 0 5.37188 0 12C0 18.6281 5.37188 24 12 24C18.6281 24 24 18.6281 24 12C24 5.37188 18.6281 0 12 0ZM12 22.5C6.21094 22.5 1.5 17.7891 1.5 12C1.5 6.21094 6.21094 1.5 12 1.5C17.7891 1.5 22.5 6.21094 22.5 12C22.5 17.7891 17.7891 22.5 12 22.5ZM12 14.25C12.4146 14.25 12.75 13.9146 12.75 13.5V6C12.75 5.58544 12.4146 5.25 12 5.25C11.5854 5.25 11.25 5.5875 11.25 6V13.5C11.25 13.9125 11.5875 14.25 12 14.25ZM12 16.125C11.3789 16.125 10.875 16.6289 10.875 17.25C10.875 17.8711 11.3789 18.375 12 18.375C12.6211 18.375 13.125 17.8711 13.125 17.25C13.125 16.6289 12.6234 16.125 12 16.125Z" fill="#191B1F"/>
</g>
<defs>
<clipPath id="clip0_2156_25517">
<rect width="24" height="24" fill="white"/>
</clipPath>
</defs>
</svg>
