<svg width="24" height="24" viewBox="0 0 24 24" fill="none" xmlns="http://www.w3.org/2000/svg">
<g clip-path="url(#clip0_2525_22928)">
<path d="M11.25 15.75H10.125C9.50156 15.75 9 16.2516 9 16.875C9 17.4984 9.50156 18 10.125 18H13.875C14.4984 18 15 17.4984 15 16.875C15 16.2516 14.4984 15.75 13.875 15.75H13.5V11.625C13.5 11.0016 12.9984 10.5 12.375 10.5H10.125C9.50156 10.5 9 11.0016 9 11.625C9 12.2484 9.50156 12.75 10.125 12.75H11.25V15.75Z" fill="#191B1F"/>
<path d="M13.0607 6.43934C12.7794 6.15804 12.3978 6 12 6C11.6022 6 11.2206 6.15804 10.9393 6.43934C10.658 6.72064 10.5 7.10218 10.5 7.5C10.5 7.89782 10.658 8.27936 10.9393 8.56066C11.2206 8.84196 11.6022 9 12 9C12.3978 9 12.7794 8.84196 13.0607 8.56066C13.342 8.27936 13.5 7.89782 13.5 7.5C13.5 7.10218 13.342 6.72064 13.0607 6.43934Z" fill="#191B1F"/>
<path fill-rule="evenodd" clip-rule="evenodd" d="M24 12C24 18.6281 18.6281 24 12 24C5.37188 24 0 18.6281 0 12C0 5.37188 5.37188 0 12 0C18.6281 0 24 5.37188 24 12ZM12 1.5C6.20156 1.5 1.5 6.20156 1.5 12C1.5 17.7984 6.20156 22.5 12 22.5C17.7984 22.5 22.5 17.7984 22.5 12C22.5 6.20156 17.7984 1.5 12 1.5Z" fill="#191B1F"/>
</g>
<defs>
<clipPath id="clip0_2525_22928">
<rect width="24" height="24" fill="white"/>
</clipPath>
</defs>
</svg>
