<svg width="24" height="24" viewBox="0 0 24 24" fill="none" xmlns="http://www.w3.org/2000/svg">
<path d="M16.1138 7.08876C16.5 6.90501 16.935 6.80001 17.4 6.80001C19.0575 6.80001 20.4 8.14251 20.4 9.80001C20.4 10.0888 20.3588 10.3625 20.2875 10.625C20.1338 11.1688 20.3813 11.75 20.88 12.0163C22.0238 12.62 22.8 13.82 22.8 15.2C22.8 17.1875 21.1875 18.8 19.2 18.8H5.4C3.07875 18.8 1.2 16.9213 1.2 14.6C1.2 12.77 2.37 11.2138 4.005 10.6363C4.46625 10.475 4.785 10.0475 4.80375 9.55626C4.93125 6.68751 7.2975 4.40001 10.2 4.40001C12.0263 4.40001 13.6388 5.30376 14.6175 6.69501C14.955 7.17126 15.585 7.34001 16.1138 7.08876ZM15.6 6.00501C14.4038 4.30626 12.4313 3.20001 10.2 3.20001C6.6525 3.20001 3.76125 5.99751 3.6075 9.50376C1.5075 10.2463 0 12.245 0 14.6C0 17.5813 2.41875 20 5.4 20H19.2C21.8513 20 24 17.8513 24 15.2C24 13.3588 22.9613 11.7575 21.4388 10.955C21.5438 10.5875 21.6 10.2013 21.6 9.80001C21.6 7.47876 19.7213 5.60001 17.4 5.60001C16.755 5.60001 16.1438 5.74626 15.6 6.00501Z" fill="#191B1F"/>
</svg>
