<svg width="24" height="24" viewBox="0 0 24 24" fill="none" xmlns="http://www.w3.org/2000/svg">
<path d="M14.6175 6.69501C13.6388 5.30376 12.0263 4.40001 10.2 4.40001C7.2975 4.40001 4.93125 6.68751 4.80375 9.55626C4.78125 10.0438 4.46625 10.4713 4.005 10.6363C2.37 11.2138 1.2 12.77 1.2 14.6C1.2 16.9213 3.07875 18.8 5.4 18.8H19.2C21.1875 18.8 22.8 17.1875 22.8 15.2C22.8 13.82 22.0238 12.62 20.88 12.0163C20.3775 11.75 20.13 11.1725 20.2875 10.625C20.3625 10.3663 20.4 10.0888 20.4 9.80001C20.4 8.14251 19.0575 6.80001 17.4 6.80001C16.9388 6.80001 16.5038 6.90501 16.1138 7.08876C15.585 7.34001 14.955 7.17501 14.6175 6.69501ZM10.2 3.20001C12.4313 3.20001 14.4038 4.30626 15.6 6.00501C16.1438 5.74626 16.755 5.60001 17.4 5.60001C19.7213 5.60001 21.6 7.47876 21.6 9.80001C21.6 10.2013 21.5438 10.5875 21.4388 10.955C22.9613 11.7575 24 13.3588 24 15.2C24 17.8513 21.8513 20 19.2 20H5.4C2.41875 20 0 17.5813 0 14.6C0 12.245 1.5075 10.2463 3.6075 9.50376C3.76125 5.99751 6.6525 3.20001 10.2 3.20001ZM8.57625 13.2238C8.34375 12.9913 8.34375 12.6088 8.57625 12.3763C8.80875 12.1438 9.19125 12.1438 9.42375 12.3763L11.4 14.3525V8.60001C11.4 8.27001 11.67 8.00001 12 8.00001C12.33 8.00001 12.6 8.27001 12.6 8.60001V14.3525L14.5763 12.3763C14.8088 12.1438 15.1912 12.1438 15.4237 12.3763C15.6562 12.6088 15.6562 12.9913 15.4237 13.2238L12.4237 16.2238C12.1912 16.4563 11.8088 16.4563 11.5763 16.2238L8.57625 13.2238Z" fill="black"/>
</svg>
