<svg width="24" height="24" viewBox="0 0 24 24" fill="none" xmlns="http://www.w3.org/2000/svg">
<path fill-rule="evenodd" clip-rule="evenodd" d="M18.4286 0C20.9533 0 23 1.97937 23 4.42105L23 16.5789C23 19.0206 20.9533 21 18.4286 21H11.5714C9.0467 21 7 19.0206 7 16.5789V4.42105C7 1.97937 9.0467 0 11.5714 0H18.4286ZM21.5857 16.579L21.5857 4.42107C21.5857 2.71995 20.1627 1.35791 18.4286 1.35791L11.5714 1.35791C9.8373 1.35791 8.41427 2.71995 8.41427 4.42107L8.41426 16.579C8.41426 18.2801 9.8373 19.6421 11.5714 19.6421H18.4285C20.1627 19.6421 21.5857 18.2801 21.5857 16.579Z" fill="#191B1F"/>
<path d="M5.9851 3H5.57143C3.0467 3 1 4.97937 1 7.42105V19.5789C1 22.0206 3.0467 24 5.57143 24H12.4286C13.9388 24 15.278 23.2918 16.1104 22.2H14.0628C13.5851 22.4809 13.0252 22.6421 12.4285 22.6421H5.57141C3.8373 22.6421 2.41426 21.2801 2.41426 19.579L2.41427 7.42107C2.41427 5.71995 3.8373 4.35791 5.57141 4.35791H5.8004C5.80566 3.88805 5.86958 3.43337 5.9851 3Z" fill="#191B1F"/>
</svg>
