<svg width="24" height="24" viewBox="0 0 24 24" fill="none" xmlns="http://www.w3.org/2000/svg">
<path fill-rule="evenodd" clip-rule="evenodd" d="M0.999756 3.47765C0.999756 1.557 2.55676 0 4.47741 0C6.39806 0 7.95506 1.557 7.95506 3.47765C7.95506 5.23209 6.65604 6.68291 4.9672 6.92106V9.74592C4.9672 10.642 5.78732 11.4479 6.91374 11.4479H16.6542C17.7758 11.4479 18.6008 10.6373 18.6008 9.74592V6.92173C16.9096 6.68566 15.6081 5.23375 15.6081 3.47765C15.6081 1.557 17.1651 0 19.0858 0C21.0064 0 22.5634 1.557 22.5634 3.47765C22.5634 5.23043 21.2669 6.68016 19.5804 6.92038V9.74592C19.5804 11.2732 18.2168 12.4274 16.6542 12.4274H12.2714V17.0789C13.9602 17.3171 15.2592 18.7679 15.2592 20.5223C15.2592 22.443 13.7022 24 11.7816 24C9.86095 24 8.30394 22.443 8.30394 20.5223C8.30394 18.7679 9.60296 17.3171 11.2918 17.0789V12.4274H6.91374C5.3465 12.4274 3.98761 11.278 3.98761 9.74592V6.92106C2.29878 6.68291 0.999756 5.23209 0.999756 3.47765ZM4.47741 0.979592C3.09777 0.979592 1.97935 2.09801 1.97935 3.47765C1.97935 4.83629 3.06402 5.94163 4.41456 5.97494C4.43523 5.97228 4.45622 5.97092 4.47741 5.97092C4.4986 5.97092 4.51959 5.97228 4.54026 5.97494C5.8908 5.94163 6.97547 4.83629 6.97547 3.47765C6.97547 2.09801 5.85704 0.979592 4.47741 0.979592ZM19.0858 0.979592C17.7061 0.979592 16.5877 2.09801 16.5877 3.47765C16.5877 4.83765 17.6746 5.94385 19.027 5.97504C19.0479 5.97231 19.0691 5.97092 19.0906 5.97092C19.1115 5.97092 19.1322 5.97225 19.1526 5.97484C20.5013 5.93946 21.5838 4.83495 21.5838 3.47765C21.5838 2.09801 20.4654 0.979592 19.0858 0.979592ZM11.7816 18.0243C10.402 18.0243 9.28353 19.1427 9.28353 20.5223C9.28353 21.902 10.402 23.0204 11.7816 23.0204C13.1612 23.0204 14.2797 21.902 14.2797 20.5223C14.2797 19.1427 13.1612 18.0243 11.7816 18.0243Z" fill="#191B1F"/>
</svg>
