<svg width="24" height="24" viewBox="0 0 24 24" fill="none" xmlns="http://www.w3.org/2000/svg">
<g clip-path="url(#clip0_3176_195)">
<path fill-rule="evenodd" clip-rule="evenodd" d="M11.9999 6.98362C10.7503 6.98362 9.73427 8.00494 9.73427 9.25883C9.73427 10.5105 10.7482 11.5244 11.9999 11.5244C12.9735 11.5244 13.8031 10.9111 14.1287 10.0533L14.1298 10.0503C14.2229 9.81003 14.2748 9.53856 14.2751 9.25642C14.2738 8.00157 13.2513 6.98362 11.9999 6.98362ZM15.2351 9.26186C15.2341 9.65721 15.1615 10.044 15.0257 10.3955C14.5637 11.6105 13.3873 12.4844 11.9999 12.4844C10.218 12.4844 8.77427 11.0407 8.77427 9.25883C8.77427 7.47911 10.2158 6.02362 11.9999 6.02362C13.779 6.02362 15.2315 7.46804 15.2351 9.25226L15.2351 9.25403V9.25883C15.2351 9.25984 15.2351 9.26085 15.2351 9.26186ZM15.2351 9.26186C15.2351 9.26085 15.2351 9.25984 15.2351 9.25883L15.2351 9.26186Z" fill="#191B1F"/>
<path fill-rule="evenodd" clip-rule="evenodd" d="M11.6351 12.4796C10.2459 12.4796 8.99375 13.0398 8.08168 13.9518C7.2808 14.7527 6.75003 15.8265 6.6369 17.0204H17.367C17.337 16.7117 17.2788 16.4127 17.1974 16.1245C16.5967 14.0208 14.6591 12.4796 12.3695 12.4796H11.6351ZM7.40286 13.273C8.48759 12.1883 9.98105 11.5196 11.6351 11.5196H12.3695C15.1005 11.5196 17.4059 13.3574 18.1206 15.8615L18.121 15.8626C18.2666 16.3775 18.3503 16.9254 18.3503 17.5004C18.3503 17.7655 18.1354 17.9804 17.8703 17.9804H6.13427C5.86917 17.9804 5.65427 17.7655 5.65427 17.5004C5.65427 15.8517 6.32254 14.3533 7.40286 13.273Z" fill="#191B1F"/>
<path fill-rule="evenodd" clip-rule="evenodd" d="M12 0.96C5.90278 0.96 0.96 5.90278 0.96 12C0.96 18.0972 5.90278 23.04 12 23.04C18.0972 23.04 23.04 18.0972 23.04 12C23.04 5.90278 18.0972 0.96 12 0.96ZM0 12C0 5.37258 5.37258 0 12 0C18.6274 0 24 5.37258 24 12C24 18.6274 18.6274 24 12 24C5.37258 24 0 18.6274 0 12Z" fill="#191B1F"/>
<path fill-rule="evenodd" clip-rule="evenodd" d="M7.67597 17.0605C7.91913 16.9549 8.20185 17.0664 8.30746 17.3096C9.10798 19.1526 10.3755 21.0941 12.2771 23.1089C12.2861 23.1185 12.2946 23.1283 12.3028 23.1385C12.308 23.145 12.3154 23.154 12.3234 23.1631C12.3319 23.1728 12.3375 23.1787 12.3394 23.1806C12.5269 23.368 12.5269 23.672 12.3394 23.8594C12.152 24.0469 11.848 24.0469 11.6606 23.8594C11.6262 23.825 11.5918 23.7854 11.5667 23.7549C9.6062 21.6751 8.27585 19.6465 7.42694 17.692C7.32132 17.4489 7.43282 17.1661 7.67597 17.0605Z" fill="#191B1F"/>
<path fill-rule="evenodd" clip-rule="evenodd" d="M12.2999 0.854745L12.3005 0.854301L12.301 0.853933L12.2929 0.86073C12.2848 0.867575 12.2712 0.879327 12.2521 0.896513C11.7708 1.34504 8.95373 4.04966 7.72678 8.1209L7.72608 8.12324C7.15138 9.99564 6.92529 12.1549 7.41559 14.5185C7.46944 14.7781 7.30266 15.0322 7.04309 15.086C6.78352 15.1398 6.52945 14.9731 6.47561 14.7135C5.94841 12.172 6.19253 9.84847 6.80797 7.84273C8.11296 3.51379 11.0939 0.663345 11.6009 0.19115L11.6069 0.185619C11.6342 0.161063 11.6556 0.142477 11.6711 0.12927C11.6789 0.122666 11.6852 0.117406 11.69 0.113417L11.6962 0.108376L11.6984 0.106552L11.6998 0.105484C11.6998 0.105484 11.7001 0.105184 12 0.48L11.6998 0.105484C11.9068 -0.0601215 12.2092 -0.0268601 12.3748 0.180145C12.54 0.386624 12.507 0.687676 12.3014 0.853551L12.2999 0.854745ZM12.301 0.853933L12.3014 0.853551L12.301 0.853933Z" fill="#191B1F"/>
<path fill-rule="evenodd" clip-rule="evenodd" d="M16.1752 17.0605C16.4184 17.1661 16.5299 17.4489 16.4243 17.692C15.5736 19.6505 14.2396 21.6833 12.2775 23.7674C12.2742 23.7709 12.2708 23.7744 12.2674 23.7778C12.2649 23.7803 12.2607 23.7848 12.2472 23.7997L12.2453 23.8017C12.2345 23.8136 12.2157 23.8343 12.1954 23.8546C12.1054 23.9446 11.9833 23.9952 11.856 23.9952H11.8512C11.5861 23.9952 11.3712 23.7803 11.3712 23.5152C11.3712 23.3676 11.4379 23.2355 11.5427 23.1474C11.5526 23.1366 11.5669 23.121 11.5826 23.105C13.4774 21.0915 14.7438 19.1514 15.5437 17.3096C15.6493 17.0664 15.9321 16.9549 16.1752 17.0605Z" fill="#191B1F"/>
<path fill-rule="evenodd" clip-rule="evenodd" d="M11.3712 0.4848C11.3712 0.219703 11.5861 0.0048 11.8512 0.0048H11.856C11.9778 0.0048 12.0948 0.0510936 12.1836 0.133937L12.185 0.135123C12.1876 0.13725 12.191 0.139919 12.1949 0.142905C12.1988 0.145884 12.2029 0.148909 12.207 0.151808C12.2234 0.163525 12.239 0.176264 12.2539 0.189949C12.7827 0.678843 15.7435 3.5292 17.0433 7.84312C17.6436 9.80795 17.893 12.067 17.4103 14.5399C17.3595 14.8001 17.1074 14.9699 16.8473 14.9191C16.5871 14.8683 16.4173 14.6162 16.4681 14.3561C16.9166 12.0582 16.6861 9.9592 16.125 8.12266L16.1244 8.12086C14.9148 4.10574 12.1615 1.41526 11.6217 0.913027C11.6092 0.903584 11.5961 0.893495 11.5833 0.883112C11.4553 0.79689 11.3712 0.65067 11.3712 0.4848Z" fill="#191B1F"/>
<path fill-rule="evenodd" clip-rule="evenodd" d="M13.9584 7.9824C13.9584 7.7173 14.1733 7.5024 14.4384 7.5024H22.8048C23.0699 7.5024 23.2848 7.7173 23.2848 7.9824C23.2848 8.2475 23.0699 8.4624 22.8048 8.4624H14.4384C14.1733 8.4624 13.9584 8.2475 13.9584 7.9824Z" fill="#191B1F"/>
<path fill-rule="evenodd" clip-rule="evenodd" d="M0.72 7.9824C0.72 7.7173 0.934903 7.5024 1.2 7.5024H9.5712C9.8363 7.5024 10.0512 7.7173 10.0512 7.9824C10.0512 8.2475 9.8363 8.4624 9.5712 8.4624H1.2C0.934903 8.4624 0.72 8.2475 0.72 7.9824Z" fill="#191B1F"/>
<path fill-rule="evenodd" clip-rule="evenodd" d="M17.184 16.0128C17.184 15.7477 17.3989 15.5328 17.664 15.5328H22.8048C23.0699 15.5328 23.2848 15.7477 23.2848 16.0128C23.2848 16.2779 23.0699 16.4928 22.8048 16.4928H17.664C17.3989 16.4928 17.184 16.2779 17.184 16.0128Z" fill="#191B1F"/>
<path fill-rule="evenodd" clip-rule="evenodd" d="M0.72 16.0128C0.72 15.7477 0.934903 15.5328 1.2 15.5328H6.336C6.6011 15.5328 6.816 15.7477 6.816 16.0128C6.816 16.2779 6.6011 16.4928 6.336 16.4928H1.2C0.934903 16.4928 0.72 16.2779 0.72 16.0128Z" fill="#191B1F"/>
</g>
<defs>
<clipPath id="clip0_3176_195">
<rect width="24" height="24" fill="white"/>
</clipPath>
</defs>
</svg>
