<svg width="24" height="24" viewBox="0 0 24 24" fill="none" xmlns="http://www.w3.org/2000/svg">
<g clip-path="url(#clip0_3176_199)">
<path fill-rule="evenodd" clip-rule="evenodd" d="M16 7.75H8C7.86193 7.75 7.75 7.86193 7.75 8V16C7.75 16.1381 7.86193 16.25 8 16.25H16C16.1381 16.25 16.25 16.1381 16.25 16V8C16.25 7.86193 16.1381 7.75 16 7.75ZM8 7C7.44772 7 7 7.44772 7 8V16C7 16.5523 7.44772 17 8 17H16C16.5523 17 17 16.5523 17 16V8C17 7.44772 16.5523 7 16 7H8Z" fill="#191B1F"/>
<path fill-rule="evenodd" clip-rule="evenodd" d="M8.16 0.48C8.16 0.214903 7.9451 0 7.68 0C7.4149 0 7.2 0.214903 7.2 0.48V4H6C4.89543 4 4 4.89543 4 6V7.2H0.48C0.214903 7.2 0 7.4149 0 7.68C0 7.9451 0.214903 8.16 0.48 8.16H4V11.52H0.48C0.214903 11.52 0 11.7349 0 12C0 12.2651 0.214903 12.48 0.48 12.48H4V15.84H0.48C0.214903 15.84 0 16.0549 0 16.32C0 16.5851 0.214903 16.8 0.48 16.8H4V18C4 19.1046 4.89543 20 6 20H7.2V23.52C7.2 23.7851 7.4149 24 7.68 24C7.9451 24 8.16 23.7851 8.16 23.52V20H11.52V23.52C11.52 23.7851 11.7349 24 12 24C12.2651 24 12.48 23.7851 12.48 23.52V20H15.84V23.52C15.84 23.7851 16.0549 24 16.32 24C16.5851 24 16.8 23.7851 16.8 23.52V20H18C19.1046 20 20 19.1046 20 18V16.8H23.52C23.7851 16.8 24 16.5851 24 16.32C24 16.0549 23.7851 15.84 23.52 15.84H20V12.48H23.52C23.7851 12.48 24 12.2651 24 12C24 11.7349 23.7851 11.52 23.52 11.52H20V8.16H23.52C23.7851 8.16 24 7.9451 24 7.68C24 7.4149 23.7851 7.2 23.52 7.2H20V6C20 4.89543 19.1046 4 18 4H16.8V0.48C16.8 0.214903 16.5851 0 16.32 0C16.0549 0 15.84 0.214903 15.84 0.48V4H12.48V0.48C12.48 0.214903 12.2651 0 12 0C11.7349 0 11.52 0.214903 11.52 0.48V4H8.16V0.48ZM4.75 6C4.75 5.30964 5.30964 4.75 6 4.75H18C18.6904 4.75 19.25 5.30964 19.25 6V18C19.25 18.6904 18.6904 19.25 18 19.25H6C5.30964 19.25 4.75 18.6904 4.75 18V6Z" fill="#191B1F"/>
</g>
<defs>
<clipPath id="clip0_3176_199">
<rect width="24" height="24" fill="white"/>
</clipPath>
</defs>
</svg>
