<svg width="24" height="24" viewBox="0 0 24 24" fill="none" xmlns="http://www.w3.org/2000/svg">
<path fill-rule="evenodd" clip-rule="evenodd" d="M7.0528 0C6.7877 0 6.5728 0.214903 6.5728 0.48C6.5728 0.745097 6.7877 0.96 7.0528 0.96H7.6864V8.88C7.6864 9.33369 7.56008 9.78404 7.32386 10.1709L1.56781 18.3281C1.56187 18.3365 1.5562 18.3451 1.55081 18.3539C1.19355 18.9365 1 19.6039 1 20.2944C1 22.3403 2.6597 24 4.7056 24H19.0672C21.1131 24 22.7728 22.3403 22.7728 20.2944C22.7728 19.609 22.5794 18.9368 22.222 18.3539C22.2165 18.345 22.2108 18.3363 22.2048 18.3278L16.4447 10.1765C16.2072 9.78325 16.0816 9.337 16.0816 8.8848V0.96H16.7152C16.9803 0.96 17.1952 0.745097 17.1952 0.48C17.1952 0.214903 16.9803 0 16.7152 0H15.6016C15.3365 0 15.1216 0.214903 15.1216 0.48V8.8848C15.1216 9.52205 15.3005 10.1462 15.6338 10.6906C15.6393 10.6996 15.6451 10.7084 15.6512 10.717L18.5715 14.8496H5.19728L8.11699 10.7119C8.12257 10.704 8.12792 10.6959 8.13302 10.6877C8.46811 10.146 8.6464 9.51608 8.6464 8.88V0.48C8.6464 0.214903 8.4315 0 8.1664 0H7.0528ZM4.49164 15.8496L2.36146 18.8684C2.0997 19.3003 1.96 19.7899 1.96 20.2944C1.96 21.8101 3.1899 23.04 4.7056 23.04H19.0672C20.5829 23.04 21.8128 21.8101 21.8128 20.2944C21.8128 19.7943 21.6729 19.3002 21.4114 18.8685L19.2781 15.8496H4.49164Z" fill="#191B1F"/>
</svg>
