<svg width="24" height="24" viewBox="0 0 24 24" fill="none" xmlns="http://www.w3.org/2000/svg">
<g clip-path="url(#clip0_3176_191)">
<path fill-rule="evenodd" clip-rule="evenodd" d="M6.95277 11.1225C6.95277 10.0443 7.82303 9.17407 8.90116 9.17407C9.97929 9.17407 10.8495 10.0443 10.8495 11.1225V20.0516C10.8495 21.1297 9.97929 22 8.90116 22C7.82303 22 6.95277 21.1297 6.95277 20.0516V11.1225ZM18.8583 11.1225C18.8583 10.0443 19.7286 9.17407 20.8067 9.17407C21.8848 9.17407 22.7551 10.0443 22.7551 11.1225V20.0516C22.7551 21.1297 21.8848 22 20.8067 22C19.7286 22 18.8583 21.1297 18.8583 20.0516V11.1225ZM8.90116 10.0945C8.33135 10.0945 7.87316 10.5526 7.87316 11.1225V20.0516C7.87316 20.6214 8.33135 21.0796 8.90116 21.0796C9.47097 21.0796 9.92915 20.6214 9.92915 20.0516V11.1225C9.92915 10.5526 9.47097 10.0945 8.90116 10.0945ZM20.8067 10.0945C20.2369 10.0945 19.7787 10.5526 19.7787 11.1225V20.0516C19.7787 20.6214 20.2369 21.0796 20.8067 21.0796C21.3765 21.0796 21.8347 20.6214 21.8347 20.0516V11.1225C21.8347 10.5526 21.3765 10.0945 20.8067 10.0945ZM12.9055 14.0988C12.9055 13.0207 13.7758 12.1505 14.8539 12.1505C15.9321 12.1505 16.8023 13.0207 16.8023 14.0988V20.0516C16.8023 21.1297 15.9321 22 14.8539 22C13.7758 22 12.9055 21.1297 12.9055 20.0516V14.0988ZM14.8539 13.0708C14.2841 13.0708 13.8259 13.529 13.8259 14.0988V20.0516C13.8259 20.6214 14.2841 21.0796 14.8539 21.0796C15.4237 21.0796 15.8819 20.6214 15.8819 20.0516V14.0988C15.8819 13.529 15.4237 13.0708 14.8539 13.0708ZM1 15.587C1 14.5089 1.87026 13.6386 2.94839 13.6386C4.02652 13.6386 4.89678 14.5089 4.89678 15.587V20.0516C4.89678 21.1297 4.02652 22 2.94839 22C1.87026 22 1 21.1297 1 20.0516V15.587ZM2.94839 14.559C2.37858 14.559 1.92039 15.0172 1.92039 15.587V20.0516C1.92039 20.6214 2.37858 21.0796 2.94839 21.0796C3.5182 21.0796 3.97638 20.6214 3.97638 20.0516V15.587C3.97638 15.0172 3.5182 14.559 2.94839 14.559Z" fill="#191B1F"/>
<path fill-rule="evenodd" clip-rule="evenodd" d="M23.879 1.17103C24.057 1.37898 24.0362 1.69484 23.8325 1.87653L15.1689 9.60378C14.9765 9.7754 14.6871 9.76719 14.5044 9.58492L8.86961 3.96584L0.790936 10.3943C0.577589 10.5641 0.269822 10.5252 0.103519 10.3074C-0.0627848 10.0896 -0.0246484 9.7754 0.188699 9.60563L8.60475 2.90868C8.79801 2.7549 9.07285 2.77057 9.24813 2.94537L14.8651 8.54676L23.1879 1.12348C23.3916 0.94179 23.7011 0.963077 23.879 1.17103Z" fill="#191B1F"/>
</g>
<defs>
<clipPath id="clip0_3176_191">
<rect width="24" height="24" fill="white"/>
</clipPath>
</defs>
</svg>
