<svg width="24" height="24" viewBox="0 0 24 24" fill="none" xmlns="http://www.w3.org/2000/svg">
<path fill-rule="evenodd" clip-rule="evenodd" d="M10.6766 2.58177C10.6766 1.14938 11.8323 0 13.2584 0C14.6852 0 15.8401 1.15492 15.8401 2.58177V3.97795C15.8401 4.86776 16.5557 5.57993 17.4421 5.57993H20.9302C21.2007 5.57993 21.4201 5.79926 21.4201 6.06982V9.55788C21.4201 10.2123 20.8889 10.7435 20.2345 10.7435H18.8383C17.1801 10.7435 15.8401 12.0834 15.8401 13.7416C15.8401 15.3998 17.1801 16.7398 18.8383 16.7398H20.2345C20.8889 16.7398 21.4201 17.271 21.4201 17.9254V23.5101C21.4201 23.7807 21.2007 24 20.9302 24H6.97795C4.77864 24 3 22.2214 3 20.0221V6.06982C3 5.79926 3.21933 5.57993 3.48989 5.57993H9.07462C9.96443 5.57993 10.6766 4.8644 10.6766 3.97795V2.58177ZM13.2584 0.979788C12.3719 0.979788 11.6564 1.69196 11.6564 2.58177V3.97795C11.6564 5.40405 10.507 6.55972 9.07462 6.55972H3.97979V20.0221C3.97979 21.6802 5.31976 23.0202 6.97795 23.0202H20.4403V17.9254C20.4403 17.8121 20.3478 17.7196 20.2345 17.7196H18.8383C16.639 17.7196 14.8603 15.9409 14.8603 13.7416C14.8603 11.5423 16.639 9.76368 18.8383 9.76368H20.2345C20.3477 9.76368 20.4403 9.67115 20.4403 9.55788V6.55972H17.4421C16.016 6.55972 14.8603 5.41034 14.8603 3.97795V2.58177C14.8603 1.69604 14.1441 0.979788 13.2584 0.979788Z" fill="#191B1F"/>
</svg>
