<svg width="24" height="24" viewBox="0 0 24 24" fill="none" xmlns="http://www.w3.org/2000/svg">
<g clip-path="url(#clip0_3176_197)">
<path fill-rule="evenodd" clip-rule="evenodd" d="M10.4915 0.959616C10.0498 0.959616 9.65622 1.27754 9.56456 1.70742L9.56336 1.71305L9.02594 4.09289C8.99139 4.24587 8.88426 4.37231 8.73903 4.43152C8.02714 4.72171 7.36095 5.11165 6.78236 5.56819C6.65812 5.66622 6.49355 5.69669 6.34245 5.64962L3.99607 4.91878C3.57863 4.78382 3.10602 4.96991 2.8852 5.35375L1.59467 7.60378L1.5899 7.61191C1.36497 7.98679 1.4355 8.48141 1.7726 8.79258L3.56213 10.443C3.56688 10.4474 3.57155 10.4518 3.57613 10.4564L3.58092 10.4612C3.6709 10.5512 3.72145 10.6732 3.72145 10.8005C3.72145 10.8645 3.71215 10.9205 3.70874 10.941C3.70848 10.9426 3.70825 10.9439 3.70806 10.9451C3.70756 10.9482 3.70717 10.9507 3.70688 10.9526C3.70652 10.9659 3.7056 10.9793 3.70412 10.9926C3.66727 11.3242 3.64468 11.6613 3.64468 12C3.64468 12.3799 3.66762 12.7656 3.71697 13.1246C3.73826 13.2794 3.68284 13.4348 3.56845 13.5412L1.77877 15.2062L1.7774 15.2074C1.4403 15.5186 1.36977 16.0132 1.59469 16.3881L1.59947 16.3962L2.88989 18.6461C3.10581 19.0214 3.57675 19.2075 4.00783 19.079L6.33205 18.3506C6.4823 18.3035 6.64609 18.3332 6.77032 18.4299C7.36474 18.8927 8.0277 19.2787 8.73144 19.5693C8.87569 19.6289 8.98197 19.7549 9.01634 19.9071L9.55276 22.2827L9.5532 22.2846C9.6579 22.7257 10.0542 23.0404 10.4915 23.0404H13.0873C13.529 23.0404 13.9226 22.7225 14.0143 22.2926L14.0155 22.287L14.5529 19.9071C14.5875 19.7541 14.6946 19.6277 14.8398 19.5685C15.5517 19.2783 16.2179 18.8884 16.7965 18.4318C16.9207 18.3338 17.0853 18.3033 17.2364 18.3504L19.5734 19.0783L19.5754 19.0789C20 19.2056 20.463 19.0277 20.6966 18.6411L21.9978 16.3975C22.2183 16.0016 22.1418 15.5148 21.8178 15.2048L20.0166 13.5425C19.9013 13.4361 19.8453 13.28 19.8667 13.1246C19.9177 12.7531 19.9534 12.3831 19.9534 12C19.9534 11.617 19.9178 11.2467 19.8664 10.8587C19.8457 10.7033 19.9024 10.5475 20.0181 10.4417L21.8185 8.79454C22.1437 8.48282 22.2162 7.9831 21.9993 7.60503L21.9988 7.60423L20.6927 5.35208C20.4683 4.95783 20.0122 4.783 19.5924 4.91876L19.5875 4.92034L17.246 5.64962C17.0944 5.69684 16.9293 5.66602 16.805 5.56731C16.2151 5.099 15.5542 4.72254 14.8474 4.4307C14.7032 4.37113 14.5969 4.24513 14.5625 4.09289L14.0256 1.71536C13.9209 1.27431 13.5246 0.959616 13.0873 0.959616H10.4915ZM8.62669 1.50426C8.81448 0.630636 9.60045 0 10.4915 0H13.0873C13.9832 0 14.7571 0.634429 14.9602 1.49746L14.9612 1.50167L15.4446 3.64246C16.0627 3.91604 16.6528 4.25296 17.1983 4.65938L19.2972 4.00567L19.2998 4.00483C20.1548 3.72976 21.0783 4.09158 21.5256 4.87553L21.5267 4.87743L22.8307 7.12588C23.2748 7.89812 23.1179 8.88342 22.4766 9.49292L22.47 9.49915L20.8488 10.9824C20.8868 11.3112 20.913 11.6475 20.913 12C20.913 12.3502 20.8872 12.6845 20.8494 13.0052L22.4715 14.5023L22.4766 14.5071C23.1191 15.1178 23.2725 16.0867 22.8332 16.8697L22.8298 16.8757L21.5247 19.126L21.5211 19.1321C21.0636 19.8946 20.1472 20.253 19.297 19.9973L19.2925 19.9959L17.1881 19.3404C16.6537 19.7372 16.0617 20.0823 15.4348 20.3584L14.9522 22.4957C14.7644 23.3694 13.9784 24 13.0873 24H10.4915C9.5956 24 8.82172 23.3656 8.61865 22.5025L8.61766 22.4983L8.13421 20.3573C7.51433 20.0816 6.92555 19.7392 6.38317 19.3402L4.28667 19.9973C3.4422 20.2513 2.50385 19.8998 2.058 19.1244L0.769239 16.8775C0.306595 16.1017 0.466719 15.1119 1.12579 14.503L1.12651 14.5023L2.73598 13.005C2.701 12.6732 2.68506 12.3323 2.68506 12C2.68506 11.6553 2.70585 11.317 2.73938 10.9896L1.12187 9.49785C0.462199 8.88892 0.301631 7.89856 0.764432 7.12254L2.0532 4.87558C2.49411 4.10878 3.43057 3.7288 4.28864 4.00482L6.39078 4.65959C6.92519 4.26283 7.51718 3.9177 8.14407 3.64157L8.62669 1.50426Z" fill="#191B1F"/>
<path fill-rule="evenodd" clip-rule="evenodd" d="M7.14248 12C7.14248 9.43817 9.20792 7.35066 11.7918 7.35066C14.3551 7.35066 16.4412 9.43673 16.4412 12C16.4412 14.5622 14.3706 16.6493 11.7918 16.6493C9.21308 16.6493 7.14248 14.5622 7.14248 12ZM11.7918 8.31028C9.74078 8.31028 8.1021 9.96527 8.1021 12C8.1021 14.0344 9.74521 15.6897 11.7918 15.6897C13.8384 15.6897 15.4815 14.0344 15.4815 12C15.4815 9.96671 13.8251 8.31028 11.7918 8.31028Z" fill="#191B1F"/>
<path fill-rule="evenodd" clip-rule="evenodd" d="M14.2518 10.2981C14.4392 10.4854 14.4392 10.7892 14.2518 10.9766L11.5505 13.6779C11.3344 13.8941 10.9778 13.8941 10.7616 13.6779L9.33179 12.2481C9.14442 12.0607 9.14442 11.7569 9.33179 11.5696C9.51917 11.3822 9.82297 11.3822 10.0103 11.5696L11.1561 12.7153L13.5733 10.2981C13.7607 10.1107 14.0645 10.1107 14.2518 10.2981Z" fill="#191B1F"/>
</g>
<defs>
<clipPath id="clip0_3176_197">
<rect width="24" height="24" fill="white"/>
</clipPath>
</defs>
</svg>
