<svg width="24" height="24" viewBox="0 0 24 24" fill="none" xmlns="http://www.w3.org/2000/svg">
<path d="M11.4156 14.9625C11.4391 14.9859 11.4672 15 11.5 15C11.5328 15 11.5656 14.9859 11.5844 14.9625L17.4156 8.77969C17.4719 8.72344 17.5 8.64375 17.5 8.56406C17.5 8.39062 17.3594 8.25 17.1859 8.25H14.5C14.0875 8.25 13.75 7.9125 13.75 7.5V1.875C13.75 1.66875 13.5813 1.5 13.375 1.5H9.625C9.41875 1.5 9.25 1.66875 9.25 1.875V7.5C9.25 7.9125 8.9125 8.25 8.5 8.25H5.81406C5.64062 8.25 5.5 8.39062 5.5 8.56406C5.5 8.64375 5.53281 8.71875 5.58438 8.77969L11.4156 14.9625ZM11.5 16.5C11.0547 16.5 10.6281 16.3172 10.3234 15.9938L4.49219 9.80625C4.17812 9.46875 4 9.02344 4 8.56406C4 7.56094 4.81094 6.75 5.81406 6.75H7.75V1.875C7.75 0.839062 8.58906 0 9.625 0H13.375C14.4109 0 15.25 0.839062 15.25 1.875V6.75H17.1859C18.1891 6.75 19 7.56094 19 8.56406C19 9.02812 18.8219 9.46875 18.5078 9.80625L12.6766 15.9938C12.3719 16.3172 11.9453 16.5 11.5 16.5ZM2.5 15.75V20.25C2.5 21.4922 3.50781 22.5 4.75 22.5H18.25C19.4922 22.5 20.5 21.4922 20.5 20.25V15.75C20.5 15.3375 20.8375 15 21.25 15C21.6625 15 22 15.3375 22 15.75V20.25C22 22.3219 20.3219 24 18.25 24H4.75C2.67812 24 1 22.3219 1 20.25V15.75C1 15.3375 1.3375 15 1.75 15C2.1625 15 2.5 15.3375 2.5 15.75Z" fill="#191B1F"/>
</svg>
