<svg width="24" height="24" viewBox="0 0 24 24" fill="none" xmlns="http://www.w3.org/2000/svg">
<path d="M19.9167 12C19.9167 10.8937 20.7732 10 21.8333 10C22.8935 10 23.75 10.8937 23.75 12C23.75 13.1063 22.8935 14 21.8333 14C20.7732 14 19.9167 13.1063 19.9167 12ZM10.3333 12C10.3333 10.8937 11.1898 10 12.25 10C13.3102 10 14.1667 10.8937 14.1667 12C14.1667 13.1063 13.3102 14 12.25 14C11.1898 14 10.3333 13.1063 10.3333 12ZM4.58333 12C4.58333 13.1063 3.72503 14 2.66667 14C1.60831 14 0.75 13.1063 0.75 12C0.75 10.8937 1.60831 10 2.66667 10C3.72503 10 4.58333 10.8937 4.58333 12Z" fill="#191B1F"/>
</svg>
