<svg width="25" height="24" viewBox="0 0 25 24" fill="none" xmlns="http://www.w3.org/2000/svg">
<path d="M12.25 20C13.3544 20 14.25 20.8937 14.25 22C14.25 23.1063 13.3544 24 12.25 24C11.1456 24 10.25 23.1063 10.25 22C10.25 20.8937 11.1456 20 12.25 20ZM12.25 10C13.3544 10 14.25 10.8938 14.25 12C14.25 13.1062 13.3544 14 12.25 14C11.1456 14 10.25 13.1062 10.25 12C10.25 10.8938 11.1456 10 12.25 10ZM12.25 4C11.1456 4 10.25 3.10625 10.25 2C10.25 0.895625 11.1456 0 12.25 0C13.3544 0 14.25 0.895625 14.25 2C14.25 3.10625 13.3544 4 12.25 4Z" fill="#191B1F"/>
</svg>
