<svg width="25" height="24" viewBox="0 0 25 24" fill="none" xmlns="http://www.w3.org/2000/svg">
<path d="M5.85781 10C5.7875 10.4922 5.75 10.9891 5.75 11.5C5.75 12.0109 5.7875 12.5078 5.85781 13H5C4.5875 13 4.25 13.3375 4.25 13.75C4.25 14.1625 4.5875 14.5 5 14.5H6.18594C7.475 18.8359 11.4922 22 16.25 22H18.5469C18.9594 22 19.2969 21.6625 19.2969 21.25C19.2969 20.8375 18.9594 20.5 18.5469 20.5H16.25C12.3313 20.5 8.99844 17.9969 7.76094 14.5H17C17.4125 14.5 17.75 14.1625 17.75 13.75C17.75 13.3375 17.4125 13 17 13H7.37656C7.29687 12.5125 7.25 12.0109 7.25 11.5C7.25 10.9891 7.29219 10.4875 7.37656 10H17C17.4125 10 17.75 9.6625 17.75 9.25C17.75 8.8375 17.4125 8.5 17 8.5H7.76094C8.99844 5.00313 12.3313 2.5 16.25 2.5H18.5469C18.9594 2.5 19.2969 2.1625 19.2969 1.75C19.2969 1.3375 18.9594 1 18.5469 1H16.25C11.4922 1 7.475 4.16406 6.18594 8.5H5C4.5875 8.5 4.25 8.8375 4.25 9.25C4.25 9.6625 4.5875 10 5 10H5.85781Z" fill="#191B1F"/>
</svg>
