<svg width="24" height="24" viewBox="0 0 24 24" fill="none" xmlns="http://www.w3.org/2000/svg">
<g clip-path="url(#clip0_3205_2813)">
<path d="M18 9.75C18 8.66659 17.7866 7.5938 17.372 6.59286C16.9574 5.59193 16.3497 4.68245 15.5836 3.91637C14.8175 3.15029 13.9081 2.5426 12.9071 2.12799C11.9062 1.71339 10.8334 1.5 9.75 1.5C8.66659 1.5 7.5938 1.71339 6.59286 2.12799C5.59193 2.5426 4.68245 3.15029 3.91637 3.91637C3.15029 4.68245 2.5426 5.59193 2.12799 6.59286C1.71339 7.5938 1.5 8.66659 1.5 9.75C1.5 10.8334 1.71339 11.9062 2.12799 12.9071C2.5426 13.9081 3.15029 14.8175 3.91637 15.5836C4.68245 16.3497 5.59193 16.9574 6.59286 17.372C7.5938 17.7866 8.66659 18 9.75 18C10.8334 18 11.9062 17.7866 12.9071 17.372C13.9081 16.9574 14.8175 16.3497 15.5836 15.5836C16.3497 14.8175 16.9574 13.9081 17.372 12.9071C17.7866 11.9062 18 10.8334 18 9.75ZM16.0922 17.1562C14.3906 18.6187 12.1734 19.5 9.75 19.5C4.36406 19.5 0 15.1359 0 9.75C0 4.36406 4.36406 0 9.75 0C15.1359 0 19.5 4.36406 19.5 9.75C19.5 12.1734 18.6187 14.3906 17.1562 16.0922L23.7797 22.7203C24.0703 23.0109 24.0703 23.4891 23.7797 23.7797C23.4891 24.0703 23.0109 24.0703 22.7203 23.7797L16.0922 17.1562Z" fill="#191B1F"/>
<path d="M11.1301 3.75C8.55564 3.75 6.36929 5.39462 5.59681 7.67857H5.14875C4.79489 7.67857 4.5 7.96379 4.5 8.32143C4.5 8.67907 4.79489 8.96429 5.14875 8.96429H5.32304C5.30627 9.14039 5.29751 9.31853 5.29751 9.5C5.29751 9.68147 5.30627 9.85961 5.32304 10.0357H5.14875C4.79489 10.0357 4.5 10.3209 4.5 10.6786C4.5 11.0362 4.79489 11.3214 5.14875 11.3214H5.59681C6.36929 13.6054 8.55564 15.25 11.1301 15.25H12.3512C12.7051 15.25 13 14.9648 13 14.6071C13 14.2495 12.7051 13.9643 12.3512 13.9643H11.1301C9.28309 13.9643 7.69615 12.8784 6.98786 11.3214H11.5288C11.8827 11.3214 12.1776 11.0362 12.1776 10.6786C12.1776 10.3209 11.8827 10.0357 11.5288 10.0357H6.62871C6.60704 9.85928 6.59502 9.68046 6.59502 9.5C6.59502 9.31837 6.60592 9.13952 6.62762 8.96429H11.5288C11.8827 8.96429 12.1776 8.67907 12.1776 8.32143C12.1776 7.96379 11.8827 7.67857 11.5288 7.67857H6.98786C7.69615 6.12157 9.28309 5.03571 11.1301 5.03571H12.3512C12.7051 5.03571 13 4.7505 13 4.39286C13 4.03522 12.7051 3.75 12.3512 3.75H11.1301Z" fill="#191B1F"/>
</g>
<defs>
<clipPath id="clip0_3205_2813">
<rect width="24" height="24" fill="white"/>
</clipPath>
</defs>
</svg>
