<svg width="24" height="24" viewBox="0 0 24 24" fill="none" xmlns="http://www.w3.org/2000/svg">
<g clip-path="url(#clip0_2591_243)">
<path d="M10.9781 0.219C11.2969 0.074625 11.6484 0 12 0C12.3516 0 12.6609 0.074625 13.0219 0.219L23.2125 4.78594C23.6906 5.00156 24 5.475 24 6C24 6.525 23.6906 6.99844 23.2125 7.21406L13.0219 11.7797C12.6609 11.925 12.3516 12 12 12C11.6484 12 11.2969 11.925 10.9781 11.7797L0.785625 7.21406C0.307547 6.99844 1.40625e-05 6.525 1.40625e-05 6C1.40625e-05 5.475 0.307547 5.00156 0.785625 4.78594L10.9781 0.219ZM12 1.5C11.8172 1.5 11.6766 1.53 11.5875 1.58766L1.74703 6L11.5875 10.4109C11.6766 10.4719 11.8172 10.5 12 10.5C12.1406 10.5 12.2812 10.4719 12.4125 10.4109L22.2516 6L12.4125 1.58766C12.2812 1.53 12.1406 1.5 12 1.5ZM3.68437 10.3078C3.85406 10.6875 3.68484 11.1328 3.30703 11.3016L1.74703 12L11.5875 16.4109C11.6766 16.4719 11.8172 16.5 12 16.5C12.1406 16.5 12.2812 16.4719 12.4125 16.4109L22.2516 12L20.6953 11.3016C20.3156 11.1328 20.1469 10.6875 20.3156 10.3078C20.4844 9.93281 20.9297 9.76406 21.3047 9.93281L23.2125 10.7859C23.6906 11.0016 24 11.475 24 12C24 12.525 23.6906 12.9984 23.2125 13.2141L13.0219 17.7797C12.6609 17.925 12.3516 18 12 18C11.6484 18 11.2969 17.925 10.9781 17.7797L0.785625 13.2141C0.307547 12.9984 0 12.525 0 12C0 11.475 0.307547 11.0016 0.785625 10.7859L2.69344 9.93281C3.07125 9.76406 3.51516 9.93281 3.68437 10.3078ZM1.74703 18L11.5875 22.4109C11.6766 22.4719 11.8172 22.5 12 22.5C12.1406 22.5 12.2812 22.4719 12.4125 22.4109L22.2516 18L20.6953 17.3016C20.3156 17.1328 20.1469 16.6875 20.3156 16.3078C20.4844 15.9328 20.9297 15.7641 21.3047 15.9328L23.2125 16.7859C23.6906 17.0016 24 17.475 24 18C24 18.525 23.6906 18.9984 23.2125 19.2141L13.0219 23.7797C12.6609 23.925 12.3516 24 12 24C11.6484 24 11.2969 23.925 10.9781 23.7797L0.785625 19.2141C0.307547 18.9984 0 18.525 0 18C0 17.475 0.307547 17.0016 0.785625 16.7859L2.69344 15.9328C3.07125 15.7641 3.51516 15.9328 3.68437 16.3078C3.85359 16.6875 3.68484 17.1328 3.30656 17.3016L1.74703 18Z" fill="#191B1F"/>
</g>
<defs>
<clipPath id="clip0_2591_243">
<rect width="24" height="24" fill="white"/>
</clipPath>
</defs>
</svg>
