<svg width="24" height="24" viewBox="0 0 24 24" fill="none" xmlns="http://www.w3.org/2000/svg">
<path d="M15 22.5H3C2.17031 22.5 1.5 21.8297 1.5 21V3C1.5 2.17031 2.17031 1.5 3 1.5H9V6.75C9 7.99219 10.0078 9 11.25 9H16.5V21C16.5 21.8297 15.8297 22.5 15 22.5ZM11.25 7.5C10.8375 7.5 10.5 7.1625 10.5 6.75V1.52344C10.6313 1.55625 10.7531 1.62188 10.8469 1.72031L16.2797 7.15313C16.3781 7.25156 16.4438 7.36875 16.4766 7.5H11.25ZM3 0C1.34531 0 0 1.34531 0 3V21C0 22.6547 1.34531 24 3 24H15C16.6547 24 18 22.6547 18 21V7.68281C18 7.0875 17.7609 6.51562 17.3391 6.09375L11.9109 0.660938C11.4891 0.239063 10.9172 0 10.3219 0H3ZM7.27969 14.0297C7.57031 13.7391 7.57031 13.2609 7.27969 12.9703C6.98906 12.6797 6.51094 12.6797 6.22031 12.9703L3.97031 15.2203C3.67969 15.5109 3.67969 15.9891 3.97031 16.2797L6.22031 18.5297C6.51094 18.8203 6.98906 18.8203 7.27969 18.5297C7.57031 18.2391 7.57031 17.7609 7.27969 17.4703L5.55937 15.75L7.27969 14.0297ZM14.0297 15.2203L11.7797 12.9703C11.4891 12.6797 11.0109 12.6797 10.7203 12.9703C10.4297 13.2609 10.4297 13.7391 10.7203 14.0297L12.4406 15.75L10.7203 17.4703C10.4297 17.7609 10.4297 18.2391 10.7203 18.5297C11.0109 18.8203 11.4891 18.8203 11.7797 18.5297L14.0297 16.2797C14.3203 15.9891 14.3203 15.5109 14.0297 15.2203Z" fill="#191B1F"/>
</svg>
