<svg width="24" height="24" viewBox="0 0 24 24" fill="none" xmlns="http://www.w3.org/2000/svg">
<g clip-path="url(#clip0_2732_35327)">
<path d="M3 22.5H4.5V24H3C1.34531 24 0 22.6547 0 21V3C0 1.34531 1.34531 0 3 0H10.3172C10.9125 0 11.4844 0.239063 11.9062 0.660938L17.3391 6.08906C17.7609 6.51094 18 7.08281 18 7.67813V13.5H16.5V9H11.25C10.0078 9 9 7.99219 9 6.75V1.5H3C2.17031 1.5 1.5 2.17031 1.5 3V21C1.5 21.8297 2.17031 22.5 3 22.5ZM16.4766 7.5C16.4438 7.36875 16.3781 7.24688 16.2797 7.15313L10.8469 1.72031C10.7484 1.62188 10.6313 1.55625 10.5 1.52344V6.75C10.5 7.1625 10.8375 7.5 11.25 7.5H16.4766ZM8.25 16.5H9.75C10.9922 16.5 12 17.5078 12 18.75V21.75C12 22.9922 10.9922 24 9.75 24H8.25C7.8375 24 7.5 23.6625 7.5 23.25V17.25C7.5 16.8375 7.8375 16.5 8.25 16.5ZM9 22.5H9.75C10.1625 22.5 10.5 22.1625 10.5 21.75V18.75C10.5 18.3375 10.1625 18 9.75 18H9V22.5ZM21.375 16.5H22.125C23.1609 16.5 24 17.3391 24 18.375V18.75C24 19.1625 23.6625 19.5 23.25 19.5C22.8375 19.5 22.5 19.1625 22.5 18.75V18.375C22.5 18.1688 22.3312 18 22.125 18H21.375C21.1688 18 21 18.1688 21 18.375V22.125C21 22.3312 21.1688 22.5 21.375 22.5H22.125C22.3312 22.5 22.5 22.3312 22.5 22.125V21.75C22.5 21.3375 22.8375 21 23.25 21C23.6625 21 24 21.3375 24 21.75V22.125C24 23.1609 23.1609 24 22.125 24H21.375C20.3391 24 19.5 23.1609 19.5 22.125V18.375C19.5 17.3391 20.3391 16.5 21.375 16.5ZM13.5 18.375C13.5 17.3391 14.3391 16.5 15.375 16.5H16.125C17.1609 16.5 18 17.3391 18 18.375V22.125C18 23.1609 17.1609 24 16.125 24H15.375C14.3391 24 13.5 23.1609 13.5 22.125V18.375ZM15.375 18C15.1687 18 15 18.1688 15 18.375V22.125C15 22.3312 15.1687 22.5 15.375 22.5H16.125C16.3312 22.5 16.5 22.3312 16.5 22.125V18.375C16.5 18.1688 16.3312 18 16.125 18H15.375Z" fill="#191B1F"/>
</g>
<defs>
<clipPath id="clip0_2732_35327">
<rect width="24" height="24" fill="white"/>
</clipPath>
</defs>
</svg>
