<svg width="24" height="24" viewBox="0 0 24 24" fill="none" xmlns="http://www.w3.org/2000/svg">
<path d="M18 22.5H6C5.17031 22.5 4.5 21.8297 4.5 21V3C4.5 2.17031 5.17031 1.5 6 1.5H12V6.75C12 7.99219 13.0078 9 14.25 9H19.5V21C19.5 21.8297 18.8297 22.5 18 22.5ZM14.25 7.5C13.8375 7.5 13.5 7.1625 13.5 6.75V1.52344C13.6313 1.55625 13.7531 1.62188 13.8469 1.72031L19.2797 7.15313C19.3781 7.25156 19.4438 7.36875 19.4766 7.5H14.25ZM6 0C4.34531 0 3 1.34531 3 3V21C3 22.6547 4.34531 24 6 24H18C19.6547 24 21 22.6547 21 21V7.68281C21 7.0875 20.7609 6.51562 20.3391 6.09375L14.9109 0.660938C14.4891 0.239063 13.9172 0 13.3219 0H6ZM12.75 11.25C12.75 10.8375 12.4125 10.5 12 10.5C11.5875 10.5 11.25 10.8375 11.25 11.25V16.9406L8.77969 14.4703C8.48906 14.1797 8.01094 14.1797 7.72031 14.4703C7.42969 14.7609 7.42969 15.2391 7.72031 15.5297L11.4703 19.2797C11.7609 19.5703 12.2391 19.5703 12.5297 19.2797L16.2797 15.5297C16.5703 15.2391 16.5703 14.7609 16.2797 14.4703C15.9891 14.1797 15.5109 14.1797 15.2203 14.4703L12.75 16.9406V11.25Z" fill="#191B1F"/>
</svg>
