<svg width="25" height="24" viewBox="0 0 25 24" fill="none" xmlns="http://www.w3.org/2000/svg">
<g clip-path="url(#clip0_2285_7788)">
<path d="M21.2078 4.5H13L10.8765 2.37891C10.314 1.81594 9.55464 1.5 8.75776 1.5H3.20776C1.55073 1.5 0.207764 2.84297 0.207764 4.5V19.5C0.207764 21.157 1.55073 22.5 3.20776 22.5H21.2078C22.8648 22.5 24.2078 21.157 24.2078 19.5V7.5C24.2078 5.84531 22.9046 4.5 21.2078 4.5ZM22.75 19.5C22.75 20.3269 22.0768 21 21.25 21H3.24995C2.42308 21 1.74995 20.3269 1.74995 19.5V4.5C1.74995 3.67313 2.42308 3 3.24995 3H8.75776C9.1585 3 9.53495 3.156 9.81854 3.43945L12.3765 6H21.25C22.0768 6 22.75 6.67313 22.75 7.5V19.5Z" fill="#191B1F"/>
</g>
<defs>
<clipPath id="clip0_2285_7788">
<rect width="24" height="24" fill="white" transform="translate(0.25)"/>
</clipPath>
</defs>
</svg>
