<svg width="24" height="24" viewBox="0 0 24 24" fill="none" xmlns="http://www.w3.org/2000/svg">
<path d="M1.5 4.5C1.5 3.67031 2.17031 3 3 3H8.81719C9.21563 3 9.59531 3.15938 9.87656 3.44063L11.5594 5.12344C12.1219 5.68594 12.8859 6 13.6828 6H21C21.8297 6 22.5 6.67031 22.5 7.5V19.5C22.5 20.3297 21.8297 21 21 21H3C2.17031 21 1.5 20.3297 1.5 19.5V4.5ZM3 1.5C1.34531 1.5 0 2.84531 0 4.5V19.5C0 21.1547 1.34531 22.5 3 22.5H21C22.6547 22.5 24 21.1547 24 19.5V7.5C24 5.84531 22.6547 4.5 21 4.5H13.6828C13.2844 4.5 12.9047 4.34062 12.6234 4.05937L10.9406 2.37656C10.3781 1.81406 9.61406 1.5 8.81719 1.5H3ZM11.25 18C11.25 18.4125 11.5875 18.75 12 18.75C12.4125 18.75 12.75 18.4125 12.75 18V14.25H16.5C16.9125 14.25 17.25 13.9125 17.25 13.5C17.25 13.0875 16.9125 12.75 16.5 12.75H12.75V9C12.75 8.5875 12.4125 8.25 12 8.25C11.5875 8.25 11.25 8.5875 11.25 9V12.75H7.5C7.0875 12.75 6.75 13.0875 6.75 13.5C6.75 13.9125 7.0875 14.25 7.5 14.25H11.25V18Z" fill="#191B1F"/>
</svg>
