<svg width="25" height="24" viewBox="0 0 25 24" fill="none" xmlns="http://www.w3.org/2000/svg">
<g clip-path="url(#clip0_2285_7790)">
<path d="M9.96728 1.77187C9.98603 1.70156 10.0282 1.64062 10.0798 1.59375C10.5438 1.53281 11.0173 1.5 11.5001 1.5C11.9829 1.5 12.4563 1.53281 12.9204 1.59375C12.972 1.64062 13.0095 1.70156 13.0329 1.77187L13.6751 4.00781C13.8392 4.575 14.247 4.99687 14.7298 5.23125C15.086 5.4 15.4235 5.59687 15.747 5.81719C16.1876 6.12187 16.7642 6.2625 17.336 6.12188L19.5954 5.55937C19.6657 5.54062 19.736 5.54531 19.8017 5.56875C20.0548 5.89219 20.2892 6.23438 20.5001 6.59063L20.7017 6.9375C20.8985 7.28906 21.072 7.65469 21.2267 8.02969C21.2126 8.1 21.1798 8.16563 21.1282 8.21719L19.5063 9.89062C19.0985 10.3125 18.9345 10.8797 18.9767 11.4141C18.9907 11.6062 19.0001 11.8031 19.0001 12C19.0001 12.1969 18.9907 12.3938 18.9767 12.5859C18.9345 13.1203 19.0985 13.6875 19.5063 14.1094L21.1235 15.7828C21.1751 15.8344 21.2079 15.9 21.222 15.9703C21.0673 16.3453 20.8938 16.7109 20.697 17.0672L20.5001 17.4094C20.2845 17.7656 20.0501 18.1031 19.8017 18.4313C19.736 18.4547 19.6657 18.4547 19.5954 18.4406L17.336 17.8781C16.7642 17.7375 16.1923 17.8781 15.747 18.1828C15.4235 18.4031 15.086 18.6 14.7298 18.7687C14.247 18.9984 13.8345 19.425 13.6751 19.9922L13.0329 22.2281C13.0142 22.2984 12.972 22.3594 12.9204 22.4062C12.4563 22.4672 11.9829 22.5 11.5001 22.5C11.0173 22.5 10.5438 22.4672 10.0798 22.4062C10.0282 22.3594 9.99072 22.2984 9.96728 22.2281L9.32509 19.9922C9.16103 19.425 8.75322 19.0031 8.27041 18.7687C7.91416 18.6 7.57665 18.4031 7.25322 18.1828C6.81259 17.8781 6.23603 17.7375 5.66416 17.8781L3.40478 18.4406C3.33447 18.4594 3.26416 18.4547 3.19853 18.4313C2.94541 18.1031 2.71103 17.7656 2.49541 17.4094L2.29853 17.0672C2.10166 16.7156 1.92822 16.35 1.77353 15.9703C1.78759 15.9 1.82041 15.8344 1.87197 15.7828L3.49384 14.1094C3.90166 13.6875 4.06572 13.1203 4.02353 12.5859C4.00947 12.3938 4.00009 12.1969 4.00009 12C4.00009 11.8031 4.00947 11.6062 4.02353 11.4141C4.06572 10.8797 3.90166 10.3125 3.49384 9.89062L1.87666 8.2125C1.82509 8.16094 1.79228 8.09531 1.77822 8.025C1.93291 7.65 2.10634 7.28438 2.30322 6.92813L2.50009 6.58594C2.71572 6.22969 2.95009 5.89219 3.20322 5.56406C3.26884 5.54062 3.33916 5.54063 3.40947 5.55469L5.66884 6.11719C6.24072 6.25781 6.81259 6.11719 7.25791 5.8125C7.58134 5.59219 7.91884 5.39531 8.27509 5.22656C8.75791 4.99687 9.1704 4.57031 9.32978 4.00313L9.97197 1.76719L9.96728 1.77187ZM11.5001 0C10.8907 0 10.286 0.046875 9.70009 0.135938C9.62041 0.15 9.54072 0.173438 9.46572 0.210938C9.02041 0.440625 8.67353 0.848438 8.52822 1.35938L7.88603 3.59531C7.8579 3.69844 7.76884 3.80625 7.62353 3.87656C7.19697 4.07812 6.78916 4.31719 6.40478 4.57969C6.27353 4.66875 6.13291 4.69219 6.02978 4.66406L3.77041 4.10156C3.25947 3.975 2.73447 4.07344 2.31259 4.34062C2.24228 4.38281 2.18134 4.43906 2.12978 4.50469C1.79697 4.92188 1.48759 5.35781 1.21103 5.81719L1.20634 5.83125L1.00009 6.1875L0.995405 6.20156C0.74228 6.65625 0.51728 7.12969 0.325093 7.62188C0.296968 7.69688 0.278218 7.77656 0.27353 7.85625C0.250093 8.3625 0.428218 8.86875 0.79853 9.25312L2.41572 10.9266C2.49072 11.0063 2.54228 11.1328 2.52822 11.2922C2.50947 11.5266 2.50009 11.7609 2.50009 11.9953C2.50009 12.2297 2.50947 12.4687 2.52822 12.6984C2.54228 12.8578 2.49072 12.9891 2.41572 13.0641L0.79853 14.7469C0.428218 15.1266 0.250093 15.6375 0.27353 16.1391C0.278218 16.2187 0.296968 16.2984 0.325093 16.3734C0.51728 16.8656 0.74228 17.3391 0.995405 17.7984L1.00009 17.8125L1.20634 18.1688L1.21572 18.1781C1.49228 18.6375 1.79697 19.0781 2.13447 19.4953C2.18603 19.5609 2.24697 19.6172 2.31728 19.6594C2.73916 19.9266 3.26416 20.025 3.77509 19.8984L6.03447 19.3359C6.13759 19.3078 6.27822 19.3312 6.40947 19.4203C6.79384 19.6875 7.20165 19.9219 7.62822 20.1234C7.77353 20.1937 7.8579 20.3016 7.89072 20.4047L8.52822 22.6406C8.67353 23.1469 9.02041 23.5547 9.46572 23.7891C9.54072 23.8266 9.61572 23.8547 9.70009 23.8641C10.286 23.9531 10.8907 24 11.5001 24C12.1095 24 12.7142 23.9531 13.3001 23.8641C13.3798 23.85 13.4595 23.8266 13.5345 23.7891C13.9798 23.5594 14.3267 23.1516 14.472 22.6406L15.1142 20.4047C15.1423 20.3016 15.2313 20.1937 15.3767 20.1234C15.8032 19.9219 16.211 19.6828 16.5954 19.4203C16.7267 19.3312 16.8673 19.3078 16.9704 19.3359L19.2298 19.8984C19.7407 20.025 20.2657 19.9312 20.6876 19.6594C20.7579 19.6172 20.8188 19.5609 20.8704 19.4953C21.2032 19.0781 21.5079 18.6422 21.7845 18.1828L21.7892 18.1688L22.0001 17.8125L22.0048 17.7984C22.2579 17.3438 22.4829 16.8656 22.6751 16.3734C22.7032 16.2984 22.722 16.2187 22.7267 16.1391C22.7501 15.6328 22.572 15.1266 22.2017 14.7422L20.5845 13.0687C20.5095 12.9891 20.4579 12.8625 20.472 12.7031C20.4907 12.4688 20.5001 12.2344 20.5001 12C20.5001 11.7656 20.4907 11.5266 20.472 11.2969C20.4579 11.1375 20.5095 11.0062 20.5845 10.9312L22.2017 9.25781C22.572 8.87344 22.7501 8.36719 22.7267 7.86094C22.722 7.78125 22.7032 7.70156 22.6751 7.62656C22.4829 7.13437 22.2579 6.66094 22.0048 6.20156L22.0001 6.1875L21.7938 5.83125L21.7845 5.81719C21.5079 5.35781 21.2032 4.91719 20.8704 4.50469C20.8188 4.43906 20.7579 4.38281 20.6876 4.34062C20.2657 4.07344 19.7407 3.975 19.2298 4.10156L16.9704 4.66406C16.8673 4.69219 16.7267 4.66875 16.5954 4.57969C16.211 4.3125 15.8032 4.07812 15.3767 3.87656C15.2313 3.80625 15.147 3.69844 15.1142 3.59531L14.472 1.35938C14.3267 0.853125 13.9798 0.445312 13.5345 0.210938C13.4595 0.173438 13.3845 0.145313 13.3001 0.135938C12.7142 0.046875 12.1095 0 11.5001 0ZM8.87509 12C8.87509 11.3038 9.15165 10.6361 9.64394 10.1438C10.1362 9.65156 10.8039 9.375 11.5001 9.375C12.1963 9.375 12.864 9.65156 13.3562 10.1438C13.8485 10.6361 14.1251 11.3038 14.1251 12C14.1251 12.6962 13.8485 13.3639 13.3562 13.8562C12.864 14.3484 12.1963 14.625 11.5001 14.625C10.8039 14.625 10.1362 14.3484 9.64394 13.8562C9.15165 13.3639 8.87509 12.6962 8.87509 12ZM15.6251 12C15.6251 10.906 15.1905 9.85677 14.4169 9.08318C13.6433 8.3096 12.5941 7.875 11.5001 7.875C10.4061 7.875 9.35686 8.3096 8.58328 9.08318C7.80969 9.85677 7.37509 10.906 7.37509 12C7.37509 13.094 7.80969 14.1432 8.58328 14.9168C9.35686 15.6904 10.4061 16.125 11.5001 16.125C12.5941 16.125 13.6433 15.6904 14.4169 14.9168C15.1905 14.1432 15.6251 13.094 15.6251 12Z" fill="#191B1F"/>
</g>
<defs>
<clipPath id="clip0_2285_7790">
<rect width="24" height="24" fill="white" transform="translate(0.25)"/>
</clipPath>
</defs>
</svg>
