<svg width="24" height="24" viewBox="0 0 24 24" fill="none" xmlns="http://www.w3.org/2000/svg">
<g clip-path="url(#clip0_2930_1827)">
<path d="M10.8 20.8875L10.3734 22.1156L9.7875 23.7984C10.5047 23.9297 11.2406 24 12 24C18.6281 24 24 18.6281 24 12C24 5.37188 18.6281 0 12 0C5.37188 0 0 5.37188 0 12C0 12.7453 0.0703125 13.4766 0.196875 14.1844L1.63125 13.6875C1.54688 13.1391 1.5 12.5766 1.5 12C1.5 10.9594 1.65 9.95156 1.93594 9H6.28594C6.10313 9.92813 6 10.9266 6 12C6 12.0609 6 12.1219 6 12.1828L7.50469 11.6625C7.52813 10.7063 7.64062 9.82031 7.81875 9H16.1813C16.3828 9.91406 16.5 10.9172 16.5 12C16.5 13.0828 16.3828 14.0859 16.1813 15H12.8484L12.3281 16.5H15.7594C15.2438 17.9813 14.5266 19.1906 13.8047 20.1422C13.1484 21.0094 12.4969 21.6609 12 22.0922C11.6578 21.7922 11.2406 21.3891 10.8 20.8828V20.8875ZM13.8 3.85781C14.5219 4.80938 15.2391 6.01875 15.7547 7.5H8.24063C8.75625 6.01875 9.47344 4.80938 10.1953 3.85781C10.8516 2.99063 11.5031 2.33906 12 1.90781C12.4922 2.34375 13.1484 2.99063 13.8047 3.85781H13.8ZM18 12C18 10.9266 17.8969 9.92813 17.7141 9H22.0641C22.3453 9.95156 22.5 10.9594 22.5 12C22.5 13.0406 22.35 14.0484 22.0641 15H17.7141C17.8969 14.0719 18 13.0734 18 12ZM17.3344 7.5C16.5141 4.84688 15.0891 2.91094 13.9172 1.67344C17.2734 2.29219 20.0672 4.50938 21.4875 7.5H17.3344ZM2.5125 7.5C3.93281 4.50938 6.73125 2.29219 10.0828 1.67344C8.91094 2.91094 7.48125 4.84219 6.66562 7.5H2.5125ZM17.3344 16.5H21.4875C20.0672 19.4906 17.2687 21.7078 13.9172 22.3266C15.0891 21.0891 16.5187 19.1578 17.3344 16.5ZM11.9578 12.9984L12.4641 11.5406L11.0016 12.0469L2.42344 15.0094L0.73125 15.5906L2.33906 16.3875L5.16094 17.7797L0.220312 22.7203L1.27969 23.7797L6.21094 18.8484L7.57031 21.6984L8.35781 23.3438L8.95781 21.6234L11.9578 12.9984ZM6.76406 16.8937L4.61719 15.8344L10.0359 13.9641L8.14219 19.4062L7.11094 17.2453L6.99844 17.0109L6.76406 16.8937Z" fill="#191B1F"/>
</g>
<defs>
<clipPath id="clip0_2930_1827">
<rect width="24" height="24" fill="white"/>
</clipPath>
</defs>
</svg>
