<svg width="24" height="24" viewBox="0 0 24 24" fill="none" xmlns="http://www.w3.org/2000/svg">
<g clip-path="url(#clip0_2937_1899)">
<path d="M12 22.5C12.7828 22.5 13.8937 21.825 14.9016 19.8141C15.3656 18.8859 15.7547 17.7656 16.0312 16.5H7.96875C8.24531 17.7656 8.63438 18.8859 9.09844 19.8141C10.1063 21.825 11.2172 22.5 12 22.5ZM7.70156 15H16.2984C16.4297 14.0531 16.5 13.0453 16.5 12C16.5 10.9547 16.4297 9.94687 16.2984 9H7.70156C7.57031 9.94687 7.5 10.9547 7.5 12C7.5 13.0453 7.57031 14.0531 7.70156 15ZM7.96875 7.5H16.0312C15.7547 6.23438 15.3656 5.11406 14.9016 4.18594C13.8937 2.175 12.7828 1.5 12 1.5C11.2172 1.5 10.1063 2.175 9.09844 4.18594C8.63438 5.11406 8.24531 6.23438 7.96875 7.5ZM17.8125 9C17.9344 9.96094 18 10.9641 18 12C18 13.0359 17.9344 14.0391 17.8125 15H22.0687C22.35 14.0484 22.5047 13.0406 22.5047 12C22.5047 10.9594 22.3547 9.95156 22.0687 9H17.8125ZM21.4922 7.5C20.2781 4.94531 18.0656 2.95781 15.3563 2.04844C16.3406 3.375 17.1187 5.27344 17.5687 7.5H21.4969H21.4922ZM6.44062 7.5C6.89062 5.26875 7.66875 3.375 8.65313 2.04844C5.93906 2.95781 3.72187 4.94531 2.5125 7.5H6.43594H6.44062ZM1.94063 9C1.65938 9.95156 1.50469 10.9594 1.50469 12C1.50469 13.0406 1.65469 14.0484 1.94063 15H6.1875C6.06563 14.0391 6 13.0359 6 12C6 10.9641 6.06563 9.96094 6.1875 9H1.93594H1.94063ZM15.3516 21.9516C18.0609 21.0375 20.2734 19.0547 21.4875 16.5H17.5641C17.1141 18.7313 16.3359 20.625 15.3516 21.9516ZM8.64844 21.9516C7.66406 20.625 6.89062 18.7266 6.43594 16.5H2.5125C3.72656 19.0547 5.93906 21.0422 8.64844 21.9516ZM12 24C8.8174 24 5.76516 22.7357 3.51472 20.4853C1.26428 18.2348 0 15.1826 0 12C0 8.8174 1.26428 5.76516 3.51472 3.51472C5.76516 1.26428 8.8174 0 12 0C15.1826 0 18.2348 1.26428 20.4853 3.51472C22.7357 5.76516 24 8.8174 24 12C24 15.1826 22.7357 18.2348 20.4853 20.4853C18.2348 22.7357 15.1826 24 12 24Z" fill="#191B1F"/>
</g>
<defs>
<clipPath id="clip0_2937_1899">
<rect width="24" height="24" fill="white"/>
</clipPath>
</defs>
</svg>
