<svg width="24" height="24" viewBox="0 0 24 24" fill="none" xmlns="http://www.w3.org/2000/svg">
<path d="M9.8962 4.40002H10.2225L8.90245 5.72002C8.27995 5.87377 7.69495 6.16627 7.1962 6.58627L5.67745 7.86127C5.5687 7.95127 5.4337 8.00377 5.2912 8.00377H1.79995C1.46995 8.00377 1.19995 7.73377 1.19995 7.40377C1.19995 7.07377 1.46995 6.80377 1.79995 6.80377H5.0737L6.4237 5.66752C7.39495 4.85002 8.62495 4.40002 9.8962 4.40002ZM10.9612 5.71252C11.8537 4.86877 13.035 4.40002 14.265 4.40002C15.3975 4.40002 16.4925 4.79752 17.3587 5.52877L18.8737 6.80002H22.2C22.53 6.80002 22.8 7.07002 22.8 7.40002C22.8 7.73002 22.53 8.00002 22.2 8.00002H18.6562C18.5137 8.00002 18.3787 7.95127 18.27 7.85752L16.59 6.44377C15.9375 5.90002 15.1162 5.60002 14.265 5.60002C13.3425 5.60002 12.4575 5.95252 11.7862 6.58627L8.8087 9.39877C8.24995 9.92752 8.2612 10.8238 8.8387 11.3338C9.34495 11.7838 10.1062 11.7763 10.6012 11.3188L13.455 8.68627C13.6987 8.46127 14.0775 8.47627 14.3025 8.72002C14.5275 8.96377 14.5125 9.34252 14.2687 9.56752L13.965 9.84877L17.175 13.055C17.4375 13.3175 17.6287 13.625 17.7412 13.955H22.2C22.53 13.955 22.8 14.225 22.8 14.555C22.8 14.885 22.53 15.155 22.2 15.155H17.8425C17.7562 15.6725 17.4975 16.1675 17.07 16.5425C16.4812 17.0675 15.7012 17.2475 14.9812 17.0975C14.88 17.4013 14.7187 17.69 14.4937 17.9413C13.6312 18.9125 12.1687 19.0138 11.1787 18.215C11.1487 18.2413 11.1225 18.2713 11.0925 18.2975C10.1025 19.1825 8.5912 19.1413 7.64995 18.2L6.7387 17.2888L6.73495 17.285L6.15745 16.7075L5.08495 15.635C4.8037 15.3538 4.4212 15.1963 4.0237 15.1963H1.79995C1.46995 15.1963 1.19995 14.9263 1.19995 14.5963C1.19995 14.2663 1.46995 13.9963 1.79995 13.9963H4.02745C4.7437 13.9963 5.42995 14.2813 5.9362 14.7875L7.0087 15.86L8.50495 17.3525C8.9962 17.8438 9.77995 17.8625 10.2975 17.4013C10.4175 17.2925 10.515 17.1688 10.5825 17.0338C10.6725 16.865 10.8337 16.7488 11.025 16.7188C11.2162 16.6888 11.4037 16.7525 11.5387 16.8875L11.8425 17.1913C12.3337 17.6825 13.14 17.66 13.6012 17.1388C13.8187 16.895 13.92 16.5875 13.905 16.28C13.8937 16.055 14.01 15.845 14.205 15.7325C14.4 15.62 14.64 15.6275 14.8275 15.7513C15.27 16.0363 15.8625 16.0025 16.275 15.6388C16.7887 15.1813 16.815 14.3825 16.3275 13.895L13.0837 10.6625L11.415 12.2C10.4662 13.0775 9.00745 13.0888 8.03995 12.23C6.93745 11.2513 6.9112 9.53752 7.9837 8.52502L10.9612 5.71252Z" fill="#191B1F"/>
</svg>
