<svg width="27" height="24" viewBox="0 0 27 24" fill="none" xmlns="http://www.w3.org/2000/svg">
<g clip-path="url(#clip0_3189_122)">
<path d="M9.75 1.5V6C9.75 6.25781 9.88594 6.50156 10.1063 6.6375C10.3266 6.77344 10.6031 6.7875 10.8375 6.67031L13.5 5.33906L16.1625 6.67031C16.3969 6.7875 16.6734 6.77344 16.8937 6.6375C17.1141 6.50156 17.25 6.25781 17.25 6V1.5H20.25C20.6625 1.5 21 1.8375 21 2.25V9.75C21 10.1625 20.6625 10.5 20.25 10.5H6.75C6.3375 10.5 6 10.1625 6 9.75V2.25C6 1.8375 6.3375 1.5 6.75 1.5H9.75ZM10.5 0H6.75C5.50781 0 4.5 1.00781 4.5 2.25V9.75C4.5 10.9922 5.50781 12 6.75 12H20.25C21.4922 12 22.5 10.9922 22.5 9.75V2.25C22.5 1.00781 21.4922 0 20.25 0H16.5H10.5ZM11.25 1.5H15.75V4.78594L13.8375 3.82969C13.6266 3.72187 13.3781 3.72187 13.1672 3.82969L11.25 4.78594V1.5ZM9.15937 14.25C8.41875 14.25 7.69688 14.4703 7.07812 14.8781L3.525 17.25H0.75C0.3375 17.25 0 17.5875 0 18C0 18.4125 0.3375 18.75 0.75 18.75H3.75C3.9 18.75 4.04063 18.7078 4.16719 18.6234L7.9125 16.125C8.28281 15.8766 8.71406 15.7453 9.15937 15.7453H16.125C16.7484 15.7453 17.25 16.2469 17.25 16.8703C17.25 17.4937 16.7484 17.9953 16.125 17.9953H15H12C11.5875 17.9953 11.25 18.3328 11.25 18.7453C11.25 19.1578 11.5875 19.4953 12 19.4953H15H16.125H18.9656C19.1016 19.4953 19.2328 19.4578 19.35 19.3875L23.9672 16.6406C24.1266 16.5469 24.3047 16.5 24.4875 16.5H24.5484C25.0734 16.5 25.5 16.9266 25.5 17.4516C25.5 17.775 25.3359 18.075 25.0687 18.2484L19.4578 21.8953C18.8484 22.2891 18.1406 22.5 17.4141 22.5H0.75C0.3375 22.5 0 22.8375 0 23.25C0 23.6625 0.3375 24 0.75 24H17.4141C18.4312 24 19.425 23.7047 20.2734 23.1516L25.8797 19.5047C26.5781 19.0547 27 18.2812 27 17.4516C27 16.0969 25.9031 15 24.5484 15H24.4875C24.0328 15 23.5922 15.1219 23.1984 15.3563L18.7594 18H18.4969C18.6609 17.6578 18.75 17.2781 18.75 16.875C18.75 15.4266 17.5734 14.25 16.125 14.25H9.15937Z" fill="#191B1F"/>
</g>
<defs>
<clipPath id="clip0_3189_122">
<rect width="27" height="24" fill="white"/>
</clipPath>
</defs>
</svg>
