<svg width="24" height="24" viewBox="0 0 24 24" fill="none" xmlns="http://www.w3.org/2000/svg">
<path d="M2.80991 4.09896C2.59431 3.94077 2.27873 3.97592 2.10687 4.17805C1.93502 4.38019 1.97564 4.67606 2.19124 4.83719L21.1889 18.8987C21.4045 19.0598 21.7201 19.0246 21.8919 18.8225C22.0638 18.6204 22.0263 18.3245 21.8107 18.1634L2.80991 4.09896ZM20.9202 11.8591C21.0233 11.6277 21.0233 11.3699 20.9202 11.1385C20.4546 10.0927 19.4766 8.56934 18.0143 7.29795C16.5457 6.01484 14.5241 4.93679 11.9994 4.93679C10.3996 4.93679 8.99977 5.37035 7.81554 6.01484L8.66856 6.64467C9.64344 6.17303 10.7558 5.87422 11.9994 5.87422C14.1991 5.87422 15.9895 6.81165 17.3362 7.98344C18.683 9.15523 19.5828 10.5614 19.9984 11.4988C19.7109 12.1462 19.1891 13.0221 18.4517 13.8863L19.236 14.4664C20.0359 13.5289 20.6015 12.5798 20.9202 11.8591ZM4.76279 8.53126C3.96289 9.46869 3.39734 10.4178 3.07863 11.1385C2.97552 11.3699 2.97552 11.6277 3.07863 11.8591C3.5442 12.905 4.5222 14.4283 5.98452 15.6997C7.45309 16.9828 9.47471 18.0608 11.9994 18.0608C13.5992 18.0608 14.999 17.6273 16.1833 16.9828L15.3302 16.353C14.3554 16.8246 13.243 17.1234 11.9994 17.1234C9.79967 17.1234 8.00927 16.186 6.66256 15.0142C5.31585 13.8424 4.41596 12.4362 4.00039 11.4988C4.28785 10.8514 4.80966 9.97549 5.54707 9.11129L4.76279 8.53126ZM11.9994 15.2485C12.5212 15.2485 13.0211 15.1548 13.4805 14.982L12.515 14.2672C12.3462 14.2935 12.1744 14.3082 11.9994 14.3082C10.4058 14.3082 9.09976 13.1423 9.00602 11.6687L8.04051 10.9539C8.01239 11.1297 7.99989 11.3113 7.99989 11.4959C7.99989 13.567 9.7903 15.2456 11.9994 15.2456V15.2485ZM15.9989 11.4988C15.9989 9.42768 14.2085 7.74909 11.9994 7.74909C11.4776 7.74909 10.9777 7.84283 10.5183 8.01567L11.4838 8.73046C11.6526 8.7041 11.8244 8.68945 11.9994 8.68945C13.593 8.68945 14.899 9.85538 14.9928 11.3289L15.9583 12.0437C15.9864 11.8679 15.9989 11.6863 15.9989 11.5017V11.4988Z" fill="#191B1F"/>
</svg>
