<svg width="25" height="24" viewBox="0 0 25 24" fill="none" xmlns="http://www.w3.org/2000/svg">
<g clip-path="url(#clip0_2285_7792)">
<path d="M11.8114 2.16079C12.0657 1.9464 12.4408 1.9464 12.695 2.16079L24.0314 11.8036C24.3064 12.0366 24.3314 12.4103 24.0522 12.7116C23.848 12.9768 23.4229 13.0009 23.1478 12.7317L21.589 11.4058V19.3571C21.589 21.133 20.097 22.5714 18.2548 22.5714H6.25161C4.41029 22.5714 2.91739 21.133 2.91739 19.3571V11.4058L1.35822 12.7317C1.0819 13.0009 0.660494 12.9768 0.416845 12.7116C0.173155 12.4103 0.199495 12.0366 0.475652 11.8036L11.8114 2.16079ZM4.25108 10.3049V19.3571C4.25108 20.4219 5.14715 21.2857 6.25161 21.2857H18.2548C19.3593 21.2857 20.2554 20.4219 20.2554 19.3571V10.3049L12.2532 3.50027L4.25108 10.3049Z" fill="#191B1F"/>
</g>
<defs>
<clipPath id="clip0_2285_7792">
<rect width="24" height="24" fill="white" transform="translate(0.25)"/>
</clipPath>
</defs>
</svg>
