<svg width="24" height="24" viewBox="0 0 24 24" fill="none" xmlns="http://www.w3.org/2000/svg">
<g clip-path="url(#clip0_2828_13969)">
<path d="M0 4C0 1.79086 1.79086 0 4 0H20C22.2091 0 24 1.79086 24 4V20C24 22.2091 22.2091 24 20 24H4C1.79086 24 0 22.2091 0 20V4Z" fill="#1965D8"/>
<path d="M3.91064 15V9.39997H6.25464C6.66531 9.39997 7.04131 9.46931 7.38264 9.60797C7.72398 9.74131 8.01731 9.93331 8.26264 10.184C8.51331 10.4346 8.70531 10.7306 8.83864 11.072C8.97198 11.4133 9.03864 11.7893 9.03864 12.2C9.03864 12.6106 8.97198 12.9893 8.83864 13.336C8.70531 13.6773 8.51331 13.9733 8.26264 14.224C8.01731 14.4693 7.72398 14.6613 7.38264 14.8C7.04131 14.9333 6.66531 15 6.25464 15H3.91064ZM5.27064 14.072L5.08664 13.8H6.21464C6.43864 13.8 6.63864 13.7626 6.81464 13.688C6.99064 13.608 7.13998 13.4986 7.26264 13.36C7.39064 13.2213 7.48931 13.0533 7.55864 12.856C7.62798 12.6586 7.66264 12.44 7.66264 12.2C7.66264 11.96 7.62798 11.7413 7.55864 11.544C7.48931 11.3466 7.39064 11.1786 7.26264 11.04C7.13998 10.9013 6.99064 10.7946 6.81464 10.72C6.63864 10.64 6.43864 10.6 6.21464 10.6H5.06264L5.27064 10.344V14.072Z" fill="white"/>
<path d="M12.3223 15.08C11.8957 15.08 11.5063 15.008 11.1543 14.864C10.8023 14.72 10.4957 14.5173 10.2343 14.256C9.973 13.9946 9.77033 13.688 9.62633 13.336C9.48233 12.984 9.41033 12.5973 9.41033 12.176C9.41033 11.7546 9.48233 11.368 9.62633 11.016C9.77033 10.664 9.973 10.3573 10.2343 10.096C10.4957 9.83464 10.8023 9.63197 11.1543 9.48797C11.5063 9.34397 11.893 9.27197 12.3143 9.27197C12.7357 9.27197 13.1223 9.34397 13.4743 9.48797C13.8263 9.63197 14.133 9.83464 14.3943 10.096C14.6557 10.3573 14.8557 10.664 14.9943 11.016C15.1383 11.368 15.2103 11.7546 15.2103 12.176C15.2103 12.592 15.1383 12.9786 14.9943 13.336C14.8557 13.688 14.6557 13.9946 14.3943 14.256C14.133 14.5173 13.8263 14.72 13.4743 14.864C13.1223 15.008 12.7383 15.08 12.3223 15.08ZM12.3143 13.8C12.533 13.8 12.733 13.76 12.9143 13.68C13.101 13.6 13.261 13.488 13.3943 13.344C13.533 13.1946 13.6397 13.0213 13.7143 12.824C13.789 12.6266 13.8263 12.4106 13.8263 12.176C13.8263 11.9413 13.789 11.7253 13.7143 11.528C13.6397 11.3306 13.533 11.16 13.3943 11.016C13.261 10.8666 13.101 10.752 12.9143 10.672C12.733 10.592 12.533 10.552 12.3143 10.552C12.0957 10.552 11.893 10.592 11.7063 10.672C11.525 10.752 11.365 10.8666 11.2263 11.016C11.0877 11.16 10.981 11.3306 10.9063 11.528C10.837 11.7253 10.8023 11.9413 10.8023 12.176C10.8023 12.4106 10.837 12.6293 10.9063 12.832C10.981 13.0293 11.0877 13.2 11.2263 13.344C11.365 13.488 11.525 13.6 11.7063 13.68C11.893 13.76 12.0957 13.8 12.3143 13.8Z" fill="white"/>
<path d="M18.4865 15.08C18.0652 15.08 17.6759 15.0106 17.3185 14.872C16.9665 14.728 16.6599 14.528 16.3985 14.272C16.1372 14.0106 15.9345 13.704 15.7905 13.352C15.6519 12.9946 15.5825 12.6026 15.5825 12.176C15.5825 11.76 15.6572 11.376 15.8065 11.024C15.9559 10.672 16.1612 10.368 16.4225 10.112C16.6892 9.85064 17.0012 9.64797 17.3585 9.50397C17.7212 9.35997 18.1159 9.28797 18.5425 9.28797C18.8092 9.28797 19.0705 9.32264 19.3265 9.39197C19.5825 9.46131 19.8199 9.56531 20.0385 9.70397C20.2625 9.83731 20.4545 9.99731 20.6145 10.184L19.7825 11.136C19.6705 11.0186 19.5505 10.9173 19.4225 10.832C19.2999 10.7413 19.1639 10.672 19.0145 10.624C18.8652 10.576 18.7052 10.552 18.5345 10.552C18.3212 10.552 18.1185 10.592 17.9265 10.672C17.7399 10.7466 17.5745 10.856 17.4305 11C17.2919 11.1386 17.1825 11.3093 17.1025 11.512C17.0225 11.7146 16.9825 11.9413 16.9825 12.192C16.9825 12.4373 17.0225 12.6613 17.1025 12.864C17.1825 13.0613 17.2945 13.232 17.4385 13.376C17.5825 13.52 17.7559 13.6293 17.9585 13.704C18.1665 13.7786 18.3959 13.816 18.6465 13.816C18.8172 13.816 18.9799 13.792 19.1345 13.744C19.2892 13.696 19.4305 13.632 19.5585 13.552C19.6919 13.4666 19.8092 13.3706 19.9105 13.264L20.5665 14.304C20.4332 14.4533 20.2545 14.5866 20.0305 14.704C19.8119 14.8213 19.5665 14.9146 19.2945 14.984C19.0279 15.048 18.7585 15.08 18.4865 15.08Z" fill="white"/>
</g>
<defs>
<clipPath id="clip0_2828_13969">
<rect width="24" height="24" fill="white"/>
</clipPath>
</defs>
</svg>
