<svg width="24" height="24" viewBox="0 0 24 24" fill="none" xmlns="http://www.w3.org/2000/svg">
<g clip-path="url(#clip0_2828_13970)">
<path d="M0 4C0 1.79086 1.79086 0 4 0H20C22.2091 0 24 1.79086 24 4V20C24 22.2091 22.2091 24 20 24H4C1.79086 24 0 22.2091 0 20V4Z" fill="#D82B19"/>
<path d="M4.81299 15V9.40002H7.22899C7.58099 9.40002 7.89299 9.48002 8.16499 9.64002C8.44232 9.80002 8.66099 10.0187 8.82099 10.296C8.98632 10.5734 9.06899 10.8854 9.06899 11.232C9.06899 11.5947 8.98632 11.92 8.82099 12.208C8.66099 12.4907 8.44232 12.7147 8.16499 12.88C7.89299 13.0454 7.58099 13.128 7.22899 13.128H6.17299V15H4.81299ZM6.14899 11.936H7.03699C7.15432 11.936 7.26099 11.9067 7.35699 11.848C7.45299 11.7894 7.53032 11.7094 7.58899 11.608C7.64766 11.5067 7.67699 11.3894 7.67699 11.256C7.67699 11.1174 7.64766 11 7.58899 10.904C7.53032 10.808 7.45299 10.7334 7.35699 10.68C7.26099 10.6267 7.15432 10.6 7.03699 10.6H6.14899V11.936Z" fill="white"/>
<path d="M9.78986 15V9.40002H12.1339C12.5445 9.40002 12.9205 9.46936 13.2619 9.60802C13.6032 9.74136 13.8965 9.93336 14.1419 10.184C14.3925 10.4347 14.5845 10.7307 14.7179 11.072C14.8512 11.4134 14.9179 11.7894 14.9179 12.2C14.9179 12.6107 14.8512 12.9894 14.7179 13.336C14.5845 13.6774 14.3925 13.9734 14.1419 14.224C13.8965 14.4694 13.6032 14.6614 13.2619 14.8C12.9205 14.9334 12.5445 15 12.1339 15H9.78986ZM11.1499 14.072L10.9659 13.8H12.0939C12.3179 13.8 12.5179 13.7627 12.6939 13.688C12.8699 13.608 13.0192 13.4987 13.1419 13.36C13.2699 13.2214 13.3685 13.0534 13.4379 12.856C13.5072 12.6587 13.5419 12.44 13.5419 12.2C13.5419 11.96 13.5072 11.7414 13.4379 11.544C13.3685 11.3467 13.2699 11.1787 13.1419 11.04C13.0192 10.9014 12.8699 10.7947 12.6939 10.72C12.5179 10.64 12.3179 10.6 12.0939 10.6H10.9419L11.1499 10.344V14.072Z" fill="white"/>
<path d="M15.6496 15V9.40002H17.0096V15H15.6496ZM16.2816 12.856V11.72H19.1776V12.856H16.2816ZM16.2816 10.6V9.40002H19.5056V10.6H16.2816Z" fill="white"/>
</g>
<defs>
<clipPath id="clip0_2828_13970">
<rect width="24" height="24" fill="white"/>
</clipPath>
</defs>
</svg>
