<svg width="24" height="24" viewBox="0 0 24 24" fill="none" xmlns="http://www.w3.org/2000/svg">
<g clip-path="url(#clip0_2156_25577)">
<path d="M22.2047 0.193884C23.1328 0.00825442 24 0.718134 24 1.66454V7.83282H23.9906C23.9953 7.93595 24 8.00157 24 8.02032C24 9.40782 22.6547 10.4578 21 10.4578C19.3453 10.4578 18 9.40782 18 8.02032C18 6.7172 19.3453 5.58282 21 5.58282C21.5484 5.58282 22.0594 5.7422 22.5 5.91095V1.66501L16.5 2.86501V9.33282H16.4906C16.4953 9.43595 16.5 9.50157 16.5 9.52032C16.5 10.9078 15.1547 11.9578 13.5 11.9578C11.8453 11.9578 10.5 10.9078 10.5 9.52032C10.5 8.2172 11.8453 7.08282 13.5 7.08282C14.0484 7.08282 14.5594 7.2422 15 7.41095V2.86501C15 2.1497 15.5063 1.53423 16.2047 1.39407L22.2047 0.193884ZM22.1766 7.5047C21.9141 7.29376 21.5063 7.08282 21 7.08282C20.4937 7.08282 20.0859 7.29376 19.8234 7.5047C19.5703 7.71095 19.5 7.9172 19.5 8.02032C19.5 8.20782 19.5703 8.41407 19.8234 8.62032C20.0859 8.83126 20.4937 8.95782 21 8.95782C21.5063 8.95782 21.9141 8.83126 22.1766 8.62032C22.4297 8.41407 22.5 8.20782 22.5 8.02032C22.5 7.9172 22.4297 7.71095 22.1766 7.5047ZM14.6766 9.0047C14.4141 8.79376 14.0063 8.58282 13.5 8.58282C12.9937 8.58282 12.5859 8.79376 12.3234 9.0047C12.0703 9.21095 12 9.4172 12 9.52032C12 9.70782 12.0703 9.91407 12.3234 10.1203C12.5859 10.3313 12.9937 10.4578 13.5 10.4578C14.0063 10.4578 14.4141 10.3313 14.6766 10.1203C14.9297 9.91407 15 9.70782 15 9.52032C15 9.4172 14.9297 9.21095 14.6766 9.0047ZM2.79938 0.283462C3.86625 0.105618 4.95469 0.453853 5.67656 1.21829L6 1.50001L6.23906 1.21923C7.04531 0.454087 8.13281 0.105572 9.20156 0.283462C10.8141 0.552665 12 1.95048 12 3.58782V3.72423C12 4.69688 11.5969 5.62501 10.8844 6.29063L6.64688 10.2422C6.47344 10.4063 6.23906 10.5 6 10.5C5.76094 10.5 5.52656 10.4063 5.35312 10.2422L1.11516 6.29063C0.403922 5.62501 0 4.69688 0 3.72423V3.58829C0 1.95048 1.18406 0.552665 2.79938 0.283462ZM4.65844 2.27954C4.23609 1.8572 3.63516 1.66501 3.04594 1.76298C2.15391 1.91157 1.5 2.6836 1.5 3.58782V3.72423C1.5 4.28157 1.73156 4.81407 2.13891 5.19376L6 8.79845L9.8625 5.19376C10.2703 4.81407 10.5 4.28157 10.5 3.72423V3.58782C10.5 2.6836 9.84844 1.91157 8.95312 1.76298C8.3625 1.66501 7.7625 1.8572 7.34063 2.27954L6 3.62157L4.65844 2.27954ZM9.75 18.375C9.75 20.0297 8.40469 21.375 6.75 21.375C5.09531 21.375 3.75 20.0297 3.75 18.375C3.75 16.7203 5.09531 15.375 6.75 15.375C8.40469 15.375 9.75 16.7203 9.75 18.375ZM6.75 19.875C7.57969 19.875 8.25 19.2047 8.25 18.375C8.25 17.5453 7.57969 16.875 6.75 16.875C5.92031 16.875 5.25 17.5453 5.25 18.375C5.25 19.2047 5.92031 19.875 6.75 19.875ZM9.7875 12.8297L10.125 13.5H11.25C12.4922 13.5 13.5 14.5078 13.5 15.75V21.75C13.5 22.9922 12.4922 24 11.25 24H2.25C1.00734 24 0 22.9922 0 21.75V15.75C0 14.5078 1.00734 13.5 2.25 13.5H3.33281L3.71063 12.8297C3.96469 12.3188 4.48406 11.9578 5.05313 11.9578H8.44687C9.01406 11.9578 9.53438 12.3188 9.7875 12.8297ZM2.25 15C1.83562 15 1.5 15.3375 1.5 15.75V21.75C1.5 22.1625 1.83562 22.5 2.25 22.5H11.25C11.6625 22.5 12 22.1625 12 21.75V15.75C12 15.3375 11.6625 15 11.25 15H9.19687L8.44687 13.4578H5.05313L4.30219 15H2.25ZM18.3094 17.25H22.5C22.8047 17.25 23.0766 17.4328 23.1937 17.7141C23.3109 17.9953 23.2453 18.3141 23.0297 18.5297L17.7797 23.7797C17.4891 24.075 17.0109 24.075 16.7203 23.7797C16.425 23.4891 16.425 23.0109 16.7203 22.7203L20.6906 18.75H16.5C16.1953 18.75 15.9234 18.5672 15.8063 18.2859C15.6891 18.0047 15.7547 17.6859 15.9703 17.4703L21.2203 12.2203C21.5109 11.925 21.9891 11.925 22.2797 12.2203C22.575 12.5109 22.575 12.9891 22.2797 13.2797L18.3094 17.25Z" fill="#191B1F"/>
</g>
<defs>
<clipPath id="clip0_2156_25577">
<rect width="24" height="24" fill="white"/>
</clipPath>
</defs>
</svg>
