<svg width="24" height="24" viewBox="0 0 24 24" fill="none" xmlns="http://www.w3.org/2000/svg">
<g clip-path="url(#clip0_3331_299)">
<path d="M0 4C0 1.79086 1.79086 0 4 0H20C22.2091 0 24 1.79086 24 4V20C24 22.2091 22.2091 24 20 24H4C1.79086 24 0 22.2091 0 20V4Z" fill="#007D00"/>
<path d="M9 15L7.264 12.488L5.04 9.39997H6.696L8.392 11.88L10.656 15H9ZM5 15L7.136 11.952L8.232 12.584L6.576 15H5ZM8.52 12.4L7.432 11.792L9 9.39997H10.576L8.52 12.4Z" fill="white"/>
<path d="M11.0326 15V9.39997H12.3926V13.8H14.8886V15H11.0326Z" fill="white"/>
<path d="M17.4436 15.08C17.0756 15.08 16.7423 15.0373 16.4436 14.952C16.1503 14.8613 15.889 14.7333 15.6596 14.568C15.4303 14.3973 15.225 14.1973 15.0436 13.968L15.8676 13.032C16.1343 13.3893 16.401 13.6293 16.6676 13.752C16.9396 13.8746 17.2196 13.936 17.5076 13.936C17.6516 13.936 17.7823 13.9173 17.8996 13.88C18.017 13.8426 18.1076 13.7893 18.1716 13.72C18.2356 13.6453 18.2676 13.5546 18.2676 13.448C18.2676 13.368 18.2463 13.296 18.2036 13.232C18.1663 13.168 18.113 13.112 18.0436 13.064C17.9743 13.016 17.8916 12.9733 17.7956 12.936C17.6996 12.8933 17.5983 12.8586 17.4916 12.832C17.385 12.8 17.2756 12.7733 17.1636 12.752C16.8543 12.6826 16.585 12.5973 16.3556 12.496C16.1263 12.3946 15.9343 12.272 15.7796 12.128C15.6303 11.9786 15.5183 11.8106 15.4436 11.624C15.369 11.432 15.3316 11.2186 15.3316 10.984C15.3316 10.7333 15.3876 10.504 15.4996 10.296C15.617 10.0826 15.7716 9.90131 15.9636 9.75197C16.161 9.59731 16.3876 9.47997 16.6436 9.39997C16.8996 9.31464 17.1663 9.27197 17.4436 9.27197C17.8116 9.27197 18.1263 9.31197 18.3876 9.39197C18.6543 9.46664 18.881 9.57597 19.0676 9.71997C19.2596 9.86397 19.4223 10.0373 19.5556 10.24L18.7156 11.048C18.6036 10.9093 18.481 10.7946 18.3476 10.704C18.2196 10.6133 18.081 10.544 17.9316 10.496C17.7876 10.448 17.6383 10.424 17.4836 10.424C17.3236 10.424 17.185 10.4453 17.0676 10.488C16.9556 10.5253 16.8676 10.5813 16.8036 10.656C16.7396 10.7253 16.7076 10.8106 16.7076 10.912C16.7076 11.0026 16.7343 11.08 16.7876 11.144C16.841 11.208 16.913 11.2666 17.0036 11.32C17.0943 11.368 17.1983 11.4106 17.3156 11.448C17.433 11.48 17.5556 11.5066 17.6836 11.528C17.977 11.5866 18.241 11.664 18.4756 11.76C18.7156 11.856 18.921 11.9733 19.0916 12.112C19.2676 12.2506 19.401 12.416 19.4916 12.608C19.5876 12.7946 19.6356 13.0133 19.6356 13.264C19.6356 13.6533 19.5396 13.984 19.3476 14.256C19.161 14.5226 18.9023 14.728 18.5716 14.872C18.2463 15.0106 17.8703 15.08 17.4436 15.08Z" fill="white"/>
</g>
<defs>
<clipPath id="clip0_3331_299">
<rect width="24" height="24" fill="white"/>
</clipPath>
</defs>
</svg>
