<svg width="24" height="24" viewBox="0 0 24 24" fill="none" xmlns="http://www.w3.org/2000/svg">
<path d="M13.3333 2.33333H10.6667V5H13.3333V2.33333ZM10.6667 1H13.3333C14.0708 1 14.6667 1.59583 14.6667 2.33333V5C14.6667 5.7375 14.0708 6.33333 13.3333 6.33333H10.6667C9.92917 6.33333 9.33333 5.7375 9.33333 5V2.33333C9.33333 1.59583 9.92917 1 10.6667 1ZM13.3333 11.6667C13.3333 11.313 13.1929 10.9739 12.9428 10.7239C12.6928 10.4738 12.3536 10.3333 12 10.3333C11.6464 10.3333 11.3072 10.4738 11.0572 10.7239C10.8071 10.9739 10.6667 11.313 10.6667 11.6667C10.6667 12.0203 10.8071 12.3594 11.0572 12.6095C11.3072 12.8595 11.6464 13 12 13C12.3536 13 12.6928 12.8595 12.9428 12.6095C13.1929 12.3594 13.3333 12.0203 13.3333 11.6667ZM9.33333 11.6667C9.33333 10.9594 9.61429 10.2811 10.1144 9.78105C10.6145 9.28095 11.2928 9 12 9C12.7072 9 13.3855 9.28095 13.8856 9.78105C14.3857 10.2811 14.6667 10.9594 14.6667 11.6667C14.6667 12.3739 14.3857 13.0522 13.8856 13.5523C13.3855 14.0524 12.7072 14.3333 12 14.3333C11.2928 14.3333 10.6145 14.0524 10.1144 13.5523C9.61429 13.0522 9.33333 12.3739 9.33333 11.6667ZM8.66667 19C8.66667 19.3667 8.36667 19.6667 8 19.6667C7.63333 19.6667 7.33333 19.3667 7.33333 19C7.33333 17.1583 8.825 15.6667 10.6667 15.6667H13.3333C15.175 15.6667 16.6667 17.1583 16.6667 19C16.6667 19.3667 16.3667 19.6667 16 19.6667C15.6333 19.6667 15.3333 19.3667 15.3333 19C15.3333 17.8958 14.4375 17 13.3333 17H10.6667C9.5625 17 8.66667 17.8958 8.66667 19ZM2.66667 3.66667H8V5H2.66667C1.92917 5 1.33333 5.59583 1.33333 6.33333V19.6667C1.33333 20.4042 1.92917 21 2.66667 21H21.3333C22.0708 21 22.6667 20.4042 22.6667 19.6667V6.33333C22.6667 5.59583 22.0708 5 21.3333 5H16V3.66667H21.3333C22.8042 3.66667 24 4.8625 24 6.33333V19.6667C24 21.1375 22.8042 22.3333 21.3333 22.3333H2.66667C1.19583 22.3333 0 21.1375 0 19.6667V6.33333C0 4.8625 1.19583 3.66667 2.66667 3.66667Z" fill="#191B1F"/>
</svg>
