<svg width="24" height="24" viewBox="0 0 24 24" fill="none" xmlns="http://www.w3.org/2000/svg">
<path d="M3 3C2.17031 3 1.5 3.67031 1.5 4.5V15.4406L4.67344 12.2672C5.40469 11.5359 6.59063 11.5359 7.32656 12.2672L10.5 15.4406L16.6734 9.26719C17.4047 8.53594 18.5906 8.53594 19.3266 9.26719L22.5 12.4406V4.5C22.5 3.67031 21.8297 3 21 3H3ZM1.5 17.5594V19.5C1.5 20.3297 2.17031 21 3 21H4.94063L9.44062 16.5L6.26719 13.3266C6.12187 13.1812 5.88281 13.1812 5.7375 13.3266L1.5 17.5594ZM18.2672 10.3266C18.1219 10.1813 17.8828 10.1813 17.7375 10.3266L7.05938 21H21C21.8297 21 22.5 20.3297 22.5 19.5V14.5594L18.2672 10.3266ZM0 4.5C0 2.84531 1.34531 1.5 3 1.5H21C22.6547 1.5 24 2.84531 24 4.5V19.5C24 21.1547 22.6547 22.5 21 22.5H3C1.34531 22.5 0 21.1547 0 19.5V4.5ZM7.5 6.75C7.5 6.55109 7.42098 6.36032 7.28033 6.21967C7.13968 6.07902 6.94891 6 6.75 6C6.55109 6 6.36032 6.07902 6.21967 6.21967C6.07902 6.36032 6 6.55109 6 6.75C6 6.94891 6.07902 7.13968 6.21967 7.28033C6.36032 7.42098 6.55109 7.5 6.75 7.5C6.94891 7.5 7.13968 7.42098 7.28033 7.28033C7.42098 7.13968 7.5 6.94891 7.5 6.75ZM4.5 6.75C4.5 6.15326 4.73705 5.58097 5.15901 5.15901C5.58097 4.73705 6.15326 4.5 6.75 4.5C7.34674 4.5 7.91903 4.73705 8.34099 5.15901C8.76295 5.58097 9 6.15326 9 6.75C9 7.34674 8.76295 7.91903 8.34099 8.34099C7.91903 8.76295 7.34674 9 6.75 9C6.15326 9 5.58097 8.76295 5.15901 8.34099C4.73705 7.91903 4.5 7.34674 4.5 6.75Z" fill="#191B1F"/>
</svg>
