<svg width="25" height="24" viewBox="0 0 25 24" fill="none" xmlns="http://www.w3.org/2000/svg">
<g clip-path="url(#clip0_2285_7789)">
<path d="M21.7797 20.4703C22.075 20.7609 22.075 21.2391 21.7797 21.5297C21.4891 21.825 21.0109 21.825 20.7203 21.5297L20.1906 20.9578C18.0719 22.8656 15.2922 24 12.25 24C9.20781 24 6.42813 22.8656 4.31172 20.9578L3.78016 21.5297C3.48766 21.825 3.01234 21.825 2.71984 21.5297C2.42687 21.2391 2.42687 20.7609 2.71984 20.4703L3.25094 19.9406C1.38344 17.8219 0.25 15.0422 0.25 12C0.25 8.95781 1.38344 6.17813 3.25094 4.06172L2.71984 3.53016C2.42687 3.23766 2.42687 2.76234 2.71984 2.46984C3.01234 2.17687 3.48719 2.17687 3.78016 2.46984L4.31172 3.00094C6.42813 1.13344 9.20781 0 12.25 0C15.2922 0 18.0719 1.13344 20.1906 3.00094L20.7203 2.46984C21.0109 2.17687 21.4891 2.17687 21.7797 2.46984C22.075 2.76234 22.075 3.23719 21.7797 3.53016L21.2078 4.06172C23.1156 6.17813 24.25 8.95781 24.25 12C24.25 15.0422 23.1156 17.8219 21.2078 19.9406L21.7797 20.4703ZM14.8563 15.6703C14.1203 16.1906 13.2203 16.5 12.25 16.5C11.2797 16.5 10.3797 16.1906 9.64375 15.6703L5.37344 19.9359C7.21563 21.5344 9.62031 22.5 12.25 22.5C14.8797 22.5 17.2844 21.5344 19.1266 19.9359L14.8563 15.6703ZM22.75 12C22.75 9.37031 21.7844 6.96563 20.1859 5.12344L15.9203 9.39375C16.4406 10.1297 16.75 11.0297 16.75 12C16.75 12.9703 16.4406 13.8703 15.9203 14.6063L20.1859 18.8766C21.7844 17.0344 22.75 14.6297 22.75 12ZM12.25 1.5C9.62031 1.5 7.21563 2.46656 5.37344 4.06406L9.64375 8.32969C10.3797 7.80937 11.2797 7.45781 12.25 7.45781C13.2203 7.45781 14.1203 7.80937 14.8563 8.32969L19.1266 4.06406C17.2844 2.46656 14.8797 1.5 12.25 1.5ZM8.57969 14.6063C8.05937 13.8703 7.75 12.9703 7.75 12C7.75 11.0297 8.05937 10.1297 8.57969 9.39375L4.31406 5.12344C2.71656 6.96563 1.75 9.37031 1.75 12C1.75 14.6297 2.71656 17.0344 4.31406 18.8766L8.57969 14.6063ZM12.25 9C10.5953 9 9.25 10.3453 9.25 12C9.25 13.6547 10.5953 15 12.25 15C13.9047 15 15.25 13.6547 15.25 12C15.25 10.3453 13.9047 9 12.25 9Z" fill="#191B1F"/>
</g>
<defs>
<clipPath id="clip0_2285_7789">
<rect width="24" height="24" fill="white" transform="translate(0.25)"/>
</clipPath>
</defs>
</svg>
