<svg width="24" height="24" viewBox="0 0 24 24" fill="none" xmlns="http://www.w3.org/2000/svg">
<path d="M2.07 2.06875C1.77375 1.91252 1.41375 2.04141 1.26375 2.34997C1.11375 2.65853 1.2375 3.03348 1.53375 3.18971L3.93375 4.43957C4.23 4.5958 4.59 4.46691 4.74 4.15835C4.89 3.84979 4.76625 3.47484 4.47 3.3186L2.07 2.06875ZM22.47 3.18581C22.7663 3.02958 22.8863 2.65462 22.74 2.34606C22.5938 2.0375 22.23 1.91252 21.9338 2.06485L19.5338 3.3147C19.2375 3.47093 19.1175 3.84589 19.2638 4.15444C19.41 4.463 19.7738 4.58799 20.07 4.43566L22.47 3.18581ZM0.6 8.25162C0.27 8.25162 0 8.53283 0 8.87654C0 9.22025 0.27 9.50147 0.6 9.50147H3C3.33 9.50147 3.6 9.22025 3.6 8.87654C3.6 8.53283 3.33 8.25162 3 8.25162H0.6ZM21 8.25162C20.67 8.25162 20.4 8.53283 20.4 8.87654C20.4 9.22025 20.67 9.50147 21 9.50147H23.4C23.73 9.50147 24 9.22025 24 8.87654C24 8.53283 23.73 8.25162 23.4 8.25162H21ZM4.47 14.4345C4.76625 14.2783 4.88625 13.9033 4.74 13.5947C4.59375 13.2862 4.23 13.1612 3.93375 13.3135L1.53375 14.5634C1.2375 14.7196 1.1175 15.0946 1.26375 15.4031C1.41 15.7117 1.77375 15.8367 2.07 15.6843L4.47 14.4345ZM20.07 13.3174C19.7738 13.1612 19.4138 13.2901 19.2638 13.5986C19.1138 13.9072 19.2375 14.2822 19.5338 14.4384L21.9338 15.6882C22.23 15.8445 22.59 15.7156 22.74 15.407C22.89 15.0985 22.7663 14.7235 22.47 14.5673L20.07 13.3174ZM17.4 8.87654C17.4 10.0717 17.0438 11.1731 16.4363 12.0832C16.2825 12.3136 16.11 12.5636 15.9263 12.8253C15.45 13.5088 14.91 14.2783 14.5013 15.0555C14.1675 15.6882 13.9875 16.3561 13.8938 17.0045H15.1125C15.195 16.5358 15.3337 16.0788 15.555 15.657C15.9263 14.954 16.3875 14.2939 16.8488 13.6338C17.0438 13.3565 17.2388 13.0792 17.4263 12.798C18.1688 11.6848 18.6038 10.3373 18.6038 8.88045C18.6 5.08012 15.645 2.00235 12 2.00235C8.355 2.00235 5.4 5.08012 5.4 8.87654C5.4 10.3334 5.835 11.6848 6.5775 12.7941C6.765 13.0753 6.96 13.3526 7.155 13.6299C7.61625 14.2861 8.0775 14.9461 8.44875 15.6531C8.67 16.0749 8.80875 16.5319 8.89125 17.0006H10.1063C10.0125 16.3522 9.8325 15.6843 9.49875 15.0516C9.09 14.2704 8.55 13.501 8.07375 12.8214C7.89 12.5597 7.7175 12.3136 7.56375 12.0793C6.95625 11.1731 6.6 10.0717 6.6 8.87654C6.6 5.77144 9.01875 3.25221 12 3.25221C14.9813 3.25221 17.4 5.77144 17.4 8.87654ZM9 8.87654C9 7.15018 10.3425 5.75191 12 5.75191C12.33 5.75191 12.6 5.47069 12.6 5.12698C12.6 4.78328 12.33 4.50206 12 4.50206C9.67875 4.50206 7.8 6.45886 7.8 8.87654C7.8 9.22025 8.07 9.50147 8.4 9.50147C8.73 9.50147 9 9.22025 9 8.87654ZM12 20.7501C11.2163 20.7501 10.5488 20.2268 10.3013 19.5003H13.695C13.4475 20.2268 12.78 20.7501 11.9963 20.7501H12ZM9 18.6684V18.8754C9 20.6017 10.3425 22 12 22C13.6575 22 15 20.6017 15 18.8754V18.6684C15 18.4379 14.82 18.2504 14.5988 18.2504H9.40125C9.18 18.2504 9 18.4379 9 18.6684Z" fill="#191B1F"/>
</svg>
