<svg width="24" height="24" viewBox="0 0 24 24" fill="none" xmlns="http://www.w3.org/2000/svg">
<path d="M16.4961 12.082C17.1289 11.1719 17.5 10.0703 17.5 8.875C17.5 5.76953 14.9805 3.25 11.875 3.25C8.76953 3.25 6.25 5.76953 6.25 8.875C6.25 10.0703 6.62109 11.1719 7.25391 12.082C7.41406 12.3125 7.59766 12.5625 7.78516 12.8242C8.28125 13.5078 8.84375 14.2773 9.26953 15.0547C9.61719 15.6875 9.80469 16.3555 9.90234 17.0039H8.63281C8.54688 16.5352 8.40234 16.0781 8.17188 15.6562C7.78516 14.9531 7.30469 14.293 6.82422 13.6328C6.62109 13.3555 6.41797 13.0781 6.22266 12.7969C5.45312 11.6836 5 10.332 5 8.875C5 5.07812 8.07812 2 11.875 2C15.6719 2 18.75 5.07812 18.75 8.875C18.75 10.332 18.2969 11.6836 17.5234 12.793C17.3281 13.0742 17.125 13.3516 16.9219 13.6289C16.4414 14.2852 15.9609 14.9453 15.5742 15.6523C15.3438 16.0742 15.1992 16.5312 15.1133 17H13.8477C13.9453 16.3516 14.1328 15.6836 14.4805 15.0508C14.9062 14.2695 15.4688 13.5 15.9648 12.8203C16.1563 12.5586 16.3359 12.3125 16.4961 12.0781V12.082ZM11.875 5.75C10.1484 5.75 8.75 7.14844 8.75 8.875C8.75 9.21875 8.46875 9.5 8.125 9.5C7.78125 9.5 7.5 9.21875 7.5 8.875C7.5 6.45703 9.45703 4.5 11.875 4.5C12.2188 4.5 12.5 4.78125 12.5 5.125C12.5 5.46875 12.2188 5.75 11.875 5.75ZM10.1055 19.5C10.3633 20.2266 11.0586 20.75 11.875 20.75C12.6914 20.75 13.3867 20.2266 13.6445 19.5H10.1055ZM8.75 18.875V18.668C8.75 18.4375 8.9375 18.25 9.16797 18.25H14.582C14.8125 18.25 15 18.4375 15 18.668V18.875C15 20.6016 13.6016 22 11.875 22C10.1484 22 8.75 20.6016 8.75 18.875Z" fill="#191B1F"/>
</svg>
