<svg width="24" height="24" viewBox="0 0 24 24" fill="none" xmlns="http://www.w3.org/2000/svg">
<path d="M22.1813 11.6C24.0563 9.725 24.0563 6.6875 22.1813 4.8125C20.3063 2.9375 17.2688 2.9375 15.3938 4.8125L14.5463 5.66C14.3138 5.8925 14.3138 6.275 14.5463 6.5075C14.7788 6.74 15.1613 6.74 15.3938 6.5075L16.2413 5.66C17.6476 4.25375 19.9276 4.25375 21.3338 5.66C22.7401 7.06625 22.7401 9.34625 21.3338 10.7525L16.6613 15.4213C15.2588 16.8238 12.9826 16.8238 11.5763 15.4213C10.2413 14.0863 10.1663 11.9488 11.4001 10.5238L11.5988 10.295C11.8163 10.0438 11.7901 9.665 11.5388 9.4475C11.2876 9.23 10.9088 9.25625 10.6913 9.5075L10.4926 9.73625C8.84635 11.6375 8.9476 14.4875 10.7251 16.265C12.5963 18.1363 15.6338 18.1363 17.5051 16.265L22.1813 11.6ZM1.81885 11.6C-0.0561523 13.475 -0.0561523 16.5125 1.81885 18.3875C3.69385 20.2625 6.73135 20.2625 8.60635 18.3875L9.45385 17.54C9.68635 17.3075 9.68635 16.925 9.45385 16.6925C9.22135 16.46 8.83885 16.46 8.60635 16.6925L7.75885 17.54C6.3526 18.9462 4.0726 18.9462 2.66635 17.54C1.2601 16.1337 1.2601 13.8538 2.66635 12.4475L7.33885 7.77875C8.74135 6.37625 11.0176 6.37625 12.4238 7.77875C13.7588 9.11375 13.8338 11.2513 12.6001 12.6763L12.4013 12.905C12.1838 13.1562 12.2101 13.535 12.4613 13.7525C12.7126 13.97 13.0913 13.9438 13.3088 13.6925L13.5076 13.4638C15.1538 11.5625 15.0526 8.7125 13.2751 6.935C11.3963 5.05625 8.3626 5.05625 6.4876 6.9275L1.81885 11.6Z" fill="#191B1F"/>
</svg>
