<svg width="24" height="24" viewBox="0 0 24 24" fill="none" xmlns="http://www.w3.org/2000/svg">
<path d="M7 6V9H16V6C16 3.51562 13.9844 1.5 11.5 1.5C9.01562 1.5 7 3.51562 7 6ZM5.5 9V6C5.5 2.68594 8.18594 0 11.5 0C14.8141 0 17.5 2.68594 17.5 6V9H18.25C20.3219 9 22 10.6781 22 12.75V20.25C22 22.3219 20.3219 24 18.25 24H4.75C2.67812 24 1 22.3219 1 20.25V12.75C1 10.6781 2.67812 9 4.75 9H5.5ZM2.5 12.75V20.25C2.5 21.4922 3.50781 22.5 4.75 22.5H18.25C19.4922 22.5 20.5 21.4922 20.5 20.25V12.75C20.5 11.5078 19.4922 10.5 18.25 10.5H4.75C3.50781 10.5 2.5 11.5078 2.5 12.75Z" fill="#191B1F"/>
</svg>
