<svg width="24" height="24" viewBox="0 0 24 24" fill="none" xmlns="http://www.w3.org/2000/svg">
<path d="M14.6667 6.33333C14.6667 4.125 16.4583 2.33333 18.6667 2.33333C20.875 2.33333 22.6667 4.125 22.6667 6.33333V9.66667C22.6667 10.0333 22.9667 10.3333 23.3333 10.3333C23.7 10.3333 24 10.0333 24 9.66667V6.33333C24 3.3875 21.6125 1 18.6667 1C15.7208 1 13.3333 3.3875 13.3333 6.33333V9H3.33333C1.49167 9 0 10.4917 0 12.3333V19C0 20.8417 1.49167 22.3333 3.33333 22.3333H15.3333C17.175 22.3333 18.6667 20.8417 18.6667 19V12.3333C18.6667 10.4917 17.175 9 15.3333 9H14.6667V6.33333ZM14 10.3333H15.3333C16.4375 10.3333 17.3333 11.2292 17.3333 12.3333V19C17.3333 20.1042 16.4375 21 15.3333 21H3.33333C2.22917 21 1.33333 20.1042 1.33333 19V12.3333C1.33333 11.2292 2.22917 10.3333 3.33333 10.3333H14Z" fill="#191B1F"/>
</svg>
