<svg width="25" height="24" viewBox="0 0 25 24" fill="none" xmlns="http://www.w3.org/2000/svg">
<g clip-path="url(#clip0_2156_25608)">
<path d="M18.25 9.75C18.25 8.66659 18.0366 7.5938 17.622 6.59286C17.2074 5.59193 16.5997 4.68245 15.8336 3.91637C15.0675 3.15029 14.1581 2.5426 13.1571 2.12799C12.1562 1.71339 11.0834 1.5 10 1.5C8.91659 1.5 7.8438 1.71339 6.84286 2.12799C5.84193 2.5426 4.93245 3.15029 4.16637 3.91637C3.40029 4.68245 2.7926 5.59193 2.37799 6.59286C1.96339 7.5938 1.75 8.66659 1.75 9.75C1.75 10.8334 1.96339 11.9062 2.37799 12.9071C2.7926 13.9081 3.40029 14.8175 4.16637 15.5836C4.93245 16.3497 5.84193 16.9574 6.84286 17.372C7.8438 17.7866 8.91659 18 10 18C11.0834 18 12.1562 17.7866 13.1571 17.372C14.1581 16.9574 15.0675 16.3497 15.8336 15.5836C16.5997 14.8175 17.2074 13.9081 17.622 12.9071C18.0366 11.9062 18.25 10.8334 18.25 9.75ZM16.3422 17.1562C14.6406 18.6187 12.4234 19.5 10 19.5C4.61406 19.5 0.25 15.1359 0.25 9.75C0.25 4.36406 4.61406 0 10 0C15.3859 0 19.75 4.36406 19.75 9.75C19.75 12.1734 18.8687 14.3906 17.4062 16.0922L24.0297 22.7203C24.3203 23.0109 24.3203 23.4891 24.0297 23.7797C23.7391 24.0703 23.2609 24.0703 22.9703 23.7797L16.3422 17.1562Z" fill="#191B1F"/>
</g>
<defs>
<clipPath id="clip0_2156_25608">
<rect width="24" height="24" fill="white" transform="translate(0.25)"/>
</clipPath>
</defs>
</svg>
