<svg width="24" height="24" viewBox="0 0 24 24" fill="none" xmlns="http://www.w3.org/2000/svg">
<path d="M21.6 6.8H16.8V8H21.6C22.2615 8 22.8 8.5385 22.8 9.2V16.4C22.8 17.0615 22.2615 17.6 21.6 17.6H19.2V19.4589L15.915 17.6H12C11.3385 17.6 10.8 17.0615 10.8 16.4V15.2L9.6 15.1999V16.3991C9.6 17.721 10.6781 18.7654 11.9663 18.7654L15.6 18.8L19.6838 21.1111C19.7663 21.1737 19.86 21.2 19.95 21.2C20.1863 21.2 20.4 21.0163 20.4 20.75V18.7989H21.6C22.9219 18.7989 24 17.7207 24 16.4326V9.16625C24 7.87625 22.9237 6.8 21.6 6.8ZM15.6 11.6V4.36625C15.6 3.07812 14.5238 2 13.2 2H2.4C1.07812 2 0 3.07812 0 4.36625V11.5663C0 12.9238 1.07812 14 2.4 14L3.6 14.0004V15.95C3.6 16.2163 3.8175 16.4 4.05 16.4C4.13906 16.4 4.23281 16.3719 4.31719 16.3109L8.4 14L13.2 13.9972C14.5238 13.9963 15.6 12.9237 15.6 11.6ZM8.085 12.8L4.8 14.66V12.8H2.4C1.7385 12.8 1.2 12.26 1.2 11.6V4.4C1.2 3.7385 1.7385 3.2 2.4 3.2H13.2C13.8615 3.2 14.4 3.7385 14.4 4.4V11.6C14.4 12.2615 13.8615 12.8 13.2 12.8H8.085Z" fill="#191B1F"/>
</svg>
