<svg width="24" height="24" viewBox="0 0 24 24" fill="none" xmlns="http://www.w3.org/2000/svg">
<g clip-path="url(#clip0_3189_132)">
<path d="M9 0C8.17031 0 7.5 0.670312 7.5 1.5C6.67031 1.5 6 2.17031 6 3V13.5C6 14.3297 6.67031 15 7.5 15H12C12.8297 15 13.5 14.3297 13.5 13.5V7.5C17.6437 7.5 21 10.8562 21 15C21 19.1437 17.6437 22.5 13.5 22.5H9.75H0.75C0.3375 22.5 0 22.8375 0 23.25C0 23.6625 0.3375 24 0.75 24H9.75H13.5H23.25C23.6625 24 24 23.6625 24 23.25C24 22.8375 23.6625 22.5 23.25 22.5H18.4781C20.9016 20.8875 22.5 18.1313 22.5 15C22.5 10.0312 18.4688 6 13.5 6V3C13.5 2.17031 12.8297 1.5 12 1.5C12 0.670312 11.3297 0 10.5 0H9ZM9 1.5H10.5V2.25C10.5 2.6625 10.8375 3 11.25 3H12V13.5H7.5V3H8.25C8.6625 3 9 2.6625 9 2.25V1.5ZM7.5 17.25C7.5 17.6625 7.8375 18 8.25 18H11.25C11.6625 18 12 17.6625 12 17.25C12 16.8375 11.6625 16.5 11.25 16.5H8.25C7.8375 16.5 7.5 16.8375 7.5 17.25ZM4.5 20.25C4.5 20.6625 4.8375 21 5.25 21H14.25C14.6625 21 15 20.6625 15 20.25C15 19.8375 14.6625 19.5 14.25 19.5H5.25C4.8375 19.5 4.5 19.8375 4.5 20.25Z" fill="#191B1F"/>
</g>
<defs>
<clipPath id="clip0_3189_132">
<rect width="24" height="24" fill="white"/>
</clipPath>
</defs>
</svg>
