<svg width="24" height="24" viewBox="0 0 24 24" fill="none" xmlns="http://www.w3.org/2000/svg">
<g clip-path="url(#clip0_2156_25542)">
<path d="M18.1266 1.0608C19.2984 -0.110842 21.2016 -0.110842 22.3734 1.0608L22.9406 1.62845C24.1125 2.80033 24.1125 4.70158 22.9406 5.87345L12.6094 16.2C12.2156 16.5985 11.7141 16.8328 11.1656 17.0016L6.91875 17.9813C6.66563 18.0375 6.40312 17.9625 6.22031 17.7797C6.0375 17.5969 5.9625 17.3344 6.01875 17.0813L6.99844 12.8344C7.125 12.286 7.40156 11.7844 7.8 11.3485L18.1266 1.0608ZM21.3094 2.12158C20.7234 1.53564 19.7766 1.53564 19.1906 2.12158L17.9344 3.37502L20.625 6.06564L21.8766 4.80939C22.4625 4.22486 22.4625 3.27517 21.8766 2.68924L21.3094 2.12158ZM8.46094 13.1719L7.74844 16.2516L10.7859 15.5391C11.1 15.4781 11.3531 15.3375 11.55 15.0985L19.5656 7.12502L16.875 4.4358L8.85938 12.45C8.6625 12.6469 8.52188 12.9 8.46094 13.1719ZM9.75 3.00002C10.1625 3.00002 10.5 3.33564 10.5 3.75002C10.5 4.16439 10.1625 4.50002 9.75 4.50002H3.75C2.50734 4.50002 1.5 5.50783 1.5 6.75002V20.25C1.5 21.4922 2.50734 22.5 3.75 22.5H17.25C18.4922 22.5 19.5 21.4922 19.5 20.25V14.25C19.5 13.8375 19.8375 13.5 20.25 13.5C20.6625 13.5 21 13.8375 21 14.25V20.25C21 22.3219 19.3219 24 17.25 24H3.75C1.67906 24 0 22.3219 0 20.25V6.75002C0 4.67908 1.67906 3.00002 3.75 3.00002H9.75Z" fill="#191B1F"/>
</g>
<defs>
<clipPath id="clip0_2156_25542">
<rect width="24" height="24" fill="white"/>
</clipPath>
</defs>
</svg>
