<svg width="24" height="24" viewBox="0 0 24 24" fill="none" xmlns="http://www.w3.org/2000/svg">
<g clip-path="url(#clip0_3198_2792)">
<path d="M22.5 12C22.5 9.21523 21.3938 6.54451 19.4246 4.57538C17.4555 2.60625 14.7848 1.5 12 1.5C9.21523 1.5 6.54451 2.60625 4.57538 4.57538C2.60625 6.54451 1.5 9.21523 1.5 12C1.5 14.7848 2.60625 17.4555 4.57538 19.4246C6.54451 21.3938 9.21523 22.5 12 22.5C14.7848 22.5 17.4555 21.3938 19.4246 19.4246C21.3938 17.4555 22.5 14.7848 22.5 12ZM0 12C0 8.8174 1.26428 5.76516 3.51472 3.51472C5.76516 1.26428 8.8174 0 12 0C15.1826 0 18.2348 1.26428 20.4853 3.51472C22.7357 5.76516 24 8.8174 24 12C24 15.1826 22.7357 18.2348 20.4853 20.4853C18.2348 22.7357 15.1826 24 12 24C8.8174 24 5.76516 22.7357 3.51472 20.4853C1.26428 18.2348 0 15.1826 0 12ZM15.5391 7.65469C15.2484 7.36406 14.7703 7.36406 14.4797 7.65469L13.4766 8.65781L15.3516 10.5328L16.3547 9.52969C16.6453 9.23906 16.6453 8.76094 16.3547 8.47031L15.5391 7.65469ZM8.55469 13.5797C8.45625 13.6781 8.39062 13.7953 8.35781 13.9266L7.78125 16.2234L10.0781 15.6469C10.2094 15.6141 10.3312 15.5438 10.425 15.45L14.2828 11.5922L12.4078 9.71719L8.55 13.575L8.55469 13.5797ZM13.4203 6.59531C14.2969 5.71875 15.7219 5.71875 16.6031 6.59531L17.4188 7.41094C18.2953 8.2875 18.2953 9.7125 17.4188 10.5938L11.4891 16.5141C11.1984 16.8047 10.8375 17.0063 10.4438 17.1047L6.93281 17.9813C6.675 18.0469 6.40781 17.9719 6.22031 17.7844C6.03281 17.5969 5.95781 17.3297 6.02344 17.0719L6.9 13.5609C6.99844 13.1672 7.20469 12.8062 7.49063 12.5156L13.4156 6.59531H13.4203Z" fill="#191B1F"/>
</g>
<defs>
<clipPath id="clip0_3198_2792">
<rect width="24" height="24" fill="white"/>
</clipPath>
</defs>
</svg>
