<svg width="24" height="24" viewBox="0 0 24 24" fill="none" xmlns="http://www.w3.org/2000/svg">
<g clip-path="url(#clip0_2156_25540)">
<path d="M23.2031 2.79378C24.2297 3.81893 24.2297 5.47971 23.2031 6.50628L8.54532 21.1688C8.01094 21.6985 7.35469 22.0875 6.63282 22.3032L0.961882 23.9719C0.698444 24.0469 0.413772 23.9766 0.21971 23.7797C0.0256287 23.5875 -0.0469619 23.3016 0.0305037 23.0391L1.69829 17.3672C1.91063 16.6453 2.3011 15.9891 2.83313 15.4547L17.4938 0.795495C18.5203 -0.229521 20.1797 -0.229521 21.2063 0.795495L23.2031 2.79378ZM15.9844 4.42503L19.575 7.97346L22.1438 5.4469C22.5844 5.00628 22.5844 4.29378 22.1438 3.85456L20.1469 1.85628C19.7063 1.41706 18.9938 1.41706 18.5531 1.85628L15.9844 4.42503ZM14.925 5.4844L3.89391 16.5188C3.53907 16.8703 3.27891 17.311 3.13735 17.7938L1.85766 22.1438L6.20626 20.8641C6.68907 20.7235 7.12969 20.461 7.48126 20.1047L18.4734 9.07503L14.925 5.4844Z" fill="#191B1F"/>
</g>
<defs>
<clipPath id="clip0_2156_25540">
<rect width="24" height="24" fill="white"/>
</clipPath>
</defs>
</svg>
