<svg width="24" height="24" viewBox="0 0 24 24" fill="none" xmlns="http://www.w3.org/2000/svg">
<path d="M6 4.5C6.39782 4.5 6.77936 4.65804 7.06066 4.93934C7.34196 5.22064 7.5 5.60218 7.5 6C7.5 6.39782 7.34196 6.77936 7.06066 7.06066C6.77936 7.34196 6.39782 7.5 6 7.5C5.60218 7.5 5.22064 7.34196 4.93934 7.06066C4.65804 6.77936 4.5 6.39782 4.5 6C4.5 5.60218 4.65804 5.22064 4.93934 4.93934C5.22064 4.65804 5.60218 4.5 6 4.5ZM6 9C6.79565 9 7.55871 8.68393 8.12132 8.12132C8.68393 7.55871 9 6.79565 9 6C9 5.20435 8.68393 4.44129 8.12132 3.87868C7.55871 3.31607 6.79565 3 6 3C5.20435 3 4.44129 3.31607 3.87868 3.87868C3.31607 4.44129 3 5.20435 3 6C3 6.79565 3.31607 7.55871 3.87868 8.12132C4.44129 8.68393 5.20435 9 6 9ZM18 16.5C18.3978 16.5 18.7794 16.658 19.0607 16.9393C19.342 17.2206 19.5 17.6022 19.5 18C19.5 18.3978 19.342 18.7794 19.0607 19.0607C18.7794 19.342 18.3978 19.5 18 19.5C17.6022 19.5 17.2206 19.342 16.9393 19.0607C16.658 18.7794 16.5 18.3978 16.5 18C16.5 17.6022 16.658 17.2206 16.9393 16.9393C17.2206 16.658 17.6022 16.5 18 16.5ZM18 21C18.7956 21 19.5587 20.6839 20.1213 20.1213C20.6839 19.5587 21 18.7956 21 18C21 17.2044 20.6839 16.4413 20.1213 15.8787C19.5587 15.3161 18.7956 15 18 15C17.2044 15 16.4413 15.3161 15.8787 15.8787C15.3161 16.4413 15 17.2044 15 18C15 18.7956 15.3161 19.5587 15.8787 20.1213C16.4413 20.6839 17.2044 21 18 21ZM20.7797 4.27969C21.0703 3.98906 21.0703 3.51094 20.7797 3.22031C20.4891 2.92969 20.0109 2.92969 19.7203 3.22031L3.22031 19.7203C2.92969 20.0109 2.92969 20.4891 3.22031 20.7797C3.51094 21.0703 3.98906 21.0703 4.27969 20.7797L20.7797 4.27969Z" fill="#191B1F"/>
</svg>
