<svg width="24" height="24" viewBox="0 0 24 24" fill="none" xmlns="http://www.w3.org/2000/svg">
<g clip-path="url(#clip0_2926_385)">
<path d="M17.6156 12.9C16.8469 12.5719 15.9563 12.7875 15.4266 13.4344L13.8703 15.3375C11.7141 14.086 9.91406 12.286 8.6625 10.1297L10.5609 8.57815C11.2078 8.04846 11.4281 7.15784 11.0953 6.38908L8.84531 1.13908C8.49375 0.314085 7.60781 -0.14529 6.73125 0.0422095L1.48125 1.16721C0.61875 1.35002 0 2.11408 0 3.00002C0 14.0953 8.60156 23.1797 19.5 23.9485C19.7109 23.9625 19.9266 23.9766 20.1422 23.986C20.1422 23.986 20.1422 23.986 20.1469 23.986C20.4328 23.9953 20.7141 24.0047 21.0047 24.0047C21.8906 24.0047 22.6547 23.386 22.8375 22.5235L23.9625 17.2735C24.15 16.3969 23.6906 15.511 22.8656 15.1594L17.6156 12.9094V12.9ZM20.9859 22.5C10.2234 22.4906 1.5 13.7672 1.5 3.00002C1.5 2.8219 1.62187 2.6719 1.79531 2.6344L7.04531 1.5094C7.21875 1.4719 7.39688 1.56565 7.46719 1.72971L9.71719 6.97971C9.78281 7.1344 9.74063 7.31252 9.60938 7.41565L7.70625 8.9719C7.13906 9.43596 6.98906 10.2469 7.35938 10.8844C8.74219 13.2703 10.7297 15.2578 13.1109 16.636C13.7484 17.0063 14.5594 16.8563 15.0234 16.2891L16.5797 14.386C16.6875 14.2547 16.8656 14.2125 17.0156 14.2781L22.2656 16.5281C22.4297 16.5985 22.5234 16.7766 22.4859 16.95L21.3609 22.2C21.3234 22.3735 21.1687 22.4953 20.9953 22.4953C20.9906 22.4953 20.9859 22.4953 20.9813 22.4953L20.9859 22.5Z" fill="#191B1F"/>
</g>
<defs>
<clipPath id="clip0_2926_385">
<rect width="24" height="24" fill="white"/>
</clipPath>
</defs>
</svg>
