<svg width="24" height="24" viewBox="0 0 24 24" fill="none" xmlns="http://www.w3.org/2000/svg">
<path d="M20.4 3.2H3.6C2.93625 3.2 2.4 3.73625 2.4 4.4V10.6063C1.95375 10.7638 1.545 11.0075 1.2 11.3188V4.4C1.2 3.07625 2.27625 2 3.6 2H20.4C21.7238 2 22.8 3.07625 22.8 4.4V11.315C22.455 11.0037 22.0463 10.76 21.6 10.6025V4.4C21.6 3.73625 21.0638 3.2 20.4 3.2ZM3.6 15.2C3.91826 15.2 4.22348 15.0736 4.44853 14.8485C4.67357 14.6235 4.8 14.3183 4.8 14C4.8 13.6817 4.67357 13.3765 4.44853 13.1515C4.22348 12.9264 3.91826 12.8 3.6 12.8C3.28174 12.8 2.97652 12.9264 2.75147 13.1515C2.52643 13.3765 2.4 13.6817 2.4 14C2.4 14.3183 2.52643 14.6235 2.75147 14.8485C2.97652 15.0736 3.28174 15.2 3.6 15.2ZM3.6 11.6C4.23652 11.6 4.84697 11.8529 5.29706 12.3029C5.74714 12.753 6 13.3635 6 14C6 14.6365 5.74714 15.247 5.29706 15.6971C4.84697 16.1471 4.23652 16.4 3.6 16.4C2.96348 16.4 2.35303 16.1471 1.90294 15.6971C1.45286 15.247 1.2 14.6365 1.2 14C1.2 13.3635 1.45286 12.753 1.90294 12.3029C2.35303 11.8529 2.96348 11.6 3.6 11.6ZM12 15.2C12.3183 15.2 12.6235 15.0736 12.8485 14.8485C13.0736 14.6235 13.2 14.3183 13.2 14C13.2 13.6817 13.0736 13.3765 12.8485 13.1515C12.6235 12.9264 12.3183 12.8 12 12.8C11.6817 12.8 11.3765 12.9264 11.1515 13.1515C10.9264 13.3765 10.8 13.6817 10.8 14C10.8 14.3183 10.9264 14.6235 11.1515 14.8485C11.3765 15.0736 11.6817 15.2 12 15.2ZM12 11.6C12.6365 11.6 13.247 11.8529 13.6971 12.3029C14.1471 12.753 14.4 13.3635 14.4 14C14.4 14.6365 14.1471 15.247 13.6971 15.6971C13.247 16.1471 12.6365 16.4 12 16.4C11.3635 16.4 10.753 16.1471 10.3029 15.6971C9.85286 15.247 9.6 14.6365 9.6 14C9.6 13.3635 9.85286 12.753 10.3029 12.3029C10.753 11.8529 11.3635 11.6 12 11.6ZM21.6 14C21.6 13.6817 21.4736 13.3765 21.2485 13.1515C21.0235 12.9264 20.7183 12.8 20.4 12.8C20.0817 12.8 19.7765 12.9264 19.5515 13.1515C19.3264 13.3765 19.2 13.6817 19.2 14C19.2 14.3183 19.3264 14.6235 19.5515 14.8485C19.7765 15.0736 20.0817 15.2 20.4 15.2C20.7183 15.2 21.0235 15.0736 21.2485 14.8485C21.4736 14.6235 21.6 14.3183 21.6 14ZM18 14C18 13.3635 18.2529 12.753 18.7029 12.3029C19.153 11.8529 19.7635 11.6 20.4 11.6C21.0365 11.6 21.647 11.8529 22.0971 12.3029C22.5471 12.753 22.8 13.3635 22.8 14C22.8 14.6365 22.5471 15.247 22.0971 15.6971C21.647 16.1471 21.0365 16.4 20.4 16.4C19.7635 16.4 19.153 16.1471 18.7029 15.6971C18.2529 15.247 18 14.6365 18 14ZM1.2 20V20.6C1.2 20.93 0.93 21.2 0.6 21.2C0.27 21.2 0 20.93 0 20.6V20C0 18.6763 1.07625 17.6 2.4 17.6H4.8C6.12375 17.6 7.2 18.6763 7.2 20V20.6C7.2 20.93 6.93 21.2 6.6 21.2C6.27 21.2 6 20.93 6 20.6V20C6 19.3363 5.46375 18.8 4.8 18.8H2.4C1.73625 18.8 1.2 19.3363 1.2 20ZM10.8 18.8C10.1363 18.8 9.6 19.3363 9.6 20V20.6C9.6 20.93 9.33 21.2 9 21.2C8.67 21.2 8.4 20.93 8.4 20.6V20C8.4 18.6763 9.47625 17.6 10.8 17.6H13.2C14.5238 17.6 15.6 18.6763 15.6 20V20.6C15.6 20.93 15.33 21.2 15 21.2C14.67 21.2 14.4 20.93 14.4 20.6V20C14.4 19.3363 13.8638 18.8 13.2 18.8H10.8ZM18 20V20.6C18 20.93 17.73 21.2 17.4 21.2C17.07 21.2 16.8 20.93 16.8 20.6V20C16.8 18.6763 17.8763 17.6 19.2 17.6H21.6C22.9238 17.6 24 18.6763 24 20V20.6C24 20.93 23.73 21.2 23.4 21.2C23.07 21.2 22.8 20.93 22.8 20.6V20C22.8 19.3363 22.2638 18.8 21.6 18.8H19.2C18.5363 18.8 18 19.3363 18 20Z" fill="black"/>
</svg>
