<svg width="24" height="24" viewBox="0 0 24 24" fill="none" xmlns="http://www.w3.org/2000/svg">
<path d="M22 5.24999C22 7.32186 20.3219 8.99999 18.25 8.99999C17.1766 8.99999 16.2062 8.54999 15.5266 7.82811L8.44844 11.3672C8.48594 11.5734 8.5 11.7844 8.5 12C8.5 12.2156 8.48125 12.4266 8.44844 12.6328L15.5266 16.1719C16.2109 15.45 17.1766 15 18.25 15C20.3219 15 22 16.6781 22 18.75C22 20.8219 20.3219 22.5 18.25 22.5C16.1781 22.5 14.5 20.8219 14.5 18.75C14.5 18.2953 14.5797 17.8594 14.7297 17.4515L7.9 14.0391C7.22969 15.0703 6.07188 15.75 4.75 15.75C2.67812 15.75 1 14.0719 1 12C1 9.92811 2.67812 8.24999 4.75 8.24999C6.07188 8.24999 7.22969 8.92968 7.9 9.96093L14.7297 6.54374C14.5797 6.14061 14.5 5.70468 14.5 5.2453C14.5 3.17343 16.1781 1.4953 18.25 1.4953C20.3219 1.4953 22 3.17343 22 5.2453V5.24999ZM4.75 14.25C5.34674 14.25 5.91903 14.0129 6.34099 13.591C6.76295 13.169 7 12.5967 7 12C7 11.4033 6.76295 10.831 6.34099 10.409C5.91903 9.98704 5.34674 9.74999 4.75 9.74999C4.15326 9.74999 3.58097 9.98704 3.15901 10.409C2.73705 10.831 2.5 11.4033 2.5 12C2.5 12.5967 2.73705 13.169 3.15901 13.591C3.58097 14.0129 4.15326 14.25 4.75 14.25ZM20.5 5.24999C20.5 4.65325 20.2629 4.08095 19.841 3.659C19.419 3.23704 18.8467 2.99999 18.25 2.99999C17.6533 2.99999 17.081 3.23704 16.659 3.659C16.2371 4.08095 16 4.65325 16 5.24999C16 5.84672 16.2371 6.41902 16.659 6.84098C17.081 7.26294 17.6533 7.49999 18.25 7.49999C18.8467 7.49999 19.419 7.26294 19.841 6.84098C20.2629 6.41902 20.5 5.84672 20.5 5.24999ZM18.25 21C18.5455 21 18.8381 20.9418 19.111 20.8287C19.384 20.7156 19.6321 20.5499 19.841 20.341C20.0499 20.132 20.2157 19.884 20.3287 19.611C20.4418 19.338 20.5 19.0455 20.5 18.75C20.5 18.4545 20.4418 18.1619 20.3287 17.889C20.2157 17.616 20.0499 17.3679 19.841 17.159C19.6321 16.9501 19.384 16.7843 19.111 16.6713C18.8381 16.5582 18.5455 16.5 18.25 16.5C17.9545 16.5 17.6619 16.5582 17.389 16.6713C17.116 16.7843 16.8679 16.9501 16.659 17.159C16.4501 17.3679 16.2843 17.616 16.1713 17.889C16.0582 18.1619 16 18.4545 16 18.75C16 19.0455 16.0582 19.338 16.1713 19.611C16.2843 19.884 16.4501 20.132 16.659 20.341C16.8679 20.5499 17.116 20.7156 17.389 20.8287C17.6619 20.9418 17.9545 21 18.25 21Z" fill="#191B1F"/>
</svg>
