<svg width="24" height="24" viewBox="0 0 24 24" fill="none" xmlns="http://www.w3.org/2000/svg">
<g clip-path="url(#clip0_2968_5745)">
<path d="M11.4141 1.74846C11.7891 1.58909 12.211 1.58909 12.586 1.74846L20.8688 5.26409C21.3985 5.48909 21.7547 5.99065 21.75 6.55784C21.7266 10.9641 19.9031 18.736 12.586 22.2375C12.2156 22.4156 11.7797 22.4156 11.4094 22.2375C4.09221 18.7313 2.27346 10.9594 2.25002 6.55315C2.24533 5.98596 2.60158 5.4844 3.13127 5.2594L11.4141 1.74377V1.74846ZM13.1719 0.365649C12.4219 0.0468994 11.5781 0.0468994 10.8281 0.365649L2.54533 3.88127C1.51408 4.31721 0.745334 5.3344 0.750021 6.56252C0.773459 11.2125 2.68596 19.7203 10.7625 23.5875C11.5453 23.9625 12.4547 23.9625 13.2375 23.5875C21.3141 19.7203 23.2266 11.2125 23.25 6.56252C23.2547 5.3344 22.486 4.31721 21.4547 3.88127L13.1719 0.365649ZM17.0297 9.52971C17.3203 9.23909 17.3203 8.76096 17.0297 8.47034C16.7391 8.17971 16.261 8.17971 15.9703 8.47034L10.5 13.9406L8.02971 11.4703C7.73908 11.1797 7.26096 11.1797 6.97033 11.4703C6.67971 11.761 6.67971 12.2391 6.97033 12.5297L9.97033 15.5297C10.261 15.8203 10.7391 15.8203 11.0297 15.5297L17.0297 9.52971Z" fill="#191B1F"/>
</g>
<defs>
<clipPath id="clip0_2968_5745">
<rect width="24" height="24" fill="white"/>
</clipPath>
</defs>
</svg>
