<svg width="24" height="24" viewBox="0 0 24 24" fill="none" xmlns="http://www.w3.org/2000/svg">
<path d="M0 8.9675C0 8.7275 0.06 8.49125 0.17625 8.28125L3.09 2.9375C3.405 2.36 4.00875 2 4.66875 2H19.3313C19.9913 2 20.595 2.36 20.91 2.9375L23.8237 8.2775C23.94 8.4875 24 8.72375 24 8.96375C24 9.755 23.3588 10.3962 22.5675 10.3962H21.6V20.6C21.6 20.93 21.33 21.2 21 21.2C20.67 21.2 20.4 20.93 20.4 20.6V10.4H3.6V15.2H13.2V12.2V11.6H14.4V12.2V19.4C14.4 20.3938 13.5938 21.2 12.6 21.2H4.2C3.20625 21.2 2.4 20.3938 2.4 19.4V10.4H1.4325C0.64125 10.4 0 9.75875 0 8.9675ZM3 9.2H21H22.5675C22.695 9.2 22.8 9.095 22.8 8.9675C22.8 8.93 22.7888 8.88875 22.77 8.855L19.86 3.51125C19.755 3.32 19.5525 3.2 19.335 3.2H4.6725C4.45125 3.2 4.2525 3.32 4.1475 3.51125L1.23 8.855C1.21125 8.88875 1.2 8.92625 1.2 8.9675C1.2 9.095 1.305 9.2 1.4325 9.2H3ZM3.6 19.4C3.6 19.73 3.87 20 4.2 20H12.6C12.93 20 13.2 19.73 13.2 19.4V16.4H3.6V19.4Z" fill="#191B1F"/>
</svg>
