<svg width="24" height="24" viewBox="0 0 24 24" fill="none" xmlns="http://www.w3.org/2000/svg">
<path d="M6.06822 7.48214C7.56462 6.14286 9.55403 5.07143 11.9983 5.07143C14.4425 5.07143 16.4319 6.14286 17.9283 7.48214C19.4247 8.82143 20.4246 10.4286 20.8864 11.5C20.4246 12.5714 19.4247 14.1786 17.9283 15.5179C16.4319 16.8571 14.4425 17.9286 11.9983 17.9286C9.55403 17.9286 7.56462 16.8571 6.06822 15.5179C4.57183 14.1786 3.57191 12.5714 3.11015 11.5C3.57191 10.4286 4.57183 8.82143 6.06822 7.48214ZM11.9983 4C9.19295 4 6.94662 5.23214 5.31134 6.69866C3.68649 8.15179 2.59977 9.89286 2.08593 11.0882C1.97136 11.3527 1.97136 11.6473 2.08593 11.9118C2.59977 13.1071 3.68649 14.8482 5.31134 16.3013C6.94662 17.7679 9.19295 19 11.9983 19C14.8036 19 17.0499 17.7679 18.6852 16.3013C20.31 14.8449 21.3968 13.1071 21.9141 11.9118C22.0286 11.6473 22.0286 11.3527 21.9141 11.0882C21.3968 9.89286 20.31 8.15179 18.6852 6.69866C17.0499 5.23214 14.8036 4 11.9983 4ZM8.66522 11.5C8.66522 10.6475 9.01638 9.82995 9.64145 9.22716C10.2665 8.62436 11.1143 8.28571 11.9983 8.28571C12.8822 8.28571 13.73 8.62436 14.3551 9.22716C14.9802 9.82995 15.3313 10.6475 15.3313 11.5C15.3313 12.3525 14.9802 13.17 14.3551 13.7728C13.73 14.3756 12.8822 14.7143 11.9983 14.7143C11.1143 14.7143 10.2665 14.3756 9.64145 13.7728C9.01638 13.17 8.66522 12.3525 8.66522 11.5ZM16.4423 11.5C16.4423 10.3634 15.9741 9.27327 15.1407 8.46954C14.3073 7.66581 13.1769 7.21429 11.9983 7.21429C10.8196 7.21429 9.68926 7.66581 8.85584 8.46954C8.02242 9.27327 7.55421 10.3634 7.55421 11.5C7.55421 12.6366 8.02242 13.7267 8.85584 14.5305C9.68926 15.3342 10.8196 15.7857 11.9983 15.7857C13.1769 15.7857 14.3073 15.3342 15.1407 14.5305C15.9741 13.7267 16.4423 12.6366 16.4423 11.5Z" fill="#191B1F"/>
</svg>
