<svg width="24" height="24" viewBox="0 0 24 24" fill="none" xmlns="http://www.w3.org/2000/svg">
<path d="M17.7041 22.2125C18.0416 22.3917 18.4499 22.3667 18.7582 22.1417C19.0666 21.9167 19.2249 21.5375 19.1624 21.1625L18.0666 14.6833L22.6999 10.0917C22.9707 9.825 23.0624 9.42917 22.9457 9.07083C22.8291 8.7125 22.5166 8.45 22.1416 8.39167L15.7541 7.45L12.8957 1.5625C12.7291 1.21667 12.3791 1 11.9957 1C11.6124 1 11.2624 1.21667 11.0957 1.5625L8.23741 7.45L1.85408 8.39583C1.47908 8.45 1.16658 8.7125 1.04991 9.075C0.933248 9.4375 1.02908 9.82917 1.29575 10.0958L5.92491 14.6833L4.83325 21.1625C4.77075 21.5375 4.92491 21.9167 5.23741 22.1417C5.54991 22.3667 5.95825 22.3917 6.29158 22.2125L11.9999 19.1625L17.7082 22.2125H17.7041Z" fill="#191B1F"/>
</svg>
