<svg width="25" height="24" viewBox="0 0 25 24" fill="none" xmlns="http://www.w3.org/2000/svg">
<path d="M9 18.75C9 19.1625 8.6625 19.5 8.25 19.5C7.8375 19.5 7.5 19.1625 7.5 18.75V8.25C7.5 7.8375 7.8375 7.5 8.25 7.5C8.6625 7.5 9 7.8375 9 8.25V18.75ZM13.5 18.75C13.5 19.1625 13.1625 19.5 12.75 19.5C12.3375 19.5 12 19.1625 12 18.75V8.25C12 7.8375 12.3375 7.5 12.75 7.5C13.1625 7.5 13.5 7.8375 13.5 8.25V18.75ZM18 18.75C18 19.1625 17.6625 19.5 17.25 19.5C16.8375 19.5 16.5 19.1625 16.5 18.75V8.25C16.5 7.8375 16.8375 7.5 17.25 7.5C17.6625 7.5 18 7.8375 18 8.25V18.75ZM16.7859 1.0575L18.0422 3H22.5C22.9125 3 23.25 3.33562 23.25 3.75C23.25 4.16437 22.9125 4.5 22.5 4.5H21.75V20.25C21.75 22.3219 20.0719 24 18 24H7.5C5.42906 24 3.75 22.3219 3.75 20.25V4.5H3C2.58581 4.5 2.25 4.16437 2.25 3.75C2.25 3.33562 2.58581 3 3 3H7.45781L8.67188 1.0575C9.08437 0.399656 9.80625 0 10.5797 0H14.9203C15.6937 0 16.4156 0.399656 16.7859 1.0575ZM9.22969 3H16.2703L15.5531 1.8525C15.4172 1.63313 15.1781 1.5 14.9203 1.5H10.5797C10.3219 1.5 10.0828 1.63313 9.94687 1.8525L9.22969 3ZM5.25 20.25C5.25 21.4922 6.25734 22.5 7.5 22.5H18C19.2422 22.5 20.25 21.4922 20.25 20.25V4.5H5.25V20.25Z" fill="#191B1F"/>
</svg>
