<svg width="24" height="24" viewBox="0 0 24 24" fill="none" xmlns="http://www.w3.org/2000/svg">
<path d="M11.4156 1.5375C11.4391 1.51406 11.4672 1.5 11.5 1.5C11.5328 1.5 11.5656 1.51406 11.5844 1.5375L17.4156 7.72031C17.4719 7.77656 17.5 7.85625 17.5 7.93594C17.5 8.10938 17.3594 8.25 17.1859 8.25H14.5C14.0875 8.25 13.75 8.5875 13.75 9V14.625C13.75 14.8313 13.5813 15 13.375 15H9.625C9.41875 15 9.25 14.8313 9.25 14.625V9C9.25 8.5875 8.9125 8.25 8.5 8.25H5.81406C5.64062 8.25 5.5 8.10938 5.5 7.93594C5.5 7.85625 5.53281 7.78125 5.58438 7.72031L11.4156 1.5375ZM11.5 0C11.0547 0 10.6281 0.182813 10.3234 0.50625L4.49219 6.69375C4.17812 7.03125 4 7.47656 4 7.93594C4 8.93906 4.81094 9.75 5.81406 9.75H7.75V14.625C7.75 15.6609 8.58906 16.5 9.625 16.5H13.375C14.4109 16.5 15.25 15.6609 15.25 14.625V9.75H17.1859C18.1891 9.75 19 8.93906 19 7.93594C19 7.47188 18.8219 7.03125 18.5078 6.69375L12.6766 0.50625C12.3719 0.182813 11.9453 0 11.5 0ZM2.5 15.75C2.5 15.3375 2.1625 15 1.75 15C1.3375 15 1 15.3375 1 15.75V20.25C1 22.3219 2.67812 24 4.75 24H18.25C20.3219 24 22 22.3219 22 20.25V15.75C22 15.3375 21.6625 15 21.25 15C20.8375 15 20.5 15.3375 20.5 15.75V20.25C20.5 21.4922 19.4922 22.5 18.25 22.5H4.75C3.50781 22.5 2.5 21.4922 2.5 20.25V15.75Z" fill="#191B1F"/>
</svg>
