<svg width="24" height="24" viewBox="0 0 24 24" fill="none" xmlns="http://www.w3.org/2000/svg">
<g clip-path="url(#clip0_2156_25525)">
<path d="M11.625 0C5.20312 0 0 5.20312 0 11.625C0 18.0469 5.20312 23.25 11.625 23.25C18.0469 23.25 23.25 18.0469 23.25 11.625C23.25 5.20312 18.0469 0 11.625 0ZM17.625 19.7625C15.9422 21.0047 13.8703 21.75 11.625 21.75C9.37969 21.75 7.30781 21.0047 5.625 19.7625V19.125C5.625 17.4703 6.97031 16.125 8.625 16.125C9.14531 16.125 9.91406 16.6594 11.625 16.6594C13.3406 16.6594 14.1 16.125 14.625 16.125C16.2797 16.125 17.625 17.4703 17.625 19.125V19.7625ZM19.0594 18.4734C18.7406 16.2984 16.8891 14.625 14.625 14.625C13.6641 14.625 13.2 15.1594 11.625 15.1594C10.05 15.1594 9.59062 14.625 8.625 14.625C6.36094 14.625 4.50938 16.2984 4.19063 18.4734C2.52656 16.6688 1.5 14.2688 1.5 11.625C1.5 6.04219 6.04219 1.5 11.625 1.5C17.2078 1.5 21.75 6.04219 21.75 11.625C21.75 14.2688 20.7234 16.6688 19.0594 18.4734ZM11.625 5.25C9.34688 5.25 7.5 7.09688 7.5 9.375C7.5 11.6531 9.34688 13.5 11.625 13.5C13.9031 13.5 15.75 11.6531 15.75 9.375C15.75 7.09688 13.9031 5.25 11.625 5.25ZM11.625 12C10.1766 12 9 10.8234 9 9.375C9 7.92656 10.1766 6.75 11.625 6.75C13.0734 6.75 14.25 7.92656 14.25 9.375C14.25 10.8234 13.0734 12 11.625 12Z" fill="#191B1F"/>
</g>
<defs>
<clipPath id="clip0_2156_25525">
<rect width="23.25" height="24" fill="white"/>
</clipPath>
</defs>
</svg>
