<svg width="24" height="24" viewBox="0 0 24 24" fill="none" xmlns="http://www.w3.org/2000/svg">
<path d="M3.6 5C3.6 4.52261 3.78964 4.06477 4.12721 3.72721C4.46477 3.38964 4.92261 3.2 5.4 3.2C5.87739 3.2 6.33523 3.38964 6.67279 3.72721C7.01036 4.06477 7.2 4.52261 7.2 5C7.2 5.47739 7.01036 5.93523 6.67279 6.27279C6.33523 6.61036 5.87739 6.8 5.4 6.8C4.92261 6.8 4.46477 6.61036 4.12721 6.27279C3.78964 5.93523 3.6 5.47739 3.6 5ZM8.4 5C8.4 4.20435 8.08393 3.44129 7.52132 2.87868C6.95871 2.31607 6.19565 2 5.4 2C4.60435 2 3.84129 2.31607 3.27868 2.87868C2.71607 3.44129 2.4 4.20435 2.4 5C2.4 5.79565 2.71607 6.55871 3.27868 7.12132C3.84129 7.68393 4.60435 8 5.4 8C6.19565 8 6.95871 7.68393 7.52132 7.12132C8.08393 6.55871 8.4 5.79565 8.4 5ZM12 8C12.6365 8 13.247 8.25286 13.6971 8.70294C14.1471 9.15303 14.4 9.76348 14.4 10.4C14.4 11.0365 14.1471 11.647 13.6971 12.0971C13.247 12.5471 12.6365 12.8 12 12.8C11.3635 12.8 10.753 12.5471 10.3029 12.0971C9.85286 11.647 9.6 11.0365 9.6 10.4C9.6 9.76348 9.85286 9.15303 10.3029 8.70294C10.753 8.25286 11.3635 8 12 8ZM12 14C12.4728 14 12.9409 13.9069 13.3777 13.726C13.8144 13.5451 14.2113 13.2799 14.5456 12.9456C14.8799 12.6113 15.1451 12.2144 15.326 11.7777C15.5069 11.3409 15.6 10.8728 15.6 10.4C15.6 9.92724 15.5069 9.45911 15.326 9.02234C15.1451 8.58557 14.8799 8.18871 14.5456 7.85442C14.2113 7.52012 13.8144 7.25495 13.3777 7.07403C12.9409 6.89312 12.4728 6.8 12 6.8C11.5272 6.8 11.0591 6.89312 10.6223 7.07403C10.1856 7.25495 9.78871 7.52012 9.45442 7.85442C9.12012 8.18871 8.85495 8.58557 8.67403 9.02234C8.49312 9.45911 8.4 9.92724 8.4 10.4C8.4 10.8728 8.49312 11.3409 8.67403 11.7777C8.85495 12.2144 9.12012 12.6113 9.45442 12.9456C9.78871 13.2799 10.1856 13.5451 10.6223 13.726C11.0591 13.9069 11.5272 14 12 14ZM9.79875 16.4H14.2013C16.2338 16.4 17.8913 17.9938 17.9963 20H6.00375C6.10875 17.9938 7.76625 16.4 9.79875 16.4ZM9.79875 15.2C7.03875 15.2 4.8 17.4388 4.8 20.1987C4.8 20.75 5.24625 21.2 5.80125 21.2H18.1987C18.75 21.2 19.2 20.7537 19.2 20.1987C19.2 17.4388 16.9613 15.2 14.2013 15.2H9.79875ZM19.2 3.2C19.6774 3.2 20.1352 3.38964 20.4728 3.72721C20.8104 4.06477 21 4.52261 21 5C21 5.47739 20.8104 5.93523 20.4728 6.27279C20.1352 6.61036 19.6774 6.8 19.2 6.8C18.7226 6.8 18.2648 6.61036 17.9272 6.27279C17.5896 5.93523 17.4 5.47739 17.4 5C17.4 4.52261 17.5896 4.06477 17.9272 3.72721C18.2648 3.38964 18.7226 3.2 19.2 3.2ZM19.2 8C19.9956 8 20.7587 7.68393 21.3213 7.12132C21.8839 6.55871 22.2 5.79565 22.2 5C22.2 4.20435 21.8839 3.44129 21.3213 2.87868C20.7587 2.31607 19.9956 2 19.2 2C18.4044 2 17.6413 2.31607 17.0787 2.87868C16.5161 3.44129 16.2 4.20435 16.2 5C16.2 5.79565 16.5161 6.55871 17.0787 7.12132C17.6413 7.68393 18.4044 8 19.2 8ZM19.8 10.4C21.4575 10.4 22.8 11.7425 22.8 13.4C22.8 13.73 23.07 14 23.4 14C23.73 14 24 13.73 24 13.4C24 11.0788 22.1213 9.2 19.8 9.2H16.65C16.7475 9.5825 16.8 9.9875 16.8 10.4H19.8ZM7.2 10.4C7.2 9.9875 7.2525 9.5825 7.35 9.2H4.2C1.87875 9.2 0 11.0788 0 13.4C0 13.73 0.27 14 0.6 14C0.93 14 1.2 13.73 1.2 13.4C1.2 11.7425 2.5425 10.4 4.2 10.4H7.2Z" fill="#191B1F"/>
</svg>
