<svg width="24" height="24" viewBox="0 0 24 24" fill="none" xmlns="http://www.w3.org/2000/svg">
<path d="M19.25 8.25C19.25 7.36358 19.0754 6.48583 18.7362 5.66689C18.397 4.84794 17.8998 4.10382 17.273 3.47703C16.6462 2.85023 15.9021 2.35303 15.0831 2.01381C14.2642 1.67459 13.3864 1.5 12.5 1.5C11.6136 1.5 10.7358 1.67459 9.91689 2.01381C9.09794 2.35303 8.35382 2.85023 7.72703 3.47703C7.10023 4.10382 6.60303 4.84794 6.26381 5.66689C5.92459 6.48583 5.75 7.36358 5.75 8.25C5.75 9.13642 5.92459 10.0142 6.26381 10.8331C6.60303 11.6521 7.10023 12.3962 7.72703 13.023C8.35382 13.6498 9.09794 14.147 9.91689 14.4862C10.7358 14.8254 11.6136 15 12.5 15C13.3864 15 14.2642 14.8254 15.0831 14.4862C15.9021 14.147 16.6462 13.6498 17.273 13.023C17.8998 12.3962 18.397 11.6521 18.7362 10.8331C19.0754 10.0142 19.25 9.13642 19.25 8.25ZM4.25 8.25C4.25 6.06196 5.11919 3.96354 6.66637 2.41637C8.21354 0.869194 10.312 0 12.5 0C14.688 0 16.7865 0.869194 18.3336 2.41637C19.8808 3.96354 20.75 6.06196 20.75 8.25C20.75 10.438 19.8808 12.5365 18.3336 14.0836C16.7865 15.6308 14.688 16.5 12.5 16.5C10.312 16.5 8.21354 15.6308 6.66637 14.0836C5.11919 12.5365 4.25 10.438 4.25 8.25ZM2.75 5.25C3.1625 5.25 3.5 5.5875 3.5 6V10.5C3.5 10.9125 3.1625 11.25 2.75 11.25C2.3375 11.25 2 10.9125 2 10.5V6C2 5.5875 2.3375 5.25 2.75 5.25ZM23 6V10.5C23 10.9125 22.6625 11.25 22.25 11.25C21.8375 11.25 21.5 10.9125 21.5 10.5V6C21.5 5.5875 21.8375 5.25 22.25 5.25C22.6625 5.25 23 5.5875 23 6ZM2 22.6078C2 19.5984 3.58906 16.9641 5.97031 15.4922C6.37344 15.8578 6.80938 16.1859 7.26875 16.4813C5.06563 17.5969 3.54219 19.8656 3.5 22.5H6.5V21C6.5 19.7578 7.50781 18.75 8.75 18.75H16.25C17.4922 18.75 18.5 19.7578 18.5 21V22.5H21.5C21.4578 19.8656 19.9344 17.5969 17.7266 16.4813C18.1859 16.1859 18.6219 15.8578 19.025 15.4922C21.4062 16.9641 22.9953 19.5984 22.9953 22.6078C22.9953 23.3766 22.3719 24 21.6031 24H3.39219C2.62344 24 2 23.3766 2 22.6078ZM15.5 22.5H17V21C17 20.5875 16.6625 20.25 16.25 20.25H8.75C8.3375 20.25 8 20.5875 8 21V22.5H9.5V21.75C9.5 21.3375 9.8375 21 10.25 21C10.6625 21 11 21.3375 11 21.75V22.5H14V21.75C14 21.3375 14.3375 21 14.75 21C15.1625 21 15.5 21.3375 15.5 21.75V22.5ZM11.6234 7.62656L12.6172 7.90781C12.7719 7.95 12.875 8.09062 12.875 8.25C12.875 8.40938 12.7719 8.55 12.6172 8.59219L11.6234 8.87344L11.3422 9.86719C11.3 10.0219 11.1594 10.125 11 10.125C10.8406 10.125 10.7 10.0219 10.6578 9.86719L10.3766 8.87344L9.38281 8.59219C9.22813 8.55 9.125 8.40938 9.125 8.25C9.125 8.09062 9.22813 7.95 9.38281 7.90781L10.3766 7.62656L10.6578 6.63281C10.7 6.47813 10.8406 6.375 11 6.375C11.1594 6.375 11.3 6.47813 11.3422 6.63281L11.6234 7.62656ZM9.5 6C8.67031 6 8 6.67031 8 7.5V8.25C8 10.3219 9.67812 12 11.75 12H13.25C15.3219 12 17 10.3219 17 8.25V7.5C17 6.67031 16.3297 6 15.5 6H9.5ZM6.5 7.5C6.5 5.84531 7.84531 4.5 9.5 4.5H15.5C17.1547 4.5 18.5 5.84531 18.5 7.5V8.25C18.5 11.1516 16.1516 13.5 13.25 13.5H11.75C8.84844 13.5 6.5 11.1516 6.5 8.25V7.5Z" fill="#191B1F"/>
</svg>
