<?xml version="1.0" standalone="no"?>
<!DOCTYPE svg PUBLIC "-//W3C//DTD SVG 1.1//EN" "http://www.w3.org/Graphics/SVG/1.1/DTD/svg11.dtd" >
<svg xmlns="http://www.w3.org/2000/svg">
<defs>
  <font id="icon-font" horiz-adv-x="1375">
    <font-face font-family="icon-font"
      units-per-em="1000" ascent="1000"
      descent="0" />
    <missing-glyph horiz-adv-x="0" />
    <glyph glyph-name="arrow-down-arrow-up-light 1"
      unicode="&#xEA01;"
      horiz-adv-x="1125" d="M324.0558333333333 71.6791666666668C311.9466666666667 59.5708333333334 292.0245833333334 59.5708333333334 279.9154166666667 71.6791666666668L92.4154166666667 259.1791666666668C80.3058333333333 271.2875 80.3058333333333 291.2125000000001 92.4154166666667 303.3208333333334C104.5245833333333 315.4291666666667 124.4466666666667 315.4291666666667 136.5558333333334 303.3208333333334L270.7358333333333 169.1416666666668V906.25C270.7358333333333 923.4375 284.7983333333334 937.5 301.9858333333333 937.5C319.1733333333334 937.5 333.2358333333333 923.4375 333.2358333333333 906.25V169.1416666666668L467.4166666666666 303.3208333333334C479.525 315.4291666666667 499.4458333333333 315.4291666666667 511.5541666666667 303.3208333333334C523.6666666666666 291.2125000000001 523.6666666666666 271.2875 511.5541666666667 259.1791666666668L324.0558333333333 71.6791666666668zM1011.5541666666666 740.8204166666667C1023.6666666666666 728.7108333333333 1023.6666666666666 708.7891666666667 1011.5541666666666 696.6795833333333C999.4458333333332 684.5704166666667 979.525 684.5704166666667 967.4166666666666 696.6795833333333L833.2374999999998 830.8595833333334V93.75C833.2374999999998 76.5625 819.175 62.5 801.9874999999998 62.5C784.8 62.5 770.7374999999998 76.5625 770.7374999999998 93.75V830.8595833333334L636.5541666666667 696.6795833333333C624.4458333333333 684.5704166666667 604.525 684.5704166666667 592.4166666666666 696.6795833333333C580.3041666666667 708.7891666666667 580.3041666666667 728.7108333333333 592.4166666666666 740.8204166666667L779.9166666666666 928.3204166666666C792.025 940.4295833333334 811.9458333333332 940.4295833333334 824.0541666666667 928.3204166666666L1011.5541666666666 740.8204166666667z" />
    <glyph glyph-name="arrow-down-left-and-arrow-up-right-to-center-light 1"
      unicode="&#xEA02;"
      horiz-adv-x="1041.6666666666665" d="M416.6625 437.5H104.1625C86.8970833333333 437.5 72.9125 423.4375 72.9125 406.25C72.9125 389.0625 86.8970833333333 375 104.1625 375H341.2720833333334L50.8420833333333 84.5708333333333C38.63525 72.3625000000001 38.63525 52.5791666666668 50.8420833333333 40.3916666666668C63.0491666666667 28.2041666666668 82.8345833333333 28.1833333333334 95.0220833333333 40.3916666666668L385.4125 330.8583333333334V93.75C385.4125 76.5625 399.475 62.5 416.6625 62.5C433.85 62.5 447.9125 76.5625 447.9125 93.75V406.25C447.9125 423.4375 433.85 437.5 416.6625 437.5zM969.9833333333332 959.589625C957.7749999999997 971.7966666666666 937.9916666666666 971.7966666666666 925.8041666666666 959.589625L635.4125 669.1404166666666V906.25C635.4125 923.5154166666666 621.3499999999999 937.5 604.1625 937.5C586.975 937.5 572.9125 923.5154166666666 572.9125 906.25V593.75C572.9125 576.5625 586.975 562.5 604.1625 562.5H916.6625C933.85 562.5 947.9125 576.5625 947.9125 593.75C947.9125 610.9375 933.85 625 916.6625 625H679.5541666666667L969.9833333333332 915.4295833333334C982.2875 927.6170833333334 982.2875 947.3825 969.9833333333332 959.589625z" />
    <glyph glyph-name="arrow-down-light"
      unicode="&#xEA03;"
      horiz-adv-x="1000" d="M854.4166666666666 389.9166666666668L510.6708333333333 50.4666666666668C504.6166666666666 44.5333333333334 497.1958333333333 41.6666666666667 489.575 41.6666666666667C481.9583333333333 41.6666666666667 474.4999999999999 44.5833333333334 468.5416666666666 50.4875000000001L124.7966666666667 389.9375C112.04875 402.6041666666668 111.1033333333333 424.0875000000001 122.69875 438.0041666666667C134.3258333333333 451.9916666666667 154.1241666666667 452.8541666666666 166.8583333333333 440.3208333333334L458.3291666666667 152.3625000000001V924.3879166666666C458.3291666666667 943.1529166666666 472.3041666666667 958.3333333333334 487.8208333333333 958.3333333333334C503.3333333333333 958.3333333333334 520.825 943.15125 520.825 924.3879166666666V152.3833333333333L812.2291666666666 440.275C824.9541666666667 452.8041666666667 844.7666666666667 451.9458333333333 856.3874999999999 437.9541666666667C868.0875 424.0875000000001 867.1125 402.6041666666668 854.4166666666666 389.9166666666668z" />
    <glyph glyph-name="arrow-left-from-bracket-light"
      unicode="&#xEA04;"
      horiz-adv-x="1000" d="M9.0820416666667 477.9291666666667C-3.0273416666667 490.0375 -3.0273416666667 509.9625 9.0820416666667 522.0708333333334L259.0820833333334 772.0704166666667C271.19125 784.1795833333333 291.1133333333334 784.1795833333333 303.2225 772.0704166666667C315.3320833333333 759.9608333333333 315.3320833333333 740.0391666666667 303.2225 727.9295833333333L106.5429166666667 531.25H656.1541666666666C673.3416666666666 531.25 687.4041666666666 517.1875 687.4041666666666 500C687.4041666666666 482.8125 673.3416666666666 468.75 656.1541666666666 468.75H106.5429166666667L303.2225 272.0708333333334C315.3320833333333 259.9625000000001 315.3320833333333 240.0375 303.2225 227.9291666666668C291.1133333333334 215.8208333333335 271.19125 215.8208333333335 259.0820833333334 227.9291666666668L9.0820416666667 477.9291666666667zM656.1541666666666 875C638.9666666666667 875 624.9041666666666 889.0625 624.9041666666666 906.25C624.9041666666666 923.4375 638.9666666666667 937.5 656.1541666666666 937.5H843.6541666666666C929.9791666666666 937.5 999.9041666666666 867.5783333333334 999.9041666666666 781.25V218.75C999.9041666666666 132.4208333333335 929.9791666666666 62.5 843.6541666666666 62.5H656.1541666666666C638.9666666666667 62.5 624.9041666666666 76.5625 624.9041666666666 93.75C624.9041666666666 110.9375000000001 638.9666666666667 125 656.1541666666666 125H843.6541666666666C895.4083333333332 125 937.4041666666666 166.9916666666667 937.4041666666666 218.75V781.25C937.4041666666666 833.0079166666667 895.4083333333332 875 843.6541666666666 875H656.1541666666666zM0 1000H1000V0H0V1000z" />
    <glyph glyph-name="arrow-left-light"
      unicode="&#xEA05;"
      horiz-adv-x="1000" d="M947.9166666666666 482.1583333333333C947.9166666666666 464.15 932.775 449.4208333333334 913.95 449.4208333333334H141.9554166666667L429.85 143.9291666666667C442.45 130.5625000000001 441.4208333333333 109.8375 427.5625 97.7041666666667C421.0291666666667 92.1583333333334 412.84625 89.2958333333334 404.6616666666667 89.2958333333334C395.44375 89.2958333333334 386.2279166666667 92.875 379.5350000000001 100.0375L40.077125 460.1625C28.307625 472.6291666666667 28.307625 491.6916666666667 40.077125 504.1541666666667L379.5350000000001 864.2779166666667C392.2004166666667 877.7045833333333 413.685 878.6008333333333 427.5166666666667 866.51625C441.375 854.36625 442.4041666666666 833.655 429.8041666666667 820.29375L141.9554166666667 514.8958333333334H913.9708333333334C932.775 514.8958333333334 947.9166666666666 500.1625 947.9166666666666 482.1583333333333z" />
    <glyph glyph-name="arrow-right-from-bracket-light"
      unicode="&#xEA06;"
      horiz-adv-x="1000" d="M990.8208333333332 522.0708333333334C1002.9291666666666 509.9625 1002.9291666666666 490.0375 990.8208333333332 477.9291666666667L740.8208333333332 227.9291666666668C728.7125 215.8208333333335 708.7874999999999 215.8208333333335 696.6791666666667 227.9291666666668C684.5708333333333 240.0375 684.5708333333333 259.9625000000001 696.6791666666667 272.0708333333334L893.3583333333332 468.75H343.75C326.5625 468.75 312.5 482.8125 312.5 500C312.5 517.1875 326.5625 531.25 343.75 531.25H893.3583333333332L696.6791666666667 727.9295833333333C684.5708333333333 740.0391666666667 684.5708333333333 759.9608333333333 696.6791666666667 772.0704166666667C708.7874999999999 784.1795833333333 728.7125 784.1795833333333 740.8208333333332 772.0704166666667L990.8208333333332 522.0708333333334zM343.75 125C360.9375 125 375 110.9375000000001 375 93.75C375 76.5625 360.9375 62.5 343.75 62.5H156.25C69.9216666666667 62.5 0 132.4208333333335 0 218.75V781.25C0 867.5783333333334 69.9216666666667 937.5 156.25 937.5H343.75C360.9375 937.5 375 923.4375 375 906.25C375 889.0625 360.9375 875 343.75 875H156.25C104.4920833333333 875 62.5 833.0079166666667 62.5 781.25V218.75C62.5 166.9916666666667 104.4920833333333 125 156.25 125H343.75z" />
    <glyph glyph-name="arrow-right-light"
      unicode="&#xEA07;"
      horiz-adv-x="1000" d="M949.5958333333332 478.8708333333334L610.1208333333333 135.1541666666667C603.3666666666667 128.3208333333333 592.3166666666666 125 584.9499999999999 125C576.7958333333332 125 568.6041666666666 127.6833333333334 562.1166666666667 133.1166666666668C548.2541666666666 144.7125 547.2291666666666 164.4791666666668 559.8249999999999 177.2333333333334L847.6916666666666 468.7166666666667H75.6141666666667C56.8479166666667 468.7166666666667 41.6666666666667 482.6916666666667 41.6666666666667 498.2083333333334C41.6666666666667 513.7208333333333 56.8520833333333 531.2125000000001 75.6141666666667 531.2125000000001H847.6708333333333L559.7624999999999 822.7854166666667C547.1624999999999 835.54 548.1916666666666 855.32125 562.05 866.9020833333334C575.9416666666666 878.43625 597.3875 877.5829166666667 610.0333333333333 864.7658333333334L949.5083333333334 521.0500000000001C961.2583333333334 509.1416666666667 961.2583333333334 490.7875 949.5958333333332 478.8708333333334z" />
    <glyph glyph-name="arrow-up-light"
      unicode="&#xEA08;"
      horiz-adv-x="1000" d="M856.3791666666666 561.9749999999999C850.325 554.6125000000001 841.7291666666666 550.9291666666668 833.3333333333333 550.9291666666668C825.8249999999999 550.9291666666668 818.2874999999999 553.8458333333333 812.2958333333333 559.7458333333334L520.8333333333333 847.5525V75.6083333333334C520.8333333333333 56.8458333333334 506.8541666666666 41.6666666666667 491.3375 41.6666666666667C475.825 41.6666666666667 458.3333333333333 56.8291666666668 458.3333333333333 75.6500000000001V847.5525L166.925 559.6833333333334C154.1320833333333 548.8833333333333 134.3858333333333 548.0625 122.6983333333333 561.9749999999999C111.1025 575.8875 112.0479166666667 597.3716666666667 124.80375 610.0566666666667L468.5541666666667 949.4825C480.4583333333333 961.283625 498.7124999999999 961.283625 510.6041666666666 949.4825L854.3541666666666 610.0566666666667C867.1208333333333 597.3716666666667 868.0958333333332 575.8875 856.3791666666666 561.9749999999999z" />
    <glyph glyph-name="arrow-up-right-and-arrow-down-left-from-center-light"
      unicode="&#xEA09;"
      horiz-adv-x="1000" d="M968.75 1000H656.25C639.0625 1000 625 986.0234166666665 625 968.75C625 951.4766666666666 639.0625 937.5 656.25 937.5H893.3583333333332L571.6791666666667 615.8204166666667C559.4708333333333 603.6133333333333 559.4708333333333 583.8279166666666 571.6791666666667 571.6416666666667C583.8874999999999 559.4541666666667 603.6708333333332 559.4333333333334 615.8583333333332 571.6416666666667L937.5 893.3008333333333V656.25C937.5 639.0625 951.5624999999998 625 968.75 625C985.9375 625 1000 639.0625 1000 656.25V968.75C1000 986.0234166666665 985.9375 1000 968.75 1000zM384.1795833333333 428.3208333333334L62.5 106.6416666666668V343.75C62.5 360.9375 48.5158333333333 375 31.25 375C13.984375 375 0 360.9375 0 343.75V31.25C0 14.0625 13.9765833333333 0 31.25 0H343.75C360.9375 0 375 14.0625 375 31.25C375 48.4375000000001 360.9375 62.5 343.75 62.5H106.6991666666667L428.3791666666667 384.1791666666667C440.5875 396.3875000000001 440.5875 416.1708333333334 428.3791666666667 428.3583333333334C416.1716666666667 440.5458333333334 396.2891666666667 440.625 384.1795833333333 428.3208333333334zM0 1000H1000V0H0V1000z" />
    <glyph glyph-name="arrow-up-right-from-square-light"
      unicode="&#xEA0A;"
      horiz-adv-x="1000" d="M656.25 1000C639.0625 1000 625 985.9375 625 968.75C625 951.5625 639.0625 937.5 656.25 937.5H893.3583333333332L415.4295833333333 459.5708333333333C403.3204166666667 447.4625000000001 403.3204166666667 427.5375 415.4295833333333 415.4291666666667C427.5375 403.3208333333335 447.4625 403.3208333333335 459.5708333333333 415.4291666666667L937.5 893.3595833333334V656.25C937.5 639.0625 951.5624999999998 625 968.75 625C985.9375 625 1000 639.0625 1000 656.25V968.75C1000 985.9375 985.9375 1000 968.75 1000H656.25zM125 937.5C56.0545833333333 937.5 0 881.4454166666667 0 812.5V125C0 56.0541666666668 56.0545833333333 0 125 0H812.5C881.4458333333332 0 937.5 56.0541666666668 937.5 125V406.25C937.5 423.4375 923.4375 437.5 906.25 437.5C889.0624999999999 437.5 875 423.4375 875 406.25V125C875 90.4291666666668 847.0708333333332 62.5 812.5 62.5H125C90.4295833333333 62.5 62.5 90.4291666666668 62.5 125V812.5C62.5 847.0704166666667 90.4295833333333 875 125 875H406.25C423.4375 875 437.5 889.0625 437.5 906.25C437.5 923.4375 423.4375 937.5 406.25 937.5H125zM0 1000H1000V0H0V1000z" />
    <glyph glyph-name="arrows-cross-light"
      unicode="&#xEA0B;"
      horiz-adv-x="1000" d="M604.1708333333332 937.5C586.9833333333333 937.5 572.9208333333332 923.4375 572.9208333333332 906.25C572.9208333333332 889.0625 586.9833333333333 875 604.1708333333332 875H810.0291666666666L50.8504166666667 115.8208333333333C38.7410416666667 103.7125000000001 38.7410416666667 83.7875 50.8504166666667 71.6791666666668C62.96 59.5708333333334 82.8816666666667 59.5708333333334 94.99125 71.6791666666668L854.1708333333332 830.8595833333334V625C854.1708333333332 607.8125 868.2333333333332 593.75 885.4208333333332 593.75C902.6083333333333 593.75 916.6708333333332 607.8125 916.6708333333332 625V906.25C916.6708333333332 923.4375 902.6083333333333 937.5 885.4208333333332 937.5H604.1708333333332zM94.99125 928.3204166666666C82.8816666666667 940.4295833333334 62.96 940.4295833333334 50.8504166666667 928.3204166666666C38.7410416666667 916.2108333333334 38.7410416666667 896.2891666666667 50.8504166666667 884.1795833333333L379.7566666666667 555.275L423.8958333333333 599.4141666666667L94.99125 928.3204166666666zM534.4458333333333 400.5875000000001L810.0291666666666 125H604.1708333333332C586.9833333333333 125 572.9208333333332 110.9375000000001 572.9208333333332 93.75C572.9208333333332 76.5625 586.9833333333333 62.5 604.1708333333332 62.5H885.4208333333332C902.6083333333333 62.5 916.6708333333332 76.5625 916.6708333333332 93.75V375C916.6708333333332 392.1875 902.6083333333333 406.25 885.4208333333332 406.25C868.2333333333332 406.25 854.1708333333332 392.1875 854.1708333333332 375V169.1416666666668L578.5833333333333 444.725L534.4458333333333 400.5875000000001z" />
    <glyph glyph-name="atom-simple-light 1"
      unicode="&#xEA0C;"
      horiz-adv-x="1000" d="M341.9941666666667 144.3375C242.7754166666667 111.3291666666668 181.2520833333333 124.6083333333335 153.1270833333333 152.9291666666668C125.0020833333333 181.2500000000001 111.5254166666667 242.775 144.5333333333333 341.7958333333334C155.08 373.4375 169.7283333333333 406.8375 188.4783333333333 441.2125000000001C221.2908333333333 394.7291666666667 260.1579166666667 348.6333333333335 304.4941666666666 304.2958333333334C348.83 259.9625000000001 394.92375 221.0958333333334 441.4083333333333 188.2833333333333C407.0333333333334 169.5333333333334 373.6345833333334 154.6875 341.9941666666667 144.3375zM108.7908333333333 891.2116666666667C32.2284583333333 814.6491666666667 53.9083333333333 660.3520833333333 150.0020833333333 500C53.9083333333333 339.6500000000001 32.2284583333333 185.3541666666666 108.7908333333333 108.7916666666667C185.3533333333333 32.2291666666666 339.6504166666666 53.9083333333334 500 150.0000000000001C660.3541666666666 53.9083333333334 814.65 32.2291666666666 891.2124999999999 108.7916666666667C967.775 185.3541666666666 946.0958333333332 339.6500000000001 849.9999999999999 500C946.0958333333332 660.3520833333333 967.775 814.6491666666667 891.2124999999999 891.2116666666667C814.65 967.7740833333334 660.3541666666666 946.0945833333332 500 850.0008333333333C339.6504166666666 946.0945833333332 185.3533333333333 967.7740833333334 108.7908333333333 891.2116666666667zM348.6345833333333 348.6333333333335C299.2204166666667 398.0458333333334 257.6191666666667 449.4166666666667 224.0254166666667 500C257.6191666666667 550.5875000000001 299.4158333333333 602.1491666666667 348.6345833333333 651.3679166666667C397.8533333333333 700.5866666666666 449.4166666666667 742.3833333333333 500 775.9770833333333C550.5875 742.3833333333333 602.15 700.5866666666666 651.3708333333333 651.3679166666667C700.5875 602.1491666666667 742.3833333333333 550.5875000000001 775.9791666666666 500C742.3833333333333 449.4166666666667 700.5875 397.8541666666668 651.3708333333333 348.6333333333335C602.15 299.4166666666668 550.5875 257.6166666666667 500 224.0250000000001C449.4166666666667 257.6166666666667 397.8533333333333 299.4166666666668 348.6345833333333 348.6333333333335zM304.29875 695.70375C259.9629166666667 651.3679166666667 221.0958333333333 605.2741666666666 188.2833333333333 558.7916666666667C169.5333333333333 593.1645833333334 154.6895833333333 626.5633333333334 144.3379166666667 658.20375C111.33 757.4225 124.8066666666667 818.9458333333333 152.9316666666667 847.0708333333333C181.0566666666667 875.1958333333333 242.7754166666667 888.6725 341.79875 855.6645833333333C373.4391666666667 845.1179166666667 406.8379166666667 830.4695833333333 441.2125 811.7195833333334C394.7283333333334 778.9070833333333 348.6345833333333 740.0395833333334 304.29875 695.70375zM695.5083333333333 695.70375C651.175 740.0395833333334 605.0791666666667 778.9070833333333 558.5958333333333 811.7195833333334C592.9708333333333 830.4695833333333 626.3708333333333 845.3133333333334 658.0083333333332 855.6645833333333C757.2291666666666 888.6725 818.7499999999999 875.1958333333333 846.8749999999999 847.0708333333333C875 818.9458333333333 888.4791666666666 757.2270833333333 855.4708333333333 658.20375C844.9249999999998 626.5633333333334 830.275 593.1645833333334 811.525 558.7916666666667C778.7125 605.2741666666666 739.8458333333333 651.3679166666667 695.5083333333333 695.70375zM695.5083333333333 304.4916666666667C739.8458333333333 348.8291666666668 778.7125 394.9208333333334 811.525 441.4083333333334C830.275 407.0333333333334 845.1208333333334 373.6333333333334 855.4708333333333 341.9916666666668C888.4791666666666 242.775 875.1958333333333 181.2500000000001 846.8749999999999 153.1250000000001C818.5583333333333 125 757.0333333333333 111.5250000000001 658.0083333333332 144.5333333333334C626.3708333333333 155.0791666666668 592.9708333333333 169.7291666666666 558.5958333333333 188.4791666666666C605.0791666666667 221.2916666666668 651.175 260.1583333333334 695.5083333333333 304.4916666666667zM500 453.125C512.4333333333334 453.125 524.3583333333333 458.0625 533.1458333333334 466.8541666666666C541.9375 475.6458333333334 546.875 487.5666666666666 546.875 500C546.875 512.4333333333334 541.9375 524.3541666666667 533.1458333333334 533.1458333333334C524.3583333333333 541.9375 512.4333333333334 546.875 500 546.875C487.5708333333333 546.875 475.6458333333333 541.9375 466.8541666666666 533.1458333333334C458.0666666666667 524.3541666666667 453.125 512.4333333333334 453.125 500C453.125 487.5666666666666 458.0666666666667 475.6458333333334 466.8541666666666 466.8541666666666C475.6458333333333 458.0625 487.5708333333333 453.125 500 453.125z" />
    <glyph glyph-name="bars-sort-light"
      unicode="&#xEA0D;"
      horiz-adv-x="1000" d="M41.6666666666667 802.0833333333334C41.6666666666667 819.2708333333334 56.39875 833.3333333333334 74.4045833333333 833.3333333333334H925.5958333333334C943.6 833.3333333333334 958.3333333333331 819.2708333333334 958.3333333333331 802.0833333333334C958.3333333333331 784.8958333333334 943.6 770.8333333333334 925.5958333333334 770.8333333333334H74.4045833333333C56.39875 770.8333333333334 41.6666666666667 784.8958333333334 41.6666666666667 802.0833333333334zM41.6666666666667 489.5833333333334C41.6666666666667 506.7708333333334 56.39875 520.8333333333334 74.4045833333333 520.8333333333334H663.6916666666666C681.6958333333333 520.8333333333334 696.4291666666667 506.7708333333334 696.4291666666667 489.5833333333334C696.4291666666667 472.3958333333334 681.6958333333333 458.3333333333334 663.6916666666666 458.3333333333334H74.4045833333333C56.39875 458.3333333333334 41.6666666666667 472.3958333333334 41.6666666666667 489.5833333333334zM434.525 177.0833333333334C434.525 159.8958333333334 419.7916666666667 145.8333333333334 401.7858333333334 145.8333333333334H74.4045833333333C56.39875 145.8333333333334 41.6666666666667 159.8958333333334 41.6666666666667 177.0833333333334C41.6666666666667 194.2708333333335 56.39875 208.3333333333334 74.4045833333333 208.3333333333334H401.7858333333334C419.7916666666667 208.3333333333334 434.525 194.2708333333335 434.525 177.0833333333334z" />
    <glyph glyph-name="bars"
      unicode="&#xEA0E;"
      horiz-adv-x="1041.6666666666665" d="M52.0833333333333 842.8029166666666C52.0833333333333 860.5916666666667 66.7416666666667 875 84.82125 875H936.0125C954.0166666666667 875 968.75 860.5916666666667 968.75 842.8029166666666C968.75 825.0141666666667 954.0166666666667 810.60625 936.0125 810.60625H84.82125C66.7416666666667 810.60625 52.0833333333333 825.0141666666667 52.0833333333333 842.8029166666666zM52.0833333333333 520.8333333333334C52.0833333333333 538.5416666666667 66.7416666666667 553.0291666666667 84.82125 553.0291666666667H936.0125C954.0166666666667 553.0291666666667 968.75 538.5416666666667 968.75 520.8333333333334C968.75 503.125 954.0166666666667 488.6375 936.0125 488.6375H84.82125C66.7416666666667 488.6375 52.0833333333333 503.125 52.0833333333333 520.8333333333334zM936.0125 166.6666666666668H84.82125C66.7416666666667 166.6666666666668 52.0833333333333 181.1541666666667 52.0833333333333 198.8625000000001C52.0833333333333 216.5708333333335 66.7416666666667 231.0625000000001 84.82125 231.0625000000001H936.0125C954.0166666666667 231.0625000000001 968.75 216.5708333333335 968.75 198.8625000000001C968.75 181.1541666666667 954.0166666666667 166.6666666666668 936.0125 166.6666666666668z" />
    <glyph glyph-name="bell"
      unicode="&#xEA0F;"
      horiz-adv-x="1041.6666666666665" d="M458.3333333333333 968.75C458.3333333333333 985.9375 472.3958333333333 1000 489.5833333333333 1000C506.7708333333333 1000 520.8333333333333 985.9375 520.8333333333333 968.75V935.9375C678.8416666666667 920.3125 802.0833333333333 787.1091666666666 802.0833333333333 625V568.1625C802.0833333333333 482.8125 836.0666666666666 400.975 896.4208333333332 340.4291666666667L901.8875 334.9625C918.1 318.75 927.2791666666666 296.6791666666667 927.2791666666666 273.8291666666667C927.2791666666666 225.9750000000002 888.6083333333332 187.3041666666667 840.7541666666666 187.3041666666667H138.6066666666667C90.755 187.5 52.0833333333333 226.1708333333334 52.0833333333333 274.025C52.0833333333333 296.875 61.2629166666667 318.9458333333334 77.4741666666667 335.1583333333333L82.9429166666667 340.6250000000001C143.0991666666667 400.975 177.0833333333333 482.8125 177.0833333333333 568.1625V625C177.0833333333333 787.1091666666666 300.3254166666667 920.3125 458.3333333333333 935.9375V968.75zM489.5833333333333 875C351.4975 875 239.5833333333333 763.0858333333333 239.5833333333333 625V568.1625C239.5833333333333 466.2125 199.15375 368.3583333333334 126.8879166666667 296.2875L121.6145833333333 291.0166666666668C117.1225 286.525 114.5833333333333 280.4666666666668 114.5833333333333 274.025C114.5833333333333 260.7416666666667 125.3254166666667 250 138.6066666666667 250H840.5583333333333C853.8416666666666 250 864.5833333333333 260.7416666666667 864.5833333333333 274.025C864.5833333333333 280.4666666666668 862.0458333333332 286.525 857.55 291.0166666666668L852.0833333333333 296.4833333333334C780.0125 368.5541666666667 739.3874999999999 466.4083333333333 739.3874999999999 568.3583333333333V625C739.3874999999999 763.0858333333333 627.475 875 489.3875 875H489.5833333333333zM430.6 104.1C439.1916666666666 79.8833333333334 462.4333333333333 62.5 489.5833333333333 62.5C516.7333333333333 62.5 539.975 79.8833333333334 548.5666666666666 104.1C554.2333333333333 120.3125 572.1999999999999 128.9083333333334 588.4125 123.2416666666667C604.6208333333333 117.5791666666667 613.2166666666666 99.6083333333334 607.55 83.4000000000001C590.3625 34.7666666666667 544.0749999999999 0 489.5833333333333 0C435.0916666666667 0 388.8020833333333 34.7666666666667 371.6145833333333 83.4000000000001C365.9504166666667 99.6083333333334 374.34875 117.5791666666667 390.755 123.2416666666667C407.16125 128.9083333333334 424.9333333333333 120.5083333333333 430.6 104.1z" />
    <glyph glyph-name="bookmark-light"
      unicode="&#xEA10;"
      horiz-adv-x="1000" d="M125 906.25C125 958.0079166666666 166.9920833333334 1000 218.75 1000H781.25C833.0083333333333 1000 875 958.0079166666666 875 906.25V43.1625000000001C875 19.3375 855.6625 0 831.8374999999999 0C823.2416666666666 0 815.0374999999999 2.5375 807.8124999999999 7.2250000000001L500 212.5000000000001L192.1875 7.2250000000001C185.15625 2.5375 176.7579166666667 0 168.1641666666667 0C144.3358333333333 0 125 19.3375 125 43.1625000000001V906.25zM218.75 937.5C201.5625 937.5 187.5 923.4375 187.5 906.25V79.2958333333334L482.6166666666667 275.975C493.1625 283.0083333333335 506.8375 283.0083333333335 517.3833333333333 275.975L812.5 79.2958333333334V906.25C812.5 923.4375 798.4375 937.5 781.25 937.5H218.75z" />
    <glyph glyph-name="bookmark-solid"
      unicode="&#xEA11;"
      horiz-adv-x="1000" d="M125 906.25V47.4625C125 21.2875 146.2891666666667 0 172.4608333333333 0C182.2266666666667 0 191.7966666666667 2.9291666666667 199.8045833333333 8.5916666666667L500 218.75L800.1958333333332 8.5916666666667C808.2041666666665 2.9291666666667 817.775 0 827.5375 0C853.7125 0 875 21.2875 875 47.4625V906.25C875 958.0079166666666 833.0083333333333 1000 781.25 1000H218.75C166.9920833333334 1000 125 958.0079166666666 125 906.25z" />
    <glyph glyph-name="briefcase-light"
      unicode="&#xEA12;"
      horiz-adv-x="1000" d="M343.75 796.875V718.75H656.25V796.875C656.25 811.1979166666667 644.5333333333333 822.9166666666667 630.2083333333333 822.9166666666667H369.7916666666667C355.46875 822.9166666666667 343.75 811.1979166666667 343.75 796.875zM291.6666666666667 718.75V796.875C291.6666666666667 840.0066666666667 326.66 875 369.7916666666667 875H630.2083333333333C673.3416666666666 875 708.3333333333333 840.0066666666667 708.3333333333333 796.875V718.75H812.5C869.9541666666667 718.75 916.6666666666666 672.0379166666667 916.6666666666666 614.5833333333334V197.9166666666668C916.6666666666666 140.4625 869.9541666666667 93.75 812.5 93.75H187.5C130.0454166666667 93.75 83.3333333333333 140.4625 83.3333333333333 197.9166666666668V614.5833333333334C83.3333333333333 672.0379166666667 130.0454166666667 718.75 187.5 718.75H291.6666666666667zM682.2916666666666 666.6666666666667H317.7083333333333H187.5C158.69125 666.6666666666667 135.4166666666667 643.3920833333334 135.4166666666667 614.5833333333334V458.3333333333334H369.7916666666667H421.875H578.125H630.2083333333333H864.5833333333333V614.5833333333334C864.5833333333333 643.3920833333334 841.3083333333334 666.6666666666667 812.5 666.6666666666667H682.2916666666666zM864.5833333333333 406.25H630.2083333333333V328.125C630.2083333333333 299.3166666666666 606.9333333333333 276.0416666666668 578.125 276.0416666666668H421.875C393.0662500000001 276.0416666666668 369.7916666666667 299.3166666666666 369.7916666666667 328.125V406.25H135.4166666666667V197.9166666666668C135.4166666666667 169.1083333333334 158.69125 145.8333333333334 187.5 145.8333333333334H812.5C841.3083333333334 145.8333333333334 864.5833333333333 169.1083333333334 864.5833333333333 197.9166666666668V406.25zM421.875 406.25V328.125H578.125V406.25H421.875z" />
    <glyph glyph-name="building-light"
      unicode="&#xEA13;"
      horiz-adv-x="1000" d="M250 937.5C215.4295833333333 937.5 187.5 909.5704166666666 187.5 875V125C187.5 90.4291666666668 215.4295833333333 62.5 250 62.5H375V187.5C375 256.4458333333334 431.0541666666666 312.5 500 312.5C568.9458333333333 312.5 625 256.4458333333334 625 187.5V62.5H750C784.5708333333332 62.5 812.5 90.4291666666668 812.5 125V875C812.5 909.5704166666666 784.5708333333332 937.5 750 937.5H250zM562.5 187.5C562.5 222.0708333333333 534.5708333333333 250 500 250C465.4291666666666 250 437.5 222.0708333333333 437.5 187.5V62.5H562.5V187.5zM375 0H250C181.0545833333333 0 125 56.0541666666668 125 125V875C125 943.9454166666666 181.0545833333333 1000 250 1000H750C818.9458333333332 1000 875 943.9454166666666 875 875V125C875 56.0541666666668 818.9458333333332 0 750 0H625H562.5H437.5H375zM250 765.625C250 791.6016666666667 270.8983333333333 812.5 296.875 812.5H390.625C416.6016666666667 812.5 437.5 791.6016666666667 437.5 765.625V671.875C437.5 645.8983333333333 416.6016666666667 625 390.625 625H296.875C270.8983333333333 625 250 645.8983333333333 250 671.875V765.625zM312.5 750V687.5H375V750H312.5zM609.375 812.5H703.125C729.1 812.5 750 791.6016666666667 750 765.625V671.875C750 645.8983333333333 729.1 625 703.125 625H609.375C583.4 625 562.5 645.8983333333333 562.5 671.875V765.625C562.5 791.6016666666667 583.4 812.5 609.375 812.5zM625 687.5H687.5V750H625V687.5zM250 515.625C250 541.6 270.8983333333333 562.5 296.875 562.5H390.625C416.6016666666667 562.5 437.5 541.6 437.5 515.625V421.875C437.5 395.9 416.6016666666667 375 390.625 375H296.875C270.8983333333333 375 250 395.9 250 421.875V515.625zM312.5 500V437.5H375V500H312.5zM609.375 562.5H703.125C729.1 562.5 750 541.6 750 515.625V421.875C750 395.9 729.1 375 703.125 375H609.375C583.4 375 562.5 395.9 562.5 421.875V515.625C562.5 541.6 583.4 562.5 609.375 562.5zM625 437.5H687.5V500H625V437.5z" />
    <glyph glyph-name="camera-light"
      unicode="&#xEA14;"
      horiz-adv-x="1000" d="M373.2420833333333 937.5C332.8125 937.5 297.0704166666667 911.71875 284.375 873.4375L263.8670833333333 812.5H125C56.0545833333333 812.5 0 756.4454166666667 0 687.5V187.5C0 118.5541666666668 56.0545833333333 62.5 125 62.5H875C943.9458333333332 62.5 1000 118.5541666666668 1000 187.5V687.5C1000 756.4454166666667 943.9458333333332 812.5 875 812.5H736.1333333333333L715.8208333333333 873.4375C702.9291666666667 911.71875 667.1874999999999 937.5 626.7583333333333 937.5H373.2420833333333zM343.5545833333333 853.7108333333333C347.8516666666667 866.40625 359.7658333333333 875 373.2420833333333 875H626.7583333333333C640.2333333333333 875 652.15 866.40625 656.4458333333333 853.7108333333333L683.7875 771.4841666666666C688.0875 758.7891666666667 700 750.1954166666667 713.475 750.1954166666667H875C909.5708333333332 750.1954166666667 937.5 722.2658333333334 937.5 687.6954166666667V187.5C937.5 152.9291666666668 909.5708333333332 125 875 125H125C90.4295833333333 125 62.5 152.9291666666668 62.5 187.5V687.5C62.5 722.0704166666667 90.4295833333333 750 125 750H286.5233333333333C300 750 311.9141666666667 758.59375 316.2108333333333 771.2891666666667L343.5545833333333 853.5158333333334V853.7108333333333zM500 218.75C528.7249999999999 218.75 557.1708333333332 224.4083333333334 583.7125 235.4C610.25 246.3958333333334 634.3666666666667 262.5083333333335 654.6791666666667 282.8208333333335C674.9916666666667 303.1333333333335 691.1041666666666 327.25 702.1 353.7875C713.0916666666666 380.3291666666668 718.75 408.7750000000001 718.75 437.5C718.75 466.225 713.0916666666666 494.6708333333333 702.1 521.2125000000001C691.1041666666666 547.75 674.9916666666667 571.8666666666667 654.6791666666667 592.1795833333333C634.3666666666667 612.4925000000001 610.25 628.6054166666667 583.7125 639.59875C557.1708333333332 650.5916666666667 528.7249999999999 656.25 500 656.25C471.275 656.25 442.8291666666667 650.5916666666667 416.2879166666666 639.59875C389.7479166666667 628.6054166666667 365.6333333333334 612.4925000000001 345.3204166666667 592.1795833333333C325.0075 571.8666666666667 308.8945833333334 547.75 297.90125 521.2125000000001C286.9083333333333 494.6708333333333 281.25 466.225 281.25 437.5C281.25 408.7750000000001 286.9083333333333 380.3291666666668 297.90125 353.7875C308.8945833333334 327.25 325.0075 303.1333333333335 345.3204166666667 282.8208333333335C365.6333333333334 262.5083333333335 389.7479166666667 246.3958333333334 416.2879166666666 235.4C442.8291666666667 224.4083333333334 471.275 218.75 500 218.75zM343.75 437.5C343.75 478.9416666666667 360.2120833333333 518.6833333333334 389.5145833333333 547.9875C418.8166666666667 577.2875000000001 458.5583333333333 593.75 500 593.75C541.4416666666666 593.75 581.1833333333333 577.2875000000001 610.4875 547.9875C639.7875 518.6833333333334 656.25 478.9416666666667 656.25 437.5C656.25 396.0583333333334 639.7875 356.3166666666667 610.4875 327.0125C581.1833333333333 297.7125 541.4416666666666 281.25 500 281.25C458.5583333333333 281.25 418.8166666666667 297.7125 389.5145833333333 327.0125C360.2120833333333 356.3166666666667 343.75 396.0583333333334 343.75 437.5z" />
    <glyph glyph-name="cart-shopping-light"
      unicode="&#xEA15;"
      horiz-adv-x="1000" d="M27.7777916666667 958.3333333333334C12.5 958.3333333333334 0 945.8333333333334 0 930.5554166666668C0 915.2779166666666 12.5 902.7779166666666 27.7777916666667 902.7779166666666H93.57625C106.7708333333333 902.7779166666666 118.2291666666667 893.57625 120.8333333333333 880.5554166666667L223.0904166666667 380.5541666666667C233.6804166666667 328.8208333333334 279.1666666666667 291.6666666666668 331.9445833333333 291.6666666666668H861.1125C876.3874999999999 291.6666666666668 888.8875 304.1666666666668 888.8875 319.4458333333334C888.8875 334.7208333333334 876.3874999999999 347.2208333333333 861.1125 347.2208333333333H331.9445833333333C305.5554166666667 347.2208333333333 282.8125 365.8000000000001 277.4304166666667 391.6666666666668L263.88875 458.3333333333334H809.8958333333333C860.9375 458.3333333333334 905.3833333333332 493.0541666666667 917.7083333333331 542.5333333333333L990.6249999999998 833.6804166666667C999.3041666666666 868.75 972.9166666666666 902.7779166666666 936.8041666666666 902.7779166666666H172.04875C160.5904166666667 935.76375 129.1666666666667 958.3333333333334 93.57625 958.3333333333334H27.7777916666667zM184.20125 847.2220833333333H936.6333333333332L863.8874999999999 555.9041666666667C857.6375 531.25 835.4166666666666 513.8875 809.8958333333333 513.8875H252.4304166666667L184.20125 847.2220833333333zM291.6666666666667 166.6666666666668C291.6666666666667 177.7166666666667 296.0566666666667 188.3166666666667 303.8704166666667 196.1291666666667C311.6845833333333 203.9416666666667 322.2825 208.3333333333334 333.3333333333333 208.3333333333334C344.3841666666666 208.3333333333334 354.9820833333333 203.9416666666667 362.79625 196.1291666666667C370.61 188.3166666666667 375 177.7166666666667 375 166.6666666666668C375 155.6166666666667 370.61 145.0166666666667 362.79625 137.2041666666667C354.9820833333333 129.3916666666667 344.3841666666666 125 333.3333333333333 125C322.2825 125 311.6845833333333 129.3916666666667 303.8704166666667 137.2041666666667C296.0566666666667 145.0166666666667 291.6666666666667 155.6166666666667 291.6666666666667 166.6666666666668zM430.5541666666666 166.6666666666668C430.5541666666666 179.4333333333334 428.0416666666667 192.0750000000001 423.1541666666667 203.8708333333334C418.2708333333334 215.6666666666666 411.1075 226.3833333333334 402.0795833333334 235.4125C393.0516666666666 244.4416666666666 382.3341666666667 251.6041666666667 370.53875 256.4875000000001C358.7429166666667 261.375 346.1008333333333 263.8875000000001 333.3333333333333 263.8875000000001C320.5658333333334 263.8875000000001 307.9233333333333 261.375 296.1279166666667 256.4875000000001C284.3325 251.6041666666667 273.6145833333333 244.4416666666666 264.5866666666667 235.4125C255.55875 226.3833333333334 248.3975 215.6666666666666 243.5116666666667 203.8708333333334C238.6258333333334 192.0750000000001 236.11125 179.4333333333334 236.11125 166.6666666666668C236.11125 153.9000000000001 238.6258333333334 141.2583333333335 243.5116666666667 129.4625C248.3975 117.6666666666668 255.55875 106.9500000000001 264.5866666666667 97.9208333333335C273.6145833333333 88.8916666666668 284.3325 81.7291666666667 296.1279166666667 76.8458333333334C307.9233333333333 71.9583333333334 320.5658333333334 69.4458333333333 333.3333333333333 69.4458333333333C346.1008333333333 69.4458333333333 358.7429166666667 71.9583333333334 370.53875 76.8458333333334C382.3341666666667 81.7291666666667 393.0516666666666 88.8916666666668 402.0795833333334 97.9208333333335C411.1075 106.9500000000001 418.2708333333334 117.6666666666668 423.1541666666667 129.4625C428.0416666666667 141.2583333333335 430.5541666666666 153.9000000000001 430.5541666666666 166.6666666666668zM777.7791666666666 208.3333333333334C788.8291666666665 208.3333333333334 799.425 203.9416666666667 807.2416666666666 196.1291666666667C815.0541666666666 188.3166666666667 819.4458333333332 177.7166666666667 819.4458333333332 166.6666666666668C819.4458333333332 155.6166666666667 815.0541666666666 145.0166666666667 807.2416666666666 137.2041666666667C799.425 129.3916666666667 788.8291666666665 125 777.7791666666666 125C766.7249999999999 125 756.1291666666666 129.3916666666667 748.3166666666666 137.2041666666667C740.4999999999999 145.0166666666667 736.1125 155.6166666666667 736.1125 166.6666666666668C736.1125 177.7166666666667 740.4999999999999 188.3166666666667 748.3166666666666 196.1291666666667C756.1291666666666 203.9416666666667 766.7249999999999 208.3333333333334 777.7791666666666 208.3333333333334zM777.7791666666666 69.4458333333333C803.5624999999999 69.4458333333333 828.2916666666666 79.6875000000001 846.525 97.9208333333335C864.7583333333333 116.1541666666668 875 140.8833333333333 875 166.6666666666668C875 192.4500000000001 864.7583333333333 217.1791666666667 846.525 235.4125C828.2916666666666 253.6458333333334 803.5624999999999 263.8875000000001 777.7791666666666 263.8875000000001C751.9916666666666 263.8875000000001 727.2624999999999 253.6458333333334 709.0291666666666 235.4125C690.8 217.1791666666667 680.5541666666667 192.4500000000001 680.5541666666667 166.6666666666668C680.5541666666667 140.8833333333333 690.8 116.1541666666668 709.0291666666666 97.9208333333335C727.2624999999999 79.6875000000001 751.9916666666666 69.4458333333333 777.7791666666666 69.4458333333333z" />
    <glyph glyph-name="check-light"
      unicode="&#xEA16;"
      horiz-adv-x="1000" d="M979.475 823.0379166666667C992.9541666666667 809.4425 992.9541666666667 787.0754166666667 979.475 773.48L397.66375 177.0291666666667C384.4016666666667 163.2125000000001 362.58375 163.2125000000001 349.3220833333333 177.0291666666667L41.2734166666667 492.7958333333333C27.9088333333333 506.3916666666667 27.9088333333333 528.7583333333334 41.2734166666667 542.3541666666667C54.6295833333333 556.1708333333333 76.2979166666667 556.1708333333333 89.6666666666667 542.3541666666667L373.4929166666667 251.3666666666668L931.1333333333334 823.0379166666667C944.3958333333334 836.765 966.2125 836.765 979.475 823.0379166666667z" />
    <glyph glyph-name="chevron-down-light"
      unicode="&#xEA17;"
      horiz-adv-x="1000" d="M511.5541666666667 280.1125000000001C499.4458333333333 268 479.525 268 467.4166666666666 280.1125000000001L92.4154166666667 655.1108333333334C80.3058333333333 667.22 80.3058333333333 687.1420833333334 92.4154166666667 699.25125C104.5245833333333 711.3608333333334 124.4466666666667 711.3608333333334 136.5558333333334 699.25125L489.4875 346.3208333333334L842.4166666666666 699.25125C854.525 711.3608333333334 874.4458333333332 711.3608333333334 886.5541666666667 699.25125C898.6666666666666 687.1420833333334 898.6666666666666 667.22 886.5541666666667 655.1108333333334L511.5541666666667 280.1125000000001z" />
    <glyph glyph-name="chevron-left-light"
      unicode="&#xEA18;"
      horiz-adv-x="1000" d="M300.74875 488.4458333333333C288.6391666666667 500.5541666666667 288.6391666666667 520.475 300.74875 532.5833333333334L675.75 907.5845833333332C687.8583333333333 919.6941666666665 707.7791666666666 919.6941666666665 719.8874999999999 907.5845833333332C732 895.4754166666667 732 875.5533333333333 719.8874999999999 863.4441666666667L366.9595833333333 510.5125L719.8874999999999 157.5833333333334C732 145.475 732 125.5541666666668 719.8874999999999 113.4458333333333C707.7791666666666 101.3333333333334 687.8583333333333 101.3333333333334 675.75 113.4458333333333L300.74875 488.4458333333333z" />
    <glyph glyph-name="chevron-right-light"
      unicode="&#xEA19;"
      horiz-adv-x="1000" d="M719.8874999999999 532.5833333333334C732 520.475 732 500.5541666666667 719.8874999999999 488.4458333333333L344.8891666666667 113.4458333333333C332.78 101.3333333333334 312.8579166666667 101.3333333333334 300.74875 113.4458333333333C288.6391666666667 125.5541666666668 288.6391666666667 145.475 300.74875 157.5833333333334L653.6791666666667 510.5125L300.74875 863.4441666666667C288.6391666666667 875.5533333333333 288.6391666666667 895.4754166666667 300.74875 907.5845833333332C312.8579166666667 919.6941666666665 332.78 919.6941666666665 344.8891666666667 907.5845833333332L719.8874999999999 532.5833333333334z" />
    <glyph glyph-name="chevron-up-light"
      unicode="&#xEA1A;"
      horiz-adv-x="1000" d="M467.4166666666666 699.25125C479.525 711.3608333333334 499.4458333333333 711.3608333333334 511.5541666666667 699.25125L886.5541666666667 324.25C898.6666666666666 312.1416666666667 898.6666666666666 292.2208333333334 886.5541666666667 280.1125000000001C874.4458333333332 268 854.525 268 842.4166666666666 280.1125000000001L489.4875 633.0404166666667L136.5558333333334 280.1125000000001C124.4466666666667 268 104.5245833333333 268 92.4154166666667 280.1125000000001C80.3058333333333 292.2208333333334 80.3058333333333 312.1416666666667 92.4154166666667 324.25L467.4166666666666 699.25125z" />
    <glyph glyph-name="chevrons-down-light"
      unicode="&#xEA1B;"
      horiz-adv-x="1000" d="M932.0416666666666 525.0875000000001L510.4166666666666 123.1791666666667L88.7908333333333 523.1C82.1166666666667 531.2708333333334 73.7954166666667 536.3500000000001 65.4741666666667 536.3500000000001C56.2504166666667 536.3500000000001 47.0583333333333 532.5541666666667 40.3392916666667 524.9666666666667C27.5044583333333 510.6125 28.3729583333333 488.3291666666667 42.2445833333333 475.0791666666667L487.1875 51.0875C500.3541666666666 38.5250000000001 520.4708333333333 38.5250000000001 533.6458333333333 51.0875L978.5875 475.0791666666667C992.4583333333331 488.3291666666667 993.3291666666667 510.6125 980.4958333333332 524.9666666666667C967.7625 537.4541666666667 945.9458333333334 538.3375000000001 932.0416666666666 525.0875000000001zM487.1 472.9708333333334C500.2666666666666 460.4125 520.3833333333333 460.4125 533.5625 472.9708333333334L978.5041666666668 896.965C992.3708333333332 910.2145833333334 993.2416666666666 932.49625 980.4083333333334 946.8504166666665C967.6374999999998 961.2725833333334 945.9458333333334 962.1006666666668 932.0416666666666 948.85125L721.2291666666666 748.01125L510.4166666666666 547.1708333333333L88.7054166666667 948.9479166666666C82.1166666666667 955.2416666666666 73.7954166666667 958.3333333333334 65.4741666666667 958.3333333333334C56.2504166666667 958.3333333333334 47.0583333333333 954.5370833333334 40.3392916666667 946.9475C27.5044583333333 932.5933333333334 28.3729583333333 910.3116666666668 42.2445833333333 897.0620833333334L487.1 472.9708333333334z" />
    <glyph glyph-name="chevrons-left-light"
      unicode="&#xEA1C;"
      horiz-adv-x="1000" d="M536.1416666666667 57.6291666666667L154.0775 479.2541666666667L534.2499999999999 900.8779166666666C540.2208333333333 907.4625 543.1708333333332 915.7858333333334 543.1708333333332 924.1091666666666C543.1708333333332 933.3329166666668 539.5625 942.525 532.35 949.2441666666666C518.7041666666667 962.078875 497.5208333333333 961.210375 484.9291666666666 947.33875L81.8720833333333 502.3958333333333C69.9316666666667 489.2291666666667 69.9316666666667 469.1125 81.8720833333333 455.9375000000001L484.9291666666666 10.9958333333334C497.5208333333333 -2.8749999999999 518.7041666666667 -3.7458333333333 532.35 9.0875000000001C547.8958333333333 21.9041666666667 548.7375 43.725 536.1416666666667 57.6291666666667zM486.6 502.5708333333334C474.6583333333333 489.4 474.6583333333333 469.2833333333334 486.6 456.1083333333333L889.6541666666667 11.1666666666667C902.25 -2.7041666666667 923.4291666666666 -3.5749999999999 937.075 9.2625C950.7875 22.0291666666667 951.5708333333334 43.725 938.9791666666666 57.6291666666667L558.8041666666667 479.2541666666667L938.9791666666666 900.8766666666666C944.9458333333332 907.46125 947.9 915.7845833333334 947.9 924.1079166666668C947.9 933.3316666666668 944.2916666666666 942.52375 937.075 949.2429166666668C923.4291666666666 962.0775833333335 902.25 961.209125 889.6541666666667 947.3375L486.6 502.5708333333334z" />
    <glyph glyph-name="chevrons-right-light"
      unicode="&#xEA1D;"
      horiz-adv-x="1000" d="M483.2625 900.79L900.5083333333333 479.1666666666667L483.2625 57.4541666666668C476.7083333333333 50.8708333333334 473.4708333333334 42.5458333333335 473.4708333333334 34.225C473.4708333333334 25.0000000000001 477.4291666666666 15.8083333333334 485.35 9.0875000000001C500.3249999999999 -3.7458333333333 523.5708333333333 -2.8749999999999 537.3958333333334 10.9958333333334L979.7541666666666 455.9375000000001C992.8583333333333 469.1041666666666 992.8583333333333 489.2208333333334 979.7541666666666 502.3958333333333L537.3958333333334 947.3391666666666C523.5708333333333 961.2092083333334 500.3249999999999 962.0798333333335 485.35 949.2441666666666C470.3583333333333 936.3854166666666 469.4375 914.6945833333332 483.2625 900.79zM537.6374999999999 455.7625C550.7416666666667 468.9333333333334 550.7416666666667 489.05 537.6374999999999 502.225L95.2766666666667 947.1666666666666C81.4529166666667 961.0367916666665 58.20625 961.9074583333334 43.2304166666667 949.0716666666668C28.1834583333333 936.3033333333332 27.3194583333333 914.61 41.1427083333333 900.7058333333333L458.3875 479.0791666666667L41.0417916666667 57.4541666666668C34.489375 50.8708333333334 31.25 42.5458333333335 31.25 34.225C31.25 25.0000000000001 35.2105 15.8083333333334 43.1291666666667 9.0875000000001C58.105 -3.7458333333333 81.3516666666667 -2.8749999999999 95.1754166666667 10.9958333333334L537.6374999999999 455.7625z" />
    <glyph glyph-name="chevrons-up-light"
      unicode="&#xEA1E;"
      horiz-adv-x="1000" d="M88.7079166666667 473.9333333333334L510.3333333333333 873.0237500000001L931.9583333333334 473.9333333333334C938.6749999999998 467.7625 947.0166666666667 464.6791666666667 955.3583333333332 464.6791666666667C964.5833333333331 464.6791666666667 973.775 468.4666666666667 980.4958333333332 476.0416666666667C993.3291666666667 490.3625000000001 992.4583333333331 512.6 978.5875 525.8208333333334L533.6458333333333 948.9325C520.4791666666666 961.467 500.3625 961.467 487.1875 948.9325L42.2441666666667 525.8208333333334C28.374125 512.6 27.5035 490.3625000000001 40.3391666666667 476.0416666666667C53.1125 461.5916666666667 74.8033333333333 460.7125000000001 88.7079166666667 473.9333333333334zM533.7333333333332 525.9416666666667C520.5666666666667 538.4750000000001 500.4499999999999 538.4750000000001 487.2708333333333 525.9416666666667L42.33125 102.8291666666668C28.4609583333333 89.6083333333335 27.5903333333333 67.3708333333334 40.4260416666667 53.0458333333334C53.1945833333333 38.6541666666668 74.8875 37.8291666666668 88.7920833333333 51.0500000000001L510.4166666666666 450.1416666666667L932.0416666666666 51.0500000000001C938.625 44.7833333333334 946.95 41.6833333333334 955.2708333333331 41.6833333333334C964.4958333333332 41.6833333333334 973.6875 45.475 980.4083333333334 53.0458333333334C993.2416666666666 67.3708333333334 992.375 89.6083333333335 978.5 102.8291666666668L533.7333333333332 525.9416666666667z" />
    <glyph glyph-name="circle-check-light"
      unicode="&#xEA1F;"
      horiz-adv-x="1041.6666666666665" d="M469.9875 352.9291666666667C457.8791666666667 340.6250000000001 437.9541666666666 340.6250000000001 425.8458333333333 352.9291666666667L300.84625 477.9291666666667C288.5416666666667 490.0375 288.5416666666667 509.9625 300.84625 522.0708333333334C312.9558333333333 534.375 332.8775 534.375 344.9870833333333 522.0708333333334L447.9166666666667 419.1416666666667L675.8458333333334 647.0704166666667C687.9541666666667 659.375 707.8791666666666 659.375 719.9874999999998 647.0704166666667C732.2916666666666 634.9608333333333 732.2916666666666 615.0391666666667 719.9874999999998 602.9295833333333L469.9875 352.9291666666667zM1010.4166666666666 500C1010.4166666666666 223.8291666666668 786.5875 0 510.4166666666666 0C234.245 0 10.4166666666667 223.8291666666668 10.4166666666667 500C10.4166666666667 776.1716666666666 234.245 1000 510.4166666666666 1000C786.5875 1000 1010.4166666666666 776.1716666666666 1010.4166666666666 500zM510.4166666666666 937.5C268.815 937.5 72.9166666666667 741.6016666666667 72.9166666666667 500C72.9166666666667 258.4 268.815 62.5 510.4166666666666 62.5C752.0166666666667 62.5 947.9166666666666 258.4 947.9166666666666 500C947.9166666666666 741.6016666666667 752.0166666666667 937.5 510.4166666666666 937.5zM10.4166666666667 1000H1010.4166666666666V0H10.4166666666667V1000z" />
    <glyph glyph-name="circle-check-solid"
      unicode="&#xEA20;"
      horiz-adv-x="1000" d="M500 0C776.1708333333332 0 1000 223.8291666666668 1000 500C1000 776.1716666666666 776.1708333333332 1000 500 1000C223.8283333333333 1000 0 776.1716666666666 0 500C0 223.8291666666668 223.8283333333333 0 500 0zM720.7041666666667 591.7966666666666L470.7041666666667 341.7958333333334C452.3416666666666 323.4375 422.6583333333334 323.4375 404.4920833333333 341.7958333333334L279.4920833333333 466.7958333333333C261.1329166666667 485.1583333333334 261.1329166666667 514.8416666666667 279.4920833333333 533.0083333333333C297.8516666666667 551.1708333333333 327.5391666666667 551.3666666666667 345.7033333333333 533.0083333333333L437.5 441.2125000000001L654.2958333333332 658.2033333333334C672.6541666666666 676.5625 702.3416666666667 676.5625 720.5083333333333 658.2033333333334C738.6708333333333 639.84375 738.8666666666667 610.15625 720.5083333333333 591.9920833333333L720.7041666666667 591.7966666666666zM0 1000H1000V0H0V1000z" />
    <glyph glyph-name="circle-exclamation-light"
      unicode="&#xEA21;"
      horiz-adv-x="1000" d="M500 1000C223.8283333333333 1000 0 776.1716666666666 0 500C0 223.8291666666668 223.8283333333333 0 500 0C776.1708333333332 0 1000 223.8291666666668 1000 500C1000 776.1716666666666 776.1708333333332 1000 500 1000zM500 62.5C258.7891666666667 62.5 62.5 258.7875 62.5 500C62.5 741.2108333333333 258.7891666666667 937.5 500 937.5C741.2125 937.5 937.5 741.2108333333333 937.5 500C937.5 258.7875 741.2125 62.5 500 62.5zM500 406.25C517.275 406.25 531.25 420.225 531.25 437.5V750C531.25 767.2733333333333 517.275 781.25 500 781.25C482.725 781.25 468.75 767.1875 468.75 750V437.5C468.75 420.3125 482.8125 406.25 500 406.25zM500 328.125C474.1208333333333 328.125 453.125 307.1291666666666 453.125 281.25C453.125 255.3708333333334 474.1208333333333 234.375 500 234.375C525.8791666666666 234.375 546.875 255.3708333333334 546.875 281.25C546.875 307.1291666666666 525.975 328.125 500 328.125zM0 1000H1000V0H0V1000z" />
    <glyph glyph-name="circle-exclamation-solid"
      unicode="&#xEA22;"
      horiz-adv-x="1000" d="M500 0C632.6083333333333 0 759.7833333333333 52.6791666666667 853.5541666666666 146.4458333333335C947.3208333333334 240.2166666666667 1000 367.3916666666667 1000 500C1000 632.6083333333333 947.3208333333334 759.7850000000001 853.5541666666666 853.5533333333333C759.7833333333333 947.3216666666668 632.6083333333333 1000 500 1000C367.3916666666666 1000 240.215 947.3216666666668 146.4466666666667 853.5533333333333C52.6783333333333 759.7850000000001 0 632.6083333333333 0 500C0 367.3916666666667 52.6783333333333 240.2166666666667 146.4466666666667 146.4458333333335C240.215 52.6791666666667 367.3916666666666 0 500 0zM500 750C525.975 750 546.875 729.1016666666667 546.875 703.125V484.375C546.875 458.4 525.975 437.5 500 437.5C474.025 437.5 453.125 458.4 453.125 484.375V703.125C453.125 729.1016666666667 474.025 750 500 750zM437.5 312.5C437.5 329.0750000000001 444.0833333333333 344.975 455.8041666666666 356.6958333333335C467.5249999999999 368.4166666666668 483.425 375 500 375C516.5749999999999 375 532.475 368.4166666666668 544.1958333333333 356.6958333333335C555.9166666666666 344.975 562.5 329.0750000000001 562.5 312.5C562.5 295.9250000000001 555.9166666666666 280.0250000000001 544.1958333333333 268.3041666666667C532.475 256.5833333333334 516.5749999999999 250 500 250C483.425 250 467.5249999999999 256.5833333333334 455.8041666666666 268.3041666666667C444.0833333333333 280.0250000000001 437.5 295.9250000000001 437.5 312.5zM0 1000H1000V0H0V1000z" />
    <glyph glyph-name="circle-info-light"
      unicode="&#xEA23;"
      horiz-adv-x="1000" d="M468.75 343.75H421.875C395.8983333333333 343.75 375 322.85 375 296.875C375 270.9 395.8983333333333 250 421.875 250H578.125C604.1 250 625 270.9 625 296.875C625 322.85 604.1 343.75 578.125 343.75H562.5V515.625C562.5 541.6 541.6 562.5 515.625 562.5H421.875C395.8983333333333 562.5 375 541.6 375 515.625C375 489.65 395.8983333333333 468.75 421.875 468.75H468.75V343.75zM544.1958333333333 731.6941666666667C532.475 743.415 516.5749999999999 750 500 750C483.425 750 467.5249999999999 743.415 455.8041666666666 731.6941666666667C444.0833333333333 719.9733333333334 437.5 704.0758333333333 437.5 687.5C437.5 670.9241666666667 444.0833333333333 655.0266666666666 455.8041666666666 643.3058333333333C467.5249999999999 631.585 483.425 625 500 625C516.5749999999999 625 532.475 631.585 544.1958333333333 643.3058333333333C555.9166666666666 655.0266666666666 562.5 670.9241666666667 562.5 687.5C562.5 704.0758333333333 555.9166666666666 719.9733333333334 544.1958333333333 731.6941666666667zM1000 500C1000 223.8291666666668 776.1708333333332 0 500 0C223.8283333333333 0 0 223.8291666666668 0 500C0 776.1716666666666 223.8283333333333 1000 500 1000C776.1708333333332 1000 1000 776.1716666666666 1000 500zM500 937.5C258.3983333333333 937.5 62.5 741.6016666666667 62.5 500C62.5 258.4 258.3983333333333 62.5 500 62.5C741.6 62.5 937.5 258.4 937.5 500C937.5 741.6016666666667 741.6 937.5 500 937.5zM0 1000H1000V0H0V1000z" />
    <glyph glyph-name="circle-info-solid"
      unicode="&#xEA24;"
      horiz-adv-x="1000" d="M500 0C632.6083333333333 0 759.7833333333333 52.6791666666667 853.5541666666666 146.4458333333335C947.3208333333334 240.2166666666667 1000 367.3916666666667 1000 500C1000 632.6083333333333 947.3208333333334 759.7850000000001 853.5541666666666 853.5533333333333C759.7833333333333 947.3216666666668 632.6083333333333 1000 500 1000C367.3916666666666 1000 240.215 947.3216666666668 146.4466666666667 853.5533333333333C52.6783333333333 759.7850000000001 0 632.6083333333333 0 500C0 367.3916666666667 52.6783333333333 240.2166666666667 146.4466666666667 146.4458333333335C240.215 52.6791666666667 367.3916666666666 0 500 0zM421.875 343.75H468.75V468.75H421.875C395.8983333333333 468.75 375 489.65 375 515.625C375 541.6 395.8983333333333 562.5 421.875 562.5H515.625C541.6 562.5 562.5 541.6 562.5 515.625V343.75H578.125C604.1 343.75 625 322.85 625 296.875C625 270.9 604.1 250 578.125 250H421.875C395.8983333333333 250 375 270.9 375 296.875C375 322.85 395.8983333333333 343.75 421.875 343.75zM500 750C516.5749999999999 750 532.475 743.415 544.1958333333333 731.6941666666667C555.9166666666666 719.9733333333334 562.5 704.0758333333333 562.5 687.5C562.5 670.9241666666667 555.9166666666666 655.0266666666666 544.1958333333333 643.3058333333333C532.475 631.585 516.5749999999999 625 500 625C483.425 625 467.5249999999999 631.585 455.8041666666666 643.3058333333333C444.0833333333333 655.0266666666666 437.5 670.9241666666667 437.5 687.5C437.5 704.0758333333333 444.0833333333333 719.9733333333334 455.8041666666666 731.6941666666667C467.5249999999999 743.415 483.425 750 500 750zM0 1000H1000V0H0V1000z" />
    <glyph glyph-name="circle-plus-light"
      unicode="&#xEA25;"
      horiz-adv-x="1000" d="M500 937.5C616.0333333333333 937.5 727.3125 891.40625 809.3583333333333 809.3591666666666C891.4083333333332 727.3120833333334 937.5 616.0320833333333 937.5 500C937.5 383.9666666666667 891.4083333333332 272.6875 809.3583333333333 190.6416666666667C727.3125 108.5916666666668 616.0333333333333 62.5 500 62.5C383.9679166666667 62.5 272.6879166666667 108.5916666666668 190.6408333333333 190.6416666666667C108.59375 272.6875 62.5 383.9666666666667 62.5 500C62.5 616.0320833333333 108.59375 727.3120833333334 190.6408333333333 809.3591666666666C272.6879166666667 891.40625 383.9679166666667 937.5 500 937.5zM500 0C632.6083333333333 0 759.7833333333333 52.6791666666667 853.5541666666666 146.4458333333335C947.3208333333334 240.2166666666667 1000 367.3916666666667 1000 500C1000 632.6083333333333 947.3208333333334 759.7850000000001 853.5541666666666 853.5533333333333C759.7833333333333 947.3216666666668 632.6083333333333 1000 500 1000C367.3916666666666 1000 240.215 947.3216666666668 146.4466666666667 853.5533333333333C52.6783333333333 759.7850000000001 0 632.6083333333333 0 500C0 367.3916666666667 52.6783333333333 240.2166666666667 146.4466666666667 146.4458333333335C240.215 52.6791666666667 367.3916666666666 0 500 0zM468.75 312.5C468.75 295.3125 482.8125 281.25 500 281.25C517.1875 281.25 531.25 295.3125 531.25 312.5V468.75H687.5C704.6875 468.75 718.75 482.8125 718.75 500C718.75 517.1875 704.6875 531.25 687.5 531.25H531.25V687.5C531.25 704.6875 517.1875 718.75 500 718.75C482.8125 718.75 468.75 704.6875 468.75 687.5V531.25H312.5C295.3125 531.25 281.25 517.1875 281.25 500C281.25 482.8125 295.3125 468.75 312.5 468.75H468.75V312.5zM0 1000H1000V0H0V1000z" />
    <glyph glyph-name="circle-question-light"
      unicode="&#xEA26;"
      horiz-adv-x="1000" d="M500 1000C223.8283333333333 1000 0 776.1716666666666 0 500C0 223.8291666666668 223.8283333333333 0 500 0C776.1708333333332 0 1000 223.8291666666668 1000 500C1000 776.1716666666666 776.1708333333332 1000 500 1000zM500 62.5C258.7891666666667 62.5 62.5 258.7875 62.5 500C62.5 741.2108333333333 258.7891666666667 937.5 500 937.5C741.2125 937.5 937.5 741.2108333333333 937.5 500C937.5 258.7875 741.2125 62.5 500 62.5zM468.75 328.125C442.8708333333333 328.125 421.875 307.1291666666666 421.875 281.25C421.875 255.3708333333334 442.8708333333333 234.375 468.75 234.375C494.6291666666667 234.375 515.625 255.3708333333334 515.625 281.25C515.625 307.1291666666666 494.725 328.125 468.75 328.125zM557.8124999999999 750H442.1875C370.7029166666666 750 312.5 691.7970833333334 312.5 620.3125V601.5625C312.5 584.2891666666667 326.4766666666667 570.3125 343.75 570.3125C361.0233333333333 570.3125 375 584.375 375 601.5625V620.3125C375 657.4220833333334 405.0779166666666 687.5 442.1875 687.5H557.9083333333333C594.9208333333333 687.5 625 657.4220833333334 625 620.3125C625 595.9375 611.7541666666666 573.4375 591.6791666666667 562.2666666666667L473.6333333333333 503.3208333333334C451.3666666666667 490.8208333333334 437.5 467.3833333333333 437.5 441.7958333333334V406.25C437.5 389.0625 451.5625 375 468.75 375C485.9374999999999 375 500 389.0625 500 406.25V441.7958333333334C500 444.6333333333335 501.525 447.2583333333334 502.8083333333333 447.9916666666667L620.7958333333333 507.0166666666667C661.9124999999999 529.8833333333334 687.5 573.2416666666667 687.5 620.3125C687.5 691.7970833333334 629.2958333333332 750 557.8124999999999 750zM0 1000H1000V0H0V1000z" />
    <glyph glyph-name="circle-question-solid"
      unicode="&#xEA27;"
      horiz-adv-x="1000" d="M500 0C632.6083333333333 0 759.7833333333333 52.6791666666667 853.5541666666666 146.4458333333335C947.3208333333334 240.2166666666667 1000 367.3916666666667 1000 500C1000 632.6083333333333 947.3208333333334 759.7850000000001 853.5541666666666 853.5533333333333C759.7833333333333 947.3216666666668 632.6083333333333 1000 500 1000C367.3916666666666 1000 240.215 947.3216666666668 146.4466666666667 853.5533333333333C52.6783333333333 759.7850000000001 0 632.6083333333333 0 500C0 367.3916666666667 52.6783333333333 240.2166666666667 146.4466666666667 146.4458333333335C240.215 52.6791666666667 367.3916666666666 0 500 0zM331.6408333333333 677.1483333333333C347.0704166666667 720.7033333333334 388.4766666666667 750 434.7666666666667 750H548.6333333333333C616.7958333333333 750 671.875 694.7266666666667 671.875 626.7579166666667C671.875 582.6166666666667 648.2416666666667 541.7958333333333 609.9625 519.725L546.875 483.5958333333333C546.4833333333333 458.2041666666667 525.5875 437.5 500 437.5C474.025 437.5 453.125 458.4 453.125 484.375V510.7416666666667C453.125 527.5375 462.1083333333333 542.9666666666667 476.7583333333333 551.3666666666667L563.2791666666667 600.9766666666667C572.4625 606.25 578.125 616.0158333333334 578.125 626.5625C578.125 642.96875 564.8416666666667 656.0545833333333 548.6333333333333 656.0545833333333H434.7666666666667C428.125 656.0545833333333 422.2666666666666 651.9533333333334 420.1166666666667 645.7033333333334L419.3375 643.3591666666666C410.7420833333333 618.9454166666667 383.7891666666667 606.25 359.5704166666667 614.84375C335.3516666666667 623.4375 322.4608333333333 650.3908333333334 331.0545833333333 674.6091666666666L331.8358333333333 676.9533333333334L331.6408333333333 677.1483333333333zM437.5 312.5C437.5 329.0750000000001 444.0833333333333 344.975 455.8041666666666 356.6958333333335C467.5249999999999 368.4166666666668 483.425 375 500 375C516.5749999999999 375 532.475 368.4166666666668 544.1958333333333 356.6958333333335C555.9166666666666 344.975 562.5 329.0750000000001 562.5 312.5C562.5 295.9250000000001 555.9166666666666 280.0250000000001 544.1958333333333 268.3041666666667C532.475 256.5833333333334 516.5749999999999 250 500 250C483.425 250 467.5249999999999 256.5833333333334 455.8041666666666 268.3041666666667C444.0833333333333 280.0250000000001 437.5 295.9250000000001 437.5 312.5zM0 1000H1000V0H0V1000z" />
    <glyph glyph-name="circle-xmark-light"
      unicode="&#xEA28;"
      horiz-adv-x="1000" d="M500 937.5C616.0333333333333 937.5 727.3125 891.40625 809.3583333333333 809.3591666666666C891.4083333333332 727.3120833333334 937.5 616.0320833333333 937.5 500C937.5 383.9666666666667 891.4083333333332 272.6875 809.3583333333333 190.6416666666667C727.3125 108.5916666666668 616.0333333333333 62.5 500 62.5C383.9679166666667 62.5 272.6879166666667 108.5916666666668 190.6408333333333 190.6416666666667C108.59375 272.6875 62.5 383.9666666666667 62.5 500C62.5 616.0320833333333 108.59375 727.3120833333334 190.6408333333333 809.3591666666666C272.6879166666667 891.40625 383.9679166666667 937.5 500 937.5zM500 0C632.6083333333333 0 759.7833333333333 52.6791666666667 853.5541666666666 146.4458333333335C947.3208333333334 240.2166666666667 1000 367.3916666666667 1000 500C1000 632.6083333333333 947.3208333333334 759.7850000000001 853.5541666666666 853.5533333333333C759.7833333333333 947.3216666666668 632.6083333333333 1000 500 1000C367.3916666666666 1000 240.215 947.3216666666668 146.4466666666667 853.5533333333333C52.6783333333333 759.7850000000001 0 632.6083333333333 0 500C0 367.3916666666667 52.6783333333333 240.2166666666667 146.4466666666667 146.4458333333335C240.215 52.6791666666667 367.3916666666666 0 500 0zM264.54125 735.45875C252.4320833333333 723.3491666666666 252.4320833333333 703.4275 264.54125 691.3179166666666L455.8583333333333 500L264.54125 308.6833333333334C252.4320833333333 296.5708333333334 252.4320833333333 276.6500000000001 264.54125 264.5416666666668C276.6508333333333 252.4333333333333 296.5725 252.4333333333333 308.6820833333333 264.5416666666668L500 455.8583333333333L691.3166666666666 264.5416666666668C703.4291666666667 252.4333333333333 723.3499999999999 252.4333333333333 735.4583333333333 264.5416666666668C747.5666666666667 276.6500000000001 747.5666666666667 296.5708333333334 735.4583333333333 308.6833333333334L544.1416666666667 500L735.4583333333333 691.3179166666666C747.5666666666667 703.4275 747.5666666666667 723.3491666666666 735.4583333333333 735.45875C723.3499999999999 747.5679166666666 703.4291666666667 747.5679166666666 691.3166666666666 735.45875L500 544.1416666666667L308.6820833333333 735.45875C296.5725 747.5679166666666 276.6508333333333 747.5679166666666 264.54125 735.45875zM0 1000H1000V0H0V1000z" />
    <glyph glyph-name="circle-xmark-solid"
      unicode="&#xEA29;"
      horiz-adv-x="1000" d="M500 0C632.6083333333333 0 759.7833333333333 52.6791666666667 853.5541666666666 146.4458333333335C947.3208333333334 240.2166666666667 1000 367.3916666666667 1000 500C1000 632.6083333333333 947.3208333333334 759.7850000000001 853.5541666666666 853.5533333333333C759.7833333333333 947.3216666666668 632.6083333333333 1000 500 1000C367.3916666666666 1000 240.215 947.3216666666668 146.4466666666667 853.5533333333333C52.6783333333333 759.7850000000001 0 632.6083333333333 0 500C0 367.3916666666667 52.6783333333333 240.2166666666667 146.4466666666667 146.4458333333335C240.215 52.6791666666667 367.3916666666666 0 500 0zM253.40875 746.5912500000001C271.7679166666666 764.9508333333333 301.4554166666667 764.9508333333333 319.6195833333333 746.5912500000001L499.8041666666667 566.4083333333333L679.9916666666667 746.5912500000001C698.35 764.9508333333333 728.0374999999999 764.9508333333333 746.1999999999999 746.5912500000001C764.3666666666666 728.2320833333333 764.5583333333333 698.5445833333333 746.1999999999999 680.3804166666666L566.0166666666667 500.1958333333333L746.1999999999999 320.0083333333334C764.5583333333333 301.65 764.5583333333333 271.9625000000001 746.1999999999999 253.8000000000001C727.8416666666666 235.6333333333335 698.1541666666667 235.4416666666667 679.9916666666667 253.8000000000001L499.8041666666667 433.9833333333334L319.6195833333333 253.8000000000001C301.26 235.4416666666667 271.5725 235.4416666666667 253.40875 253.8000000000001C235.2445833333334 272.1583333333334 235.0491666666667 301.8458333333333 253.40875 320.0083333333334L433.5916666666667 500.1958333333333L253.40875 680.3804166666666C235.0491666666667 698.74 235.0491666666667 728.4275 253.40875 746.5912500000001zM0 1000H1000V0H0V1000z" />
    <glyph glyph-name="cloud-arrow-down-light"
      unicode="&#xEA2A;"
      horiz-adv-x="1000" d="M609.0625 721.04125C568.2833333333333 779.01 501.0958333333334 816.66625 425 816.66625C304.0625 816.66625 205.46875 721.35375 200.15625 601.8225C199.21875 581.5083333333334 186.09375 563.6958333333334 166.875 556.8208333333333C98.75 532.7583333333333 50 467.9166666666667 50 391.6666666666668C50 294.9458333333335 128.28125 216.6666666666666 225 216.6666666666666H799.9999999999999C882.8125 216.6666666666666 950 283.8541666666668 950 366.6666666666668C950 424.1666666666668 917.6583333333334 474.1666666666667 869.9999999999999 499.3208333333334C849.0625 510.4166666666667 838.7499999999999 534.4791666666667 845.3125 557.2916666666667C848.4375 568.0708333333333 849.9999999999999 579.6333333333333 849.9999999999999 591.66625C849.9999999999999 660.72875 794.0625 716.66625 724.9999999999999 716.66625C705.7833333333333 716.66625 687.6583333333332 712.29125 671.4083333333333 704.635C649.375 694.16625 623.125 701.04125 609.0625 721.04125zM425 866.66625C517.9708333333333 866.66625 600.1583333333333 820.5725 650 749.79125C672.6583333333332 760.5725 698.1249999999999 766.66625 724.9999999999999 766.66625C821.7208333333333 766.66625 900 688.385 900 591.66625C900 574.9458333333334 897.6583333333333 558.8541666666667 893.2833333333333 543.5416666666667C956.7208333333334 510.1041666666667 1000 443.3833333333334 1000 366.6666666666668C1000 256.1958333333335 910.4708333333332 166.6666666666668 799.9999999999999 166.6666666666668H225C100.78125 166.6666666666668 0 267.4458333333335 0 391.6666666666668C0 489.7916666666667 62.8125 573.0708333333334 150.3125 604.01C156.71875 750.10375 277.1875 866.66625 425 866.66625zM357.34375 449.0083333333334C347.65625 458.6958333333333 347.65625 474.6333333333333 357.34375 484.3208333333333C367.03125 494.0083333333333 382.96875 494.0083333333333 392.65625 484.3208333333333L475 401.9791666666668V641.66625C475 655.41625 486.2499999999999 666.66625 500 666.66625C513.75 666.66625 525 655.41625 525 641.66625V401.9791666666668L607.3458333333333 484.3208333333333C617.0333333333333 494.0083333333333 632.9666666666667 494.0083333333333 642.6541666666666 484.3208333333333C652.3416666666666 474.6333333333333 652.3416666666666 458.6958333333333 642.6541666666666 449.0083333333334L517.6541666666667 324.0083333333334C507.9666666666666 314.3208333333335 492.0333333333333 314.3208333333335 482.3458333333333 324.0083333333334L357.34375 449.0083333333334z" />
    <glyph glyph-name="cloud-light"
      unicode="&#xEA2B;"
      horiz-adv-x="1000" d="M671.4083333333333 704.635C687.5 712.29125 705.6249999999999 716.66625 724.9999999999999 716.66625C794.0625 716.66625 849.9999999999999 660.72875 849.9999999999999 591.66625C849.9999999999999 579.6333333333333 848.2833333333332 568.2291666666667 845.3125 557.2916666666667C838.9083333333333 534.6333333333334 849.2208333333333 510.4166666666667 869.9999999999999 499.3208333333334C917.6583333333334 474.1666666666667 950 424.1666666666668 950 366.6666666666668C950 283.8541666666668 882.8125 216.6666666666666 799.9999999999999 216.6666666666666H225C128.28125 216.6666666666666 50 294.9458333333335 50 391.6666666666668C50 467.9166666666667 98.75 532.7583333333333 166.875 556.8208333333333C186.09375 563.5416666666667 199.375 581.3541666666667 200.15625 601.8225C205.46875 721.35375 304.0625 816.66625 425 816.66625C501.0958333333334 816.66625 568.2833333333333 779.01 609.0625 721.04125C623.125 701.1975 649.375 694.16625 671.4083333333333 704.635zM650 749.79125C600.1583333333333 820.5725 517.9708333333333 866.66625 425 866.66625C277.1875 866.66625 156.71875 750.10375 150.3125 604.01C62.8125 573.0708333333334 0 489.7916666666667 0 391.6666666666668C0 267.4458333333335 100.78125 166.6666666666668 225 166.6666666666668H799.9999999999999C910.4708333333332 166.6666666666668 1000 256.1958333333335 1000 366.6666666666668C1000 443.3833333333334 956.7208333333334 510.1041666666667 893.2833333333333 543.5416666666667C897.6583333333333 558.8541666666667 900 574.9458333333334 900 591.66625C900 688.385 821.7208333333333 766.66625 724.9999999999999 766.66625C698.1249999999999 766.66625 672.6583333333332 760.5725 650 749.79125z" />
    <glyph glyph-name="copy"
      unicode="&#xEA2C;"
      horiz-adv-x="1000" d="M767.8583333333332 1000C873.0541666666666 1000 958.3333333333331 917.52625 958.3333333333331 815.7895833333333L958.3333333333331 309.2125C958.3333333333331 207.475 873.0541666666666 125 767.8583333333332 125H482.1416666666667C376.9458333333333 125 291.6666666666667 207.475 291.6666666666667 309.2125V815.7895833333333C291.6666666666667 917.52625 376.9458333333333 1000 482.1416666666667 1000H767.8583333333332zM899.4041666666666 309.2083333333334L899.4041666666666 815.7887499999999C899.4041666666666 886.66875 840.1125 943.4204166666668 767.8583333333332 943.4204166666668L482.1416666666667 943.4204166666668C409.8875 943.4204166666668 350.5945833333334 886.66875 350.5945833333334 815.7887499999999L350.5941666666667 309.2083333333334C350.5941666666667 238.3291666666667 409.8875 181.5791666666668 482.1416666666667 181.5791666666668H767.8541666666666C840.1125 181.5791666666668 899.4041666666666 238.3291666666667 899.4041666666666 309.2083333333334zM249.3791666666667 875H232.1429166666667C126.9458333333333 875 41.6666666666667 792.52625 41.6666666666667 690.7895833333333V184.2125C41.6666666666667 82.475 126.9458333333333 0 232.1429166666667 0H517.8583333333332C580.7833333333333 0 636.5833333333334 29.5083333333334 671.2666666666665 75.0000000000001H585.9499999999999C566.0458333333333 63.2958333333335 542.7166666666666 56.5791666666668 517.8541666666666 56.5791666666668H232.1420833333333C159.8875 56.5791666666668 100.5941666666667 113.3291666666667 100.5941666666667 184.2083333333334L100.5945833333333 690.7887499999999C100.5945833333333 761.66875 159.8875 818.4204166666666 232.1420833333333 818.4204166666666H241.6833333333333C241.9025 837.9979166666667 244.5658333333334 856.9429166666666 249.3791666666667 875z" />
    <glyph glyph-name="domain_composant"
      unicode="&#xEA2D;"
      horiz-adv-x="1000" d="M444.8583333333334 892.42625C444.8583333333334 952.1091666666666 493.0125 1000 552.4333333333333 1000C611.8833333333333 1000 660.0041666666666 951.8783333333334 660.0041666666666 892.42625V834.2520833333333C660.0041666666666 797.1766666666667 689.8208333333333 767.5029166666667 726.7541666666666 767.5029166666667H872.0916666666666C883.3625 767.5029166666667 892.5041666666667 758.3641666666667 892.5041666666667 747.0908333333333V601.755C892.5041666666667 574.4875 870.3708333333333 552.3541666666667 843.1041666666666 552.3541666666667H784.9291666666667C715.8375 552.3541666666667 660.0041666666666 496.525 660.0041666666666 427.4333333333334C660.0041666666666 358.3416666666667 715.8375 302.5083333333335 784.9291666666667 302.5083333333335H843.1041666666666C870.3708333333333 302.5083333333335 892.5041666666667 280.375 892.5041666666667 253.1083333333334V20.4125C892.5041666666667 9.1375 883.3625 0 872.0916666666666 0H290.7479166666667C199.11 0 125 74.1083333333335 125 165.7458333333335V747.0908333333333C125 758.3641666666667 134.13875 767.5029166666667 145.4120833333333 767.5029166666667H378.1091666666666C415.1845833333333 767.5029166666667 444.8583333333334 797.3166666666667 444.8583333333334 834.2520833333333V892.42625zM552.4333333333333 959.1755C515.4958333333333 959.1755 485.6833333333333 929.5016666666666 485.6833333333333 892.42625V834.2520833333333C485.6833333333333 774.83125 437.7916666666667 726.6783333333333 378.1091666666666 726.6783333333333H165.8245833333333V165.7458333333335C165.8245833333333 96.6583333333334 221.6566666666667 40.825 290.7479166666667 40.825H851.6791666666667V253.1083333333334C851.6791666666667 257.8291666666667 847.8249999999999 261.6833333333334 843.1041666666666 261.6833333333334H784.9291666666667C693.2916666666666 261.6833333333334 619.1791666666667 335.7958333333334 619.1791666666667 427.4333333333334C619.1791666666667 519.0708333333334 693.2916666666666 593.1800000000001 784.9291666666667 593.1800000000001H843.1041666666666C847.8208333333333 593.1800000000001 851.6791666666667 597.0354166666666 851.6791666666667 601.755V726.6783333333333H726.7541666666666C667.3333333333333 726.6783333333333 619.1791666666667 774.5691666666667 619.1791666666667 834.2520833333333V892.42625C619.1791666666667 929.3316666666668 589.3375 959.1755 552.4333333333333 959.1755z" />
    <glyph glyph-name="domain_fonction"
      unicode="&#xEA2E;"
      horiz-adv-x="1000" d="M41.6565 855.0979166666666C41.6565 935.125 106.5316666666667 1000 186.55875 1000C266.5858333333333 1000 331.4608333333333 935.125 331.4608333333333 855.0979166666666C331.4608333333333 781.99625 277.335 721.5454166666667 206.9666666666667 711.6225V593.9200000000001C206.9666666666667 556.5833333333334 241.1383333333333 523.0041666666666 288.0725 523.0041666666666H693.925C740.6583333333333 523.0041666666666 775.0333333333333 556.7791666666667 775.0333333333333 593.9200000000001V711.5945833333333C704.5666666666667 721.4308333333333 650.3375 781.9270833333334 650.3375 855.0979166666666C650.3375 935.125 715.2124999999999 1000 795.2416666666666 1000C875.2666666666665 1000 940.1416666666667 935.125 940.1416666666667 855.0979166666666C940.1416666666667 782.0654166666667 886.1208333333333 721.6600000000001 815.85 711.6508333333334V593.9200000000001C815.85 530.2833333333334 759.0333333333333 482.1916666666667 693.925 482.1916666666667H511.3083333333333V288.3791666666667C581.675 278.4541666666668 635.8 218.0041666666667 635.8 144.9041666666667C635.8 64.875 570.925 0 490.8999999999999 0C410.8729166666667 0 345.9975 64.875 345.9975 144.9041666666667C345.9975 218.0041666666667 400.1233333333333 278.4541666666668 470.4916666666667 288.3791666666667V482.1916666666667H288.0725C222.7708333333333 482.1916666666667 166.1504166666667 530.0833333333333 166.1504166666667 593.9200000000001V711.6225C95.7825 721.5454166666667 41.6565 781.99625 41.6565 855.0979166666666zM186.55875 959.1836666666666C129.07375 959.1836666666666 82.4729166666667 912.5829166666668 82.4729166666667 855.0979166666666C82.4729166666667 798.4879166666667 127.6675 752.4320833333334 183.94 751.0441666666667C184.80125 751.155 185.6758333333333 751.2116666666667 186.55875 751.2116666666667C187.4416666666666 751.2116666666667 188.31625 751.155 189.1775 751.0441666666667C245.45 752.4320833333334 290.6445833333333 798.4879166666667 290.6445833333333 855.0979166666666C290.6445833333333 912.5829166666668 244.0433333333333 959.1836666666666 186.55875 959.1836666666666zM795.2416666666666 959.1836666666666C737.7541666666666 959.1836666666666 691.1541666666667 912.5829166666668 691.1541666666667 855.0979166666666C691.1541666666667 798.43125 736.4416666666667 752.3395833333334 792.7916666666666 751.04C793.6624999999999 751.15375 794.5458333333332 751.2116666666667 795.4416666666666 751.2116666666667C796.3124999999999 751.2116666666667 797.175 751.15625 798.025 751.0483333333333C854.2208333333333 752.5225 899.3249999999999 798.54375 899.3249999999999 855.0979166666666C899.3249999999999 912.5829166666668 852.7249999999999 959.1836666666666 795.2416666666666 959.1836666666666zM490.8999999999999 248.9875000000001C433.4166666666667 248.9875000000001 386.8137500000001 202.3874999999999 386.8137500000001 144.9041666666667C386.8137500000001 87.4166666666666 433.4166666666667 40.8166666666668 490.8999999999999 40.8166666666668C548.3833333333332 40.8166666666668 594.9875 87.4166666666666 594.9875 144.9041666666667C594.9875 202.3874999999999 548.3833333333332 248.9875000000001 490.8999999999999 248.9875000000001z" />
    <glyph glyph-name="domain_marche"
      unicode="&#xEA2F;"
      horiz-adv-x="1000" d="M289.69875 536.5625C289.69875 581.4875 325.9595833333334 617.7470833333334 370.8816666666667 617.7470833333334C415.80375 617.7470833333334 452.0625 581.4875 452.0625 536.5625V164.5166666666667C452.0625 119.5958333333334 415.80375 83.3333333333334 370.8816666666667 83.3333333333334C325.9595833333334 83.3333333333334 289.69875 119.5958333333334 289.69875 164.5166666666667V536.5625zM785.7624999999999 536.5625C785.7624999999999 581.4875 822.025 617.7470833333334 866.9458333333332 617.7470833333334C911.8666666666666 617.7470833333334 948.1291666666666 581.4875 948.1291666666666 536.5625V164.5166666666667C948.1291666666666 119.5958333333334 911.8666666666666 83.3333333333334 866.9458333333332 83.3333333333334C822.025 83.3333333333334 785.7624999999999 119.5958333333334 785.7624999999999 164.5166666666667V536.5625zM370.8816666666667 579.3958333333334C347.1395833333334 579.3958333333334 328.0483333333334 560.3083333333334 328.0483333333334 536.5625V164.5166666666667C328.0483333333334 140.775 347.1395833333334 121.6833333333334 370.8816666666667 121.6833333333334C394.62375 121.6833333333334 413.7145833333333 140.775 413.7145833333333 164.5166666666667V536.5625C413.7145833333333 560.3083333333334 394.62375 579.3958333333334 370.8816666666667 579.3958333333334zM866.9458333333332 579.3958333333334C843.2041666666665 579.3958333333334 824.1125 560.3083333333334 824.1125 536.5625V164.5166666666667C824.1125 140.775 843.2041666666665 121.6833333333334 866.9458333333332 121.6833333333334C890.6875 121.6833333333334 909.7791666666666 140.775 909.7791666666666 164.5166666666667V536.5625C909.7791666666666 560.3083333333334 890.6875 579.3958333333334 866.9458333333332 579.3958333333334zM537.7291666666666 412.55C537.7291666666666 457.4708333333334 573.9916666666667 493.7291666666667 618.9124999999999 493.7291666666667C663.8375 493.7291666666667 700.0958333333333 457.4708333333334 700.0958333333333 412.55V164.5166666666667C700.0958333333333 119.5958333333334 663.8375 83.3333333333334 618.9124999999999 83.3333333333334C573.9916666666667 83.3333333333334 537.7291666666666 119.5958333333334 537.7291666666666 164.5166666666667V412.55zM618.9124999999999 455.3833333333333C595.1708333333333 455.3833333333333 576.0791666666667 436.2916666666668 576.0791666666667 412.55V164.5166666666667C576.0791666666667 140.775 595.1708333333333 121.6833333333334 618.9124999999999 121.6833333333334C642.6541666666666 121.6833333333334 661.7458333333333 140.775 661.7458333333333 164.5166666666667V412.55C661.7458333333333 436.2916666666668 642.6541666666666 455.3833333333333 618.9124999999999 455.3833333333333zM41.6666666666667 350.5416666666668C41.6666666666667 395.4625 77.9275 431.725 122.8495833333333 431.725C167.7716666666667 431.725 204.0325 395.4625 204.0325 350.5416666666668V164.5166666666667C204.0325 119.5958333333334 167.7716666666667 83.3333333333334 122.8495833333333 83.3333333333334C77.9275 83.3333333333334 41.6666666666667 119.5958333333334 41.6666666666667 164.5166666666667V350.5416666666668zM122.8495833333333 393.3750000000001C99.1075 393.3750000000001 80.01625 374.2833333333333 80.01625 350.5416666666668V164.5166666666667C80.01625 140.775 99.1075 121.6833333333334 122.8495833333333 121.6833333333334C146.5916666666667 121.6833333333334 165.6825 140.775 165.6825 164.5166666666667V350.5416666666668C165.6825 374.2833333333333 146.5916666666667 393.3750000000001 122.8495833333333 393.3750000000001zM994.9583333333334 951.2070833333333C1002.3749999999998 942.5425 1001.5083333333334 929.3816666666665 993.0208333333331 921.81125L632.0375 599.8425C624.0208333333333 592.6916666666667 611.9625 593.03375 604.35 600.6283333333333L369.5670833333333 834.7566666666667L32.9556666666667 566.9041666666667C24.0662083333333 559.8291666666667 11.2425833333333 561.45 4.3132916666667 570.5250000000001C-2.6160333333333 579.5999999999999 -1.0270166666667 592.6916666666667 7.8624583333333 599.7654166666666L358.53125 878.8050000000001C366.58375 885.2125 378.0354166666667 884.5595833333333 385.33875 877.27625L619.3791666666666 643.885L966.1625 953.1883333333332C974.65 960.75875 987.5458333333332 959.8717916666666 994.9583333333334 951.2070833333333zM0 1000H1000V0H0V1000z" />
    <glyph glyph-name="domain_science"
      unicode="&#xEA30;"
      horiz-adv-x="1000" d="M293.8666666666667 1000C282.8208333333334 1000 273.8666666666667 991.0457083333334 273.8666666666667 980C273.8666666666667 968.9542916666666 282.8208333333334 960 293.8666666666667 960H320.2666666666667V630C320.2666666666667 611.09625 315.0033333333334 592.3316666666667 305.1608333333333 576.2125000000001L65.3254166666667 236.3291666666668C65.0779166666667 235.9791666666667 64.8416666666667 235.6208333333334 64.6170833333333 235.2541666666667C49.73125 210.9791666666668 41.6666666666667 183.1708333333334 41.6666666666667 154.4000000000001C41.6666666666667 69.1541666666668 110.8208333333333 0 196.0666666666666 0H794.4666666666666C879.7125 0 948.8666666666666 69.1541666666668 948.8666666666666 154.4000000000001C948.8666666666666 182.9583333333333 940.8083333333332 210.9666666666667 925.9166666666666 235.2541666666667C925.6875 235.6250000000001 925.45 235.9875 925.2 236.3416666666667L685.1958333333333 575.9791666666667C675.3 592.3645833333333 670.0666666666667 610.9583333333334 670.0666666666667 629.8V960H696.4666666666666C707.5124999999999 960 716.4666666666666 968.9542916666666 716.4666666666666 980C716.4666666666666 991.0457083333334 707.5124999999999 1000 696.4666666666666 1000H650.0666666666666C639.0208333333333 1000 630.0666666666667 991.0457083333334 630.0666666666667 980V629.8C630.0666666666667 603.2479166666667 637.5208333333333 577.2416666666667 651.4083333333333 554.5583333333334C651.6374999999999 554.1833333333334 651.8791666666666 553.8166666666667 652.1333333333332 553.4583333333333L773.8125 381.2666666666667H216.5533333333333L338.2079166666666 553.6708333333333C338.4404166666667 554 338.6633333333333 554.3375000000001 338.8758333333334 554.6791666666668C352.8379166666666 577.25 360.2666666666667 603.4966666666667 360.2666666666667 630V980C360.2666666666667 991.0457083333334 351.3125 1000 340.2666666666667 1000H293.8666666666667zM187.1516666666667 339.6L98.3941666666667 213.8166666666666C87.4875 195.8208333333333 81.6666666666667 175.4208333333335 81.6666666666667 154.4000000000001C81.6666666666667 91.2458333333334 132.9125 40.0000000000001 196.0666666666666 40.0000000000001H794.4666666666666C857.6208333333333 40.0000000000001 908.8666666666666 91.2458333333334 908.8666666666666 154.4000000000001C908.8666666666666 175.2375000000001 903.0375 195.8250000000001 892.1416666666667 213.8125L803.2541666666666 339.6H187.1516666666667z" />
    <glyph glyph-name="domain_societe"
      unicode="&#xEA31;"
      horiz-adv-x="1000" d="M499.9958333333333 709.0158333333334C447.9291666666666 709.0158333333334 405.5945833333334 666.4608333333333 405.5945833333334 614.2154166666667C405.5945833333334 562.0625 447.8416666666667 519.8166666666667 499.9958333333333 519.8166666666667C540.5625 519.8166666666667 575.1291666666666 545.3708333333334 588.6958333333333 581.1125L588.7416666666666 581.2375C592.6208333333333 591.24875 594.7833333333333 602.56 594.7958333333333 614.3158333333333C594.7416666666666 666.60125 552.1375 709.0158333333334 499.9958333333333 709.0158333333334zM634.7958333333332 614.0891666666666C634.7541666666666 597.61625 631.7291666666666 581.5 626.0708333333333 566.8541666666667C606.8208333333333 516.2291666666667 557.8041666666667 479.8166666666666 499.9958333333333 479.8166666666666C425.75 479.8166666666666 365.5945833333333 539.9708333333334 365.5945833333333 614.2154166666667C365.5945833333333 688.3704166666666 425.6583333333333 749.0158333333334 499.9958333333333 749.0158333333334C574.125 749.0158333333334 634.6458333333334 688.8316666666667 634.7958333333332 614.4891666666667L634.7958333333332 614.4154166666667V614.2154166666667C634.7958333333332 614.1733333333334 634.7958333333332 614.13125 634.7958333333332 614.0891666666666zM634.7958333333332 614.0891666666666C634.7958333333332 614.13125 634.7958333333332 614.1733333333334 634.7958333333332 614.2154166666667L634.7958333333332 614.0891666666666zM484.7958333333333 480.0166666666668C426.9125 480.0166666666668 374.7395833333333 456.6750000000001 336.7366666666667 418.6750000000001C303.3666666666667 385.3041666666667 281.25125 340.5625000000001 276.5375 290.8166666666667H723.625C722.375 303.6791666666667 719.9499999999999 316.1375000000001 716.5583333333332 328.1458333333334C691.5291666666666 415.8000000000001 610.7958333333333 480.0166666666668 515.3958333333334 480.0166666666668H484.7958333333333zM308.4525 446.9583333333334C353.6495833333334 492.1541666666667 415.8770833333333 520.0166666666667 484.7958333333333 520.0166666666667H515.3958333333334C629.1875 520.0166666666667 725.2458333333333 443.4416666666667 755.025 339.1041666666668L755.0416666666665 339.0583333333334C761.1083333333333 317.6041666666667 764.5958333333333 294.7750000000001 764.5958333333333 270.8166666666667C764.5958333333333 259.7708333333334 755.6416666666667 250.8166666666667 744.5958333333333 250.8166666666667H255.5945833333333C244.54875 250.8166666666667 235.5945833333334 259.7708333333334 235.5945833333334 270.8166666666667C235.5945833333334 339.5125000000001 263.4391666666667 401.9458333333334 308.4525 446.9583333333334zM500 960C245.9491666666667 960 40 754.0508333333333 40 500C40 245.9500000000001 245.9491666666667 40.0000000000001 500 40.0000000000001C754.05 40.0000000000001 959.9999999999998 245.9500000000001 959.9999999999998 500C959.9999999999998 754.0508333333333 754.05 960 500 960zM0 500C0 776.1425 223.8575 1000 500 1000C776.1416666666667 1000 1000 776.1425 1000 500C1000 223.8583333333334 776.1416666666667 0 500 0C223.8575 0 0 223.8583333333334 0 500zM319.8320833333334 289.1458333333334C329.96375 293.5458333333335 341.74375 288.9 346.1441666666667 278.7666666666668C379.4991666666666 201.975 432.3125 121.0791666666667 511.5458333333333 37.1291666666668C511.9208333333333 36.7291666666666 512.275 36.3208333333334 512.6166666666666 35.8958333333334C512.8333333333333 35.6250000000001 513.1416666666667 35.2500000000001 513.4749999999999 34.8708333333334C513.8291666666667 34.4666666666668 514.0625 34.2208333333334 514.1416666666667 34.1416666666668C521.9541666666667 26.3333333333335 521.9541666666667 13.6666666666667 514.1416666666667 5.8583333333333C506.3333333333333 -1.9541666666667 493.6666666666667 -1.9541666666667 485.8583333333333 5.8583333333333C484.425 7.2916666666667 482.9916666666666 8.9416666666667 481.9458333333333 10.2125000000001C400.2583333333333 96.8708333333334 344.8270833333333 181.3958333333334 309.4558333333333 262.8333333333334C305.055 272.9625000000001 309.7008333333333 284.7458333333334 319.8320833333334 289.1458333333334zM512.4958333333333 964.385625L512.5208333333333 964.404125L512.5416666666666 964.4194583333332L512.2041666666667 964.13625C511.8666666666667 963.8510416666666 511.3 963.361375 510.5041666666667 962.6452916666668C490.4499999999999 943.9566666666668 373.0720833333333 831.2641666666666 321.9491666666667 661.6291666666666L321.92 661.5316666666668C297.9741666666667 583.5150000000001 288.55375 493.5458333333334 308.9829166666667 395.0625C311.2266666666667 384.2458333333334 304.2775 373.6583333333334 293.4620833333334 371.4166666666668C282.6466666666667 369.1750000000001 272.0604166666667 376.1208333333334 269.8170833333333 386.9375C247.8504166666667 492.8333333333333 258.0220833333333 589.6470833333333 283.6654166666667 673.2195833333333C338.04 853.5920833333333 462.2458333333333 972.360625 483.3708333333333 992.0354166666668L483.6208333333333 992.265875C484.7583333333333 993.2890416666665 485.65 994.0634583333334 486.2958333333333 994.61375C486.6208333333333 994.8889166666665 486.8833333333333 995.1080833333332 487.0833333333333 995.2742916666666L487.3416666666666 995.4843333333334L487.4333333333333 995.5603333333333L487.4916666666666 995.6048333333334C487.4916666666666 995.6048333333334 487.5041666666667 995.6173333333334 500 980L487.4916666666666 995.6048333333334C496.1166666666667 1002.5050625 508.7166666666666 1001.1191708333334 515.6166666666667 992.4939583333334C522.4999999999999 983.8906666666666 521.125 971.3468333333332 512.5583333333333 964.435375L512.4958333333333 964.385625zM512.5416666666666 964.4194583333332L512.5583333333333 964.435375L512.5416666666666 964.4194583333332zM673.9666666666666 289.1458333333334C684.0999999999999 284.7458333333334 688.7458333333334 272.9625000000001 684.3458333333332 262.8333333333334C648.9 181.2291666666666 593.3166666666666 96.5291666666668 511.5624999999999 9.6916666666668C511.425 9.5458333333333 511.2833333333333 9.4000000000001 511.1416666666667 9.2583333333334C511.0375 9.1541666666667 510.8625 8.9666666666667 510.3 8.3458333333333L510.2208333333333 8.2625C509.7708333333333 7.7666666666667 508.9875 6.9041666666668 508.1416666666666 6.0583333333333C504.3916666666666 2.3083333333334 499.3041666666666 0.2 493.9999999999999 0.2H493.8C482.7541666666667 0.2 473.8 9.1541666666667 473.8 20.2C473.8 26.35 476.5791666666667 31.8541666666667 480.9458333333333 35.525C481.3583333333333 35.975 481.9541666666667 36.6250000000001 482.6083333333333 37.2916666666667C561.5583333333333 121.1875 614.3249999999999 202.0250000000001 647.6541666666666 278.7666666666668C652.0541666666667 288.9 663.8375 293.5458333333335 673.9666666666666 289.1458333333334zM473.8 979.8C473.8 990.8457083333332 482.7541666666667 999.8 493.8 999.8H493.9999999999999C499.075 999.8 503.9499999999999 997.8711 507.65 994.4192916666668L507.7083333333333 994.369875C507.8166666666666 994.28125 507.9583333333333 994.1700416666666 508.1208333333333 994.045625C508.2833333333333 993.9215 508.4541666666666 993.7954583333334 508.625 993.6746666666666C509.3083333333333 993.1864583333333 509.9583333333333 992.6556666666665 510.5791666666667 992.0854583333333C532.6125 971.714875 655.9791666666666 852.95 710.1374999999999 673.2033333333334C735.15 591.3354166666667 745.5416666666666 497.2083333333334 725.4291666666666 394.1708333333334C723.3125 383.3291666666667 712.8083333333333 376.2541666666667 701.9708333333333 378.3708333333334C691.1291666666666 380.4875000000001 684.0541666666667 390.9916666666668 686.1708333333332 401.8291666666668C704.8583333333332 497.575 695.2541666666666 585.0333333333334 671.875 661.5558333333333L671.85 661.6308333333334C621.4499999999999 828.9275 506.7291666666666 941.0308333333334 484.2375 961.9572083333334C483.7166666666666 962.3506666666668 483.1708333333333 962.7710416666666 482.6374999999999 963.2036666666665C477.3041666666666 966.79625 473.8 972.88875 473.8 979.8zM581.5999999999999 667.4000000000001C581.5999999999999 678.4458333333334 590.5541666666666 687.4000000000001 601.5999999999999 687.4000000000001H950.2C961.2458333333332 687.4000000000001 970.2 678.4458333333334 970.2 667.4000000000001C970.2 656.3541666666667 961.2458333333332 647.4 950.2 647.4H601.5999999999999C590.5541666666666 647.4 581.5999999999999 656.3541666666667 581.5999999999999 667.4000000000001zM30 667.4000000000001C30 678.4458333333334 38.9542916666667 687.4000000000001 50 687.4000000000001H398.8C409.8458333333333 687.4000000000001 418.8 678.4458333333334 418.8 667.4000000000001C418.8 656.3541666666667 409.8458333333333 647.4 398.8 647.4H50C38.9542916666667 647.4 30 656.3541666666667 30 667.4000000000001zM716 332.8000000000001C716 343.8458333333334 724.9541666666667 352.8000000000001 736 352.8000000000001H950.2C961.2458333333332 352.8000000000001 970.2 343.8458333333334 970.2 332.8000000000001C970.2 321.7541666666667 961.2458333333332 312.8000000000001 950.2 312.8000000000001H736C724.9541666666667 312.8000000000001 716 321.7541666666667 716 332.8000000000001zM30 332.8000000000001C30 343.8458333333334 38.9542916666667 352.8000000000001 50 352.8000000000001H264C275.0458333333333 352.8000000000001 284 343.8458333333334 284 332.8000000000001C284 321.7541666666667 275.0458333333333 312.8000000000001 264 312.8000000000001H50C38.9542916666667 312.8000000000001 30 321.7541666666667 30 332.8000000000001zM0 1000H1000V0H0V1000z" />
    </font>
</defs>
</svg>
